<?xml version="1.0" encoding="UTF-8"?><svg id="Layer_1" xmlns="http://www.w3.org/2000/svg" width="1443" height="713" xmlns:xlink="http://www.w3.org/1999/xlink" viewBox="0 0 1443 713"><defs><style>.cls-1{fill:url(#linear-gradient);}.cls-2{fill:#008ddf;}.cls-3{fill:#ffe9a1;}.cls-4{fill:#744100;}.cls-5{fill:#109400;}.cls-6{fill:#0a7f00;}.cls-7{fill:#88de88;}.cls-8{fill:#8a4600;}.cls-9{fill:url(#linear-gradient-2);}</style><linearGradient id="linear-gradient" x1="-.02" y1="443.19" x2="100" y2="443.19" gradientUnits="userSpaceOnUse"><stop offset="0" stop-color="#fff"/><stop offset="1" stop-color="#000"/></linearGradient><linearGradient id="linear-gradient-2" x1="619.28" y1="428.56" x2="681" y2="428.56" gradientUnits="userSpaceOnUse"><stop offset="0" stop-color="#fff"/><stop offset=".8" stop-color="#090909"/><stop offset="1" stop-color="#000"/></linearGradient></defs><rect class="cls-7" width="1443" height="519"/><polygon class="cls-8" points="177 480 177 63 195 63 195 477.05 177 480"/><polygon class="cls-8" points="1127 480 1127 54 1145 54 1145 476.98 1127 480"/><polygon class="cls-8" points="525 456 525 53 543 53 543 453.15 525 456"/><polygon class="cls-4" points="797.16 450 797.16 63.6 819.04 63.6 819.04 447.26 797.16 450"/><path class="cls-2" d="m0,594.22l93.02-28.93,94.04,8.12c52.13,29.42-23.51,50.73,52.13,29.42,75.64-21.31-10.22-34.5,75.64-21.31,85.86,13.19-7.16,36.52,85.86,13.19s13.29-47.69,93.02-23.34c79.73,24.35,94.04-9.13,79.73,24.35-14.31,33.48,88.93-19.28,88.93-19.28,75.64,13.19-12.27,39.57,75.64,13.19,87.91-26.38,17.38-46.67,87.91-26.38,70.53,20.29-2.04,36.52,70.53,20.29,72.57-16.23,143.99-.32,143.99-.32,48.18-15.91,120.75,11.48,48.18-15.91-72.57-27.39,132.88,43.63,72.57,27.39-60.31-16.23,55.2-22.32,55.2-22.32l68.78,10.84,93.75-14.9,58.87,14.9,37.22-13.57v184.34H0"/><path class="cls-3" d="m-203,508.61l306.12-45.57,401.93-19.04h419.93c5.74.29,33.27,1.65,39.02,1.93,107.96,5.34,215.92,10.59,323.88,15.75,65.04,10.76,130.08,21.53,195.12,32.29v99.33l-42.54,17.35h-174.45l-129.45-8.5-32.09,11.16-118.21-2.66-110.01-12.4-95.02,20.79-109.28-9.81-80.09,23.54-123.74,7.23-182.56-25.43-82.91,22.01-91.76-27.35-17.74,17.69-22.75,8.79-39.37,4.3-96.15-50.9c-10.52-.46-21.04-.92-31.56-1.38"/><polygon class="cls-4" points="88.12 494 88.12 136 112 136 112 491.47 88.12 494"/><polygon class="cls-4" points="400 467 400 163 418 163 418 464.85 400 467"/><polygon class="cls-4" points="758.97 456 758.97 175 780.85 175 780.85 454.01 758.97 456"/><polygon class="cls-4" points="599 450 599 90 620.85 90 620.85 447.45 599 450"/><polygon class="cls-4" points="245.97 474 245.97 230 267.85 230 267.85 472.27 245.97 474"/><path class="cls-5" d="m435.05,149.45c25.78-.04,52.23,2.28,75.34,12.13,23.11,9.85,42.45,28.38,45.61,50.42-7.53-12.57-24.64-18.17-40.48-21.91-19.83-4.7-40.05-8.18-60.46-10.41-16.87-1.84-34.56-2.75-50.38,2.64,6.38-2.17-3.38-24.35-1.02-27.78,4.17-6.06,24.39-5.07,31.38-5.08Z"/><path class="cls-5" d="m427.86,135.6c25.11-14.73,52.01-27.9,79.27-32.97,27.26-5.07,55.04-.84,68.73,15.49-13.39-6.05-32.76-.9-50,5.04-21.59,7.44-42.98,16.11-63.94,25.91-17.34,8.1-35.01,17.44-47.84,30.89,5.18-5.43-15.02-18.12-14.37-22.28,1.15-7.37,21.33-18.08,28.14-22.07Z"/><path class="cls-5" d="m404.39,142.36c15.14-24.53,32.22-48.73,52.3-66.69,20.07-17.96,43.66-28.79,60.03-22.83-12.71,2.03-26.46,16.03-38.24,29.56-14.76,16.94-28.94,34.75-42.41,53.24-11.14,15.29-22.14,31.74-27.89,48.97,2.32-6.96-18.03-6.71-18.9-10.35-1.54-6.43,11.01-25.25,15.11-31.91Z"/><path class="cls-5" d="m111.41,115c21.19-12.44,44.26-22.95,68.79-24.64s50.84,6.77,65.79,26.36c-13.24-8.42-30.46-5.55-45.59-1.52-18.95,5.05-37.54,11.44-55.58,19.13-14.92,6.35-29.98,14-39.97,26.77,4.03-5.16-16.43-21.71-16.41-26.13.03-7.82,17.23-16.6,22.97-19.97Z"/><path class="cls-5" d="m363.18,167.43c15.75-6.27,31.5-12.53,47.25-18.8,5.12-2.04,11.43-3.73,16.59,1.56,4.42,4.54,5.83,12.09,6.81,18.71-21.95,6.63-44.04,13.32-63.69,25.49-19.65,12.17-36.93,30.26-46.26,56.03-3.9-23.73-10.61-42.78,1.2-58.52,9.79-13.04,24.36-19,38.1-24.46Z"/><path class="cls-5" d="m352.85,134.22c16.83,2,33.66,4,50.5,5.99,5.47.65,11.82,2.16,13.84,9.28,1.73,6.1-.63,13.41-2.93,19.69-22.46-4.63-45.06-9.28-68.14-7.94s-46.89,9-67.37,27.2c7.88-22.73,11.06-42.67,28.95-50.88,14.82-6.8,30.47-5.09,45.15-3.35Z"/><path class="cls-5" d="m714.92,174.33c16.55-3.66,33.1-7.31,49.65-10.97,5.38-1.19,11.84-2.03,15.76,2.39,3.36,3.79,3.19,9.66,2.78,14.8-22.64,3.49-45.42,7.02-66.96,14.91-21.54,7.89-41.99,20.48-56.3,39.52,1.06-18.43-1.55-33.49,13.12-44.67,12.15-9.27,27.5-12.77,41.94-15.96Z"/><path class="cls-5" d="m392.31,100.67c14.03,9.51,28.06,19.02,42.09,28.53,4.56,3.09,9.4,7.51,6.95,16.09-2.1,7.36-8.62,14.25-14.47,20.05-17.54-14.82-35.21-29.72-56.89-38.35-21.68-8.63-47.83-10.72-77.29.07,20.77-21.18,35.63-41.4,56.74-42.48,17.49-.9,30.62,7.78,42.87,16.08Z"/><path class="cls-5" d="m110.18,133.25c17.92,1.65,36.05,5.94,51.08,18.34,15.03,12.4,26.54,34.15,26.44,58.71-3.92-14.39-15.23-21.69-25.84-26.87-13.29-6.49-26.98-11.66-40.92-15.46-11.53-3.14-23.73-5.3-35.28-.38,4.66-1.99.19-27.14,2.18-30.77,3.53-6.43,17.47-4.01,22.33-3.56Z"/><path class="cls-5" d="m44.93,126.56c16.83,2,33.66,4,50.5,5.99,5.47.65,11.82,2.16,13.84,9.28,1.73,6.1-.63,13.41-2.93,19.69-22.46-4.63-45.06-9.28-68.14-7.94s-46.89,9-67.37,27.2c7.88-22.73,11.06-42.67,28.95-50.88,14.82-6.8,30.47-5.09,45.15-3.35Z"/><path class="cls-5" d="m58.87,86.52c14.7,8.45,29.39,16.89,44.09,25.34,4.78,2.74,10.02,6.63,9.09,13.96-.8,6.28-5.84,12.08-10.43,16.96-18.84-13.08-37.8-26.22-59.55-34.06-21.75-7.83-46.66-10.13-72.64-1.43C-14.4,89.49-3.64,72.39,16.03,71.87c16.3-.43,30.02,7.28,42.84,14.65Z"/><path class="cls-5" d="m56.61,152.29c16.34-4.49,32.69-8.99,49.03-13.48,5.31-1.46,11.77-2.45,16.31,3.37,3.9,4.99,4.47,12.66,4.71,19.34-22.55,4.17-45.23,8.39-66.1,18.33-20.87,9.93-40.04,26.01-52.14,50.59-1.27-24.02-5.84-43.69,7.63-58.03,11.16-11.88,26.3-16.2,40.56-20.12Z"/><path class="cls-5" d="m96.36,101.2c16.38-18.32,34.6-35.85,55.24-46.93,20.64-11.08,44.14-14.78,59.46-5.11-12.38-1.46-26.64,7.67-38.98,16.88-15.45,11.54-30.41,24.01-44.74,37.29-11.85,10.98-23.65,23.05-30.45,37.19,2.75-5.71-16.86-10.78-17.43-14.3-1.01-6.24,12.45-20.06,16.89-25.03Z"/><path class="cls-6" d="m215.7,263.93c-7.1,3.58-14.24,7.19-20.43,12.31-11.83,9.78-19.56,24.52-27.07,38.97,2.11-27.97,15.69-51.21,33.37-67.87,12.45-11.74,61.36-56.36,74.5-14.37-18.48,12.49-40.44,20.9-60.37,30.96Z"/><path class="cls-6" d="m213.43,197.33c16.25,4.84,32.49,9.67,48.74,14.51,5.28,1.57,11.32,4.03,12.44,10.3.96,5.38-2.22,10.98-5.22,15.76-21.44-8.08-43.02-16.2-65.78-19.46-22.76-3.26-47-1.41-69.23,9.8,10.43-17.33,15.93-33.25,34.43-36.66,15.33-2.83,30.45,1.54,44.62,5.76Z"/><path class="cls-6" d="m213.23,192.02c-6.33-4.82-12.69-9.66-20-12.99-13.97-6.37-30.61-6.88-46.89-7.31,26.08-10.33,52.92-8.28,75.63.34,16,6.07,77.51,30.55,45.49,60.73-19.31-11.16-36.48-27.24-54.24-40.76Z"/><path class="cls-6" d="m271.68,221.63c16.81,7.26,33.24,16.58,44.9,30.93,11.66,14.35,17.88,34.52,12.35,52.9-.57-12.1-9.8-21.38-18.82-28.83-11.3-9.33-23.28-17.81-35.8-25.35-10.36-6.23-21.57-11.96-33.73-12.15,4.91.08,6.19-20.28,8.9-22.33,4.8-3.63,17.63,2.88,22.19,4.84Z"/><path class="cls-6" d="m273.57,207.65c18.3.55,37.01,3.16,53.14,12.19,16.13,9.03,29.35,25.5,30.99,44.61-5-11.04-16.99-16.26-28.13-19.86-13.95-4.51-28.21-7.97-42.63-10.36-11.93-1.98-24.46-3.16-35.83,1.14,4.59-1.74-1.73-21.13.04-24.04,3.13-5.15,17.45-3.83,22.42-3.68Z"/><path class="cls-6" d="m261.2,197.25c13.02-12.87,27.82-24.61,45.49-30.06,17.67-5.44,38.7-3.65,53.68,8.35-11.44-4-23.49,1.08-33.78,6.66-12.89,6.99-25.23,14.92-36.91,23.71-9.66,7.27-19.16,15.52-23.9,26.72,1.91-4.52-16.49-13.33-17.37-16.61-1.57-5.81,9.27-15.27,12.8-18.77Z"/><path class="cls-6" d="m559.8,123.49c-7.52,3.79-15.08,7.62-21.75,12.81-12.75,9.93-21.55,24.33-30.1,38.43,3.75-26.61,19.07-49.38,38.23-66.16,13.5-11.82,66.43-56.84,77.6-17.81-19.75,12.87-42.87,22.08-63.98,32.73Z"/><path class="cls-6" d="m558.26,63.09c16.86,1.7,33.73,3.4,50.59,5.1,5.48.55,11.89,1.72,14.29,6.69,2.06,4.26.11,9.28-1.83,13.59-22.61-3.63-45.36-7.27-68.26-6.78-22.89.49-46.17,5.36-65.55,17.59,6.59-15.6,8.65-29.37,26-34.72,14.37-4.43,30.04-2.96,44.76-1.47Z"/><path class="cls-6" d="m557.19,33.28c17.17,8.79,34.34,17.57,51.52,26.36,5.58,2.85,11.86,6.8,12.11,13.5.21,5.75-4.19,10.76-8.26,14.95-22.39-13.34-44.94-26.75-69.55-35.45-24.61-8.7-51.67-12.5-77.99-6.22,14.26-15.34,22.85-30.4,43.82-29.55,17.37.7,33.37,8.74,48.35,16.41Z"/><path class="cls-6" d="m630.07,80.27c16.81,7.26,33.24,16.58,44.9,30.93,11.66,14.35,17.88,34.52,12.35,52.9-.57-12.1-9.8-21.38-18.82-28.83-11.3-9.33-23.28-17.81-35.8-25.35-10.36-6.23-21.57-11.96-33.73-12.15,4.91.08,6.19-20.28,8.9-22.33,4.8-3.63,17.63,2.88,22.19,4.84Z"/><path class="cls-6" d="m637.11,60.41c21.68.66,43.87,3.37,63.03,12.51,19.16,9.13,34.92,25.67,36.98,44.81-5.98-11.07-20.22-16.36-33.44-20.03-16.55-4.59-33.46-8.14-50.57-10.62-14.14-2.05-28.99-3.31-42.45.93,5.43-1.71-2.17-21.14-.09-24.04,3.67-5.13,20.65-3.73,26.54-3.55Z"/><path class="cls-6" d="m604.95,46.89c19.57-12.17,40.72-22.91,62.75-26.56,22.04-3.64,45.18.88,57.62,15.58-11.44-5.7-26.99-1.75-40.73,2.95-17.21,5.89-34.15,12.85-50.67,20.82-13.66,6.59-27.51,14.25-37.07,25.66,3.86-4.6-13.66-16.31-13.43-19.94.4-6.42,16.22-15.21,21.52-18.51Z"/><path class="cls-5" d="m717.3,146.91c16.35,4.47,32.7,8.93,49.05,13.4,5.31,1.45,11.43,3.71,12.84,9.45,1.21,4.92-1.68,10.04-4.43,14.39-21.66-7.45-43.46-14.93-66.2-17.97-22.74-3.04-46.7-1.42-68.22,8.77,9.52-15.82,14.22-30.36,32.4-33.43,15.07-2.55,30.28,1.49,44.55,5.39Z"/><path class="cls-5" d="m738.81,126.88c11.4,9.16,22.81,18.32,34.21,27.48,3.71,2.98,7.72,6.93,6.41,12.5-1.12,4.77-5.67,8.43-9.78,11.45-14.45-13.5-29-27.08-46.22-36.98-17.22-9.91-37.44-16.04-59.34-13.75,14.54-11.11,24.6-22.61,40.74-19.6,13.37,2.49,24.03,10.91,33.98,18.9Z"/><path class="cls-5" d="m788.89,143.78c25.95-11.73,53.49-21.72,80.59-23.7,27.1-1.98,53.79,5.26,65.55,22.85-12.47-7.44-31.88-4.51-49.29-.56-21.8,4.94-43.52,11.11-64.94,18.44-17.71,6.06-35.88,13.3-49.71,25.13,5.58-4.77-12.88-19.5-11.84-23.53,1.84-7.13,22.59-15.44,29.63-18.62Z"/><path class="cls-5" d="m766.59,143.68c15.24-17.83,32.14-35.05,51.06-46.53,18.92-11.48,40.22-16.4,53.81-8.55-11.14-.53-24.25,8.75-35.62,17.98-14.24,11.56-28.06,23.95-41.33,37.03-10.97,10.82-21.93,22.62-28.43,36.01,2.62-5.4-14.95-8.76-15.37-11.95-.75-5.64,11.75-19.16,15.88-24Z"/><polygon class="cls-4" points="923.72 458 923.72 72 945.6 72 945.6 455.27 923.72 458"/><path class="cls-6" d="m952.08,58.03c22.87,6.05,45.82,14.24,64.12,27.92,18.3,13.68,31.33,33.74,29.24,52.91-3.88-12.28-17.81-21-31.02-27.87-16.55-8.61-33.71-16.29-51.31-22.97-14.56-5.53-30.04-10.46-45.27-9.69,6.15-.31,2.42-21.15,5.27-23.46,5.05-4.08,22.76,1.52,28.96,3.16Z"/><path class="cls-6" d="m959.13,47.08c28.25-7.8,57.77-13.83,85.35-12.59,27.58,1.25,53.03,10.88,61.55,28.3-11.13-8.21-31.17-7.72-49.39-6.08-22.81,2.06-45.78,5.25-68.65,9.54-18.92,3.55-38.51,8.12-54.61,17.38,6.5-3.74-9.29-19.29-7.49-22.86,3.18-6.31,25.57-11.58,33.23-13.69Z"/><path class="cls-6" d="m949.07,31.89c21.44-16.02,44.65-30.82,68.97-38.33,24.32-7.51,50-6.65,64.02,6.66-12.76-4.05-29.9,2.69-45.01,9.92-18.93,9.05-37.56,19.18-55.7,30.29-15,9.19-30.19,19.53-40.56,33.08,4.19-5.47-15.4-14.79-15.21-18.63.34-6.79,17.68-18.65,23.49-22.99Z"/><path class="cls-6" d="m873.92,36.56c19.21,1.7,38.43,3.39,57.64,5.09,6.24.55,13.56,1.72,16.43,6.68,2.46,4.25.4,9.27-1.68,13.58-25.8-3.62-51.76-7.26-77.77-6.77-26,.49-52.32,5.35-73.99,17.57,7.04-15.58,8.98-29.33,28.54-34.68,16.21-4.43,34.06-2.96,50.82-1.48Z"/><path class="cls-6" d="m870.71,66.99c20.14-4.33,40.29-8.66,60.43-12.98,6.55-1.41,14.39-2.5,18.92,1.88,3.89,3.76,3.41,9.78,2.69,15.04-27.48,4.37-55.14,8.79-81.49,17.62-26.35,8.84-51.61,22.44-69.73,42.43,2.11-18.9-.37-34.21,17.84-46.18,15.09-9.91,33.77-14.04,51.34-17.82Z"/><path class="cls-6" d="m862.49,7.92c-8.71-6.64-17.48-13.31-27.13-18.43-18.46-9.79-39.15-13.4-59.39-16.85,30.42-7.02,64.03.2,93.72,14.14,20.92,9.82,101.55,48.9,67.38,77.43-25.94-16.22-50.13-37.66-74.58-56.29Z"/><polygon class="cls-4" points="1060.34 467 1060.34 125 1082.22 125 1082.22 464.58 1060.34 467"/><path class="cls-5" d="m1080.63,94.27c25.11-14.73,52.01-27.9,79.27-32.97,27.26-5.07,55.04-.84,68.73,15.49-13.39-6.05-32.76-.9-50,5.04-21.59,7.44-42.98,16.11-63.94,25.91-17.34,8.1-35.01,17.44-47.84,30.89,5.18-5.43-15.02-18.12-14.37-22.28,1.15-7.37,21.33-18.08,28.14-22.07Z"/><path class="cls-5" d="m1077.63,114.65c25.78-.04,52.23,2.28,75.34,12.13,23.11,9.85,42.45,28.38,45.61,50.42-7.53-12.57-24.64-18.17-40.48-21.91-19.83-4.7-40.05-8.18-60.46-10.41-16.87-1.84-34.56-2.75-50.38,2.64,6.38-2.17-3.38-24.35-1.02-27.78,4.17-6.06,24.39-5.07,31.38-5.08Z"/><path class="cls-5" d="m1065.06,90.87c13.02-25.71,28.21-51.17,47.52-70.33,19.31-19.16,43.45-31.16,62.1-25.66-13.53,2.56-26.53,17.42-37.44,31.74-13.67,17.92-26.6,36.71-38.66,56.18-9.97,16.1-19.63,33.37-23.47,51.25,1.55-7.22-20.55-6.2-22.01-9.9-2.58-6.54,8.43-26.3,11.96-33.28Z"/><path class="cls-5" d="m1032.87,129.2c15.75-6.27,31.5-12.53,47.25-18.8,5.12-2.04,11.43-3.73,16.59,1.56,4.42,4.54,5.83,12.09,6.81,18.71-21.95,6.63-44.04,13.32-63.69,25.49-19.65,12.17-36.93,30.26-46.26,56.03-3.9-23.73-10.61-42.78,1.2-58.52,9.79-13.04,24.36-19,38.1-24.46Z"/><path class="cls-5" d="m1023.37,97.59c19.78,6.47,39.55,12.94,59.33,19.41,6.43,2.1,13.81,5.18,15.41,11.68,1.37,5.57-2.25,11-5.68,15.58-26.17-10.27-52.51-20.59-80.07-26.07-27.57-5.47-56.72-5.88-83.08,3.45,11.9-16.7,17.9-32.42,40.07-34.15,18.37-1.44,36.77,4.45,54.02,10.1Z"/><path class="cls-5" d="m1043.31,54.5c12.8,12.85,25.6,25.69,38.41,38.54,4.16,4.17,8.46,9.68,5.22,17.19-2.78,6.44-9.85,11.23-16.15,15.18-15.71-18.85-31.54-37.8-51.92-51.87-20.38-14.07-45.78-23.13-75.69-20.83,22.43-14.54,38.97-29.77,59.75-25.1,17.22,3.88,29.22,15.69,40.39,26.89Z"/><polygon class="cls-4" points="1223.09 480 1223.09 213.41 1244.97 213.41 1244.97 478.11 1223.09 480"/><path class="cls-6" d="m1256.43,196.13c16.81,7.26,33.24,16.58,44.9,30.93,11.66,14.35,17.88,34.52,12.35,52.9-.57-12.1-9.8-21.38-18.82-28.83-11.3-9.33-23.28-17.81-35.8-25.35-10.36-6.23-21.57-11.96-33.73-12.15,4.91.08,6.19-20.28,8.9-22.33,4.8-3.63,17.63,2.88,22.19,4.84Z"/><path class="cls-6" d="m1241.24,180.3c20.45-1.52,41.56-1.41,60.4,4.21,18.84,5.62,35.14,17.61,38.79,33-6.62-8.45-20.49-11.41-33.24-13.15-15.98-2.17-32.2-3.46-48.5-3.85-13.48-.33-27.56.06-39.83,4.78,4.95-1.91-3.94-17.02-2.24-19.58,2.99-4.53,19.09-5,24.64-5.41Z"/><path class="cls-6" d="m1228.81,175.32c17.42-11.77,36.43-22.16,56.82-25.63,20.39-3.47,42.43,1.02,55.22,15.38-11.16-5.59-25.44-1.8-37.97,2.73-15.68,5.67-31.04,12.39-45.92,20.09-12.3,6.37-24.71,13.77-32.8,24.85,3.27-4.47-14.05-15.93-14.12-19.46-.11-6.25,14.05-14.75,18.77-17.94Z"/><path class="cls-6" d="m1191.83,236.64c-7.1,3.58-14.24,7.19-20.43,12.31-11.83,9.78-19.56,24.52-27.07,38.97,2.11-27.97,15.69-51.21,33.37-67.87,12.45-11.74,61.36-56.36,74.5-14.37-18.48,12.49-40.44,20.9-60.37,30.96Z"/><path class="cls-6" d="m1195.21,178.21c16.64,3.21,33.29,6.42,49.93,9.62,5.41,1.04,11.66,2.89,13.4,9.02,1.49,5.25-1.12,11.15-3.64,16.2-22.13-5.92-44.41-11.87-67.38-12.86-22.97-.99-46.91,3.24-67.92,16.59,8.67-18.28,12.57-34.66,30.64-39.89,14.97-4.33,30.45-1.47,44.97,1.32Z"/><path class="cls-6" d="m1184.46,163.26c-5.33-5.9-10.7-11.83-17.27-16.45-12.56-8.83-28.82-12.39-44.74-15.81,27.54-5.36,53.54,1.6,74.28,14.24,14.61,8.91,70.57,44.29,33.55,68.06-16.93-14.52-30.85-33.48-45.81-50.04Z"/><polygon class="cls-4" points="1375.9 499 1375.9 115 1397.78 115 1397.78 496.28 1375.9 499"/><path class="cls-5" d="m1336.98,111.52c18.58-2.52,37.16-5.04,55.73-7.56,6.04-.82,13.22-1.29,17,2.76,3.24,3.47,2.36,8.63,1.31,13.13-25.23,2.11-50.63,4.26-75.17,10.29-24.55,6.03-48.46,16.24-66.38,32.38,3.34-16.17,2.24-29.52,19.64-38.74,14.42-7.64,31.65-10.08,47.86-12.27Z"/><path class="cls-5" d="m1314.32,76.6c20.18,5.55,40.36,11.11,60.54,16.66,6.56,1.8,14.14,4.48,16.23,10.35,1.79,5.04-1.4,10.01-4.46,14.23-26.83-8.9-53.84-17.85-81.7-22.37-27.86-4.53-56.91-4.43-82.44,4.46,10.57-15.34,15.35-29.7,37.28-31.63,18.17-1.6,36.94,3.45,54.55,8.3Z"/><path class="cls-5" d="m1353.98,43.36c14.23,14.33,28.47,28.66,42.7,43,4.62,4.66,9.52,10.7,6.93,18.08-2.22,6.33-8.96,10.58-15.01,14.03-17.76-20.74-35.65-41.61-57.71-57.9-22.06-16.29-48.76-27.92-78.98-28.35,21.46-12.8,36.86-26.84,58.44-20.12,17.88,5.56,31.21,18.76,43.63,31.27Z"/><path class="cls-5" d="m1399.16,93.01c17.92,1.65,36.09,5.57,51.27,16.36,15.18,10.79,26.97,29.52,27.22,50.49-4.11-12.34-15.51-18.73-26.18-23.3-13.36-5.72-27.1-10.33-41.08-13.76-11.56-2.84-23.77-4.86-35.24-.81,4.63-1.63-.19-23.17,1.76-26.24,3.43-5.44,17.4-3.18,22.26-2.73Z"/><path class="cls-5" d="m1391.91,78.21c21.2-12.44,43.97-23.44,67.25-27.26s47.24.63,59.41,15.45c-11.65-5.7-28.16-1.62-42.81,3.22-18.36,6.06-36.5,13.21-54.26,21.38-14.68,6.75-29.63,14.59-40.31,26.2,4.31-4.69-13.35-16.44-12.9-20.12.8-6.5,17.87-15.5,23.62-18.87Z"/><path class="cls-5" d="m1383.89,67.65c10.2-22.36,22.41-44.5,38.83-61.2s37.77-27.21,55.26-22.52c-12.25,2.28-23.17,15.23-32.21,27.69-11.33,15.61-21.92,31.96-31.66,48.89-8.05,14-15.74,29.03-18.05,44.55.93-6.27-19.29-5.29-20.88-8.49-2.81-5.66,5.94-22.85,8.71-28.91Z"/><polygon class="cls-8" points="471 467 471 154 489 154 489 464.78 471 467"/><path class="cls-6" d="m447.25,206.19c-5.64,2.84-11.3,5.71-16.12,9.97-9.2,8.15-14.8,20.92-20.22,33.46.33-24.88,10.29-44.96,23.93-58.96,9.61-9.86,47.44-47.27,60.31-9.1-14.51,10.23-32.08,16.65-47.9,24.63Z"/><path class="cls-6" d="m431.01,148.46c16.86,1.7,33.73,3.4,50.59,5.1,5.48.55,11.89,1.72,14.29,6.69,2.06,4.26.11,9.29-1.83,13.6-22.61-3.63-45.36-7.28-68.26-6.78-22.89.49-46.18,5.36-65.55,17.61,6.59-15.61,8.65-29.39,26-34.74,14.37-4.44,30.04-2.96,44.76-1.48Z"/><path class="cls-6" d="m446.12,121.65c11.77,10.64,23.54,21.29,35.31,31.93,3.82,3.46,7.97,7.94,6.67,13.39-1.12,4.67-5.76,7.8-9.95,10.33-14.93-15.39-29.96-30.88-47.71-42.99-17.74-12.11-38.54-20.79-61-21.19,14.84-9.4,25.08-19.75,41.67-14.72,13.74,4.17,24.74,13.97,35.01,23.25Z"/><path class="cls-6" d="m488.26,154.43c16.81,7.26,33.24,16.58,44.9,30.93,11.66,14.35,17.88,34.52,12.35,52.9-.57-12.1-9.8-21.38-18.82-28.83-11.3-9.33-23.28-17.81-35.8-25.35-10.36-6.23-21.57-11.96-33.73-12.15,4.91.08,6.19-20.28,8.9-22.33,4.8-3.63,17.63,2.88,22.19,4.84Z"/><path class="cls-6" d="m488.4,143.23c21.68.66,43.87,3.37,63.03,12.51,19.16,9.13,34.92,25.67,36.98,44.81-5.98-11.07-20.22-16.36-33.44-20.03-16.55-4.59-33.46-8.14-50.57-10.62-14.14-2.05-28.99-3.31-42.45.93,5.43-1.71-2.17-21.14-.09-24.04,3.67-5.13,20.65-3.73,26.54-3.55Z"/><path class="cls-6" d="m472.79,128.97c19.57-12.17,40.72-22.91,62.75-26.56,22.04-3.64,45.18.88,57.62,15.58-11.44-5.7-26.99-1.75-40.73,2.95-17.21,5.89-34.15,12.85-50.67,20.82-13.66,6.59-27.51,14.25-37.07,25.66,3.86-4.6-13.66-16.31-13.43-19.94.4-6.42,16.22-15.21,21.52-18.51Z"/><path class="cls-5" d="m474.74,41c16.76-2.54,33.52-5.09,50.27-7.63,5.45-.83,11.96-1.19,15.63,3.92,3.15,4.38,2.65,10.71,1.95,16.22-22.84,1.85-45.82,3.72-67.8,10.41s-43.15,18.55-58.52,37.9c2.1-19.82.32-36.3,15.62-47.14,12.67-8.98,28.22-11.46,42.84-13.68Z"/><path class="cls-5" d="m501.66,9.35c14.25,9.19,28.49,18.37,42.74,27.56,4.63,2.98,9.78,6.98,9.4,12.88-.32,5.05-4.62,9.07-8.56,12.39-18.41-13.63-36.95-27.33-57.71-37.08-20.76-9.75-44.1-15.42-67.69-12.19,13.85-12.22,22.7-24.67,40.97-22.12,15.14,2.11,28.43,10.55,40.85,18.56Z"/><path class="cls-5" d="m548.67,39.87c23.77,5.63,47.76,13.07,67.4,25.1,19.64,12.03,34.35,29.38,33.56,45.65-4.82-10.54-19.66-18.25-33.62-24.37-17.49-7.67-35.54-14.56-53.97-20.62-15.24-5-31.39-9.52-46.88-9.18,6.25-.14.98-17.96,3.73-19.86,4.86-3.37,23.33,1.76,29.78,3.29Z"/><path class="cls-5" d="m543.1,19.52c23.34-16.31,48.35-31.53,73.72-39.77,25.37-8.24,51.24-8.49,64.03,3.73-12.48-3.36-30.5,3.84-46.54,11.43-20.08,9.5-39.97,20.03-59.46,31.48-16.12,9.47-32.55,20.06-44.45,33.53,4.8-5.44-14.03-13.59-13.44-17.29,1.05-6.55,19.81-18.68,26.14-23.11Z"/><path class="cls-5" d="m779.83,158.15c23.77,5.62,47.64,13.56,66.78,27.7,19.14,14.14,32.9,35.46,30.99,56.46-4.18-13.23-18.73-22.14-32.5-29.07-17.25-8.68-35.12-16.32-53.44-22.85-15.15-5.4-31.25-10.11-47.01-8.62,6.36-.6,2.23-23.18,5.15-25.82,5.17-4.67,23.59.68,30.04,2.2Z"/><path class="cls-6" d="m782.66,105.94c-7.1,3.58-14.24,7.19-20.43,12.31-11.83,9.78-19.56,24.52-27.07,38.97,2.11-27.97,15.69-51.21,33.37-67.87,12.45-11.74,61.36-56.36,74.5-14.37-18.48,12.49-40.44,20.9-60.37,30.96Z"/><path class="cls-6" d="m769.92,66.03c-7.64-2.2-15.33-4.41-23.34-4.87-15.33-.88-31.02,4.67-46.35,10.16,20.57-19.07,46.34-26.87,70.62-27.06,17.11-.13,83.32.43,64.39,40.15-22.04-3.42-43.86-12.19-65.31-18.37Z"/><path class="cls-6" d="m772.17,36.06c-4.22-6.74-8.48-13.52-14.14-19.2-10.83-10.88-26.22-17.22-41.31-23.35,28.05-.49,52.45,10.89,70.66,26.95,12.84,11.32,61.79,55.9,21.19,72.86-14.14-17.25-24.55-38.34-36.4-57.26Z"/><path class="cls-6" d="m826.26,57.43c16.81,7.26,33.24,16.58,44.9,30.93,11.66,14.35,17.88,34.52,12.35,52.9-.57-12.1-9.8-21.38-18.82-28.83-11.3-9.33-23.28-17.81-35.8-25.35-10.36-6.23-21.57-11.96-33.73-12.15,4.91.08,6.19-20.28,8.9-22.33,4.8-3.63,17.63,2.88,22.19,4.84Z"/><path class="cls-6" d="m795.17,43.42c12.51-13.37,26.83-25.69,44.27-31.82,17.44-6.13,38.53-5.17,53.96,6.23-11.58-3.54-23.43,2-33.49,7.98-12.6,7.49-24.63,15.9-35.95,25.14-9.37,7.64-18.54,16.26-22.83,27.64,1.73-4.59-17-12.67-18.01-15.92-1.8-5.75,8.66-15.63,12.05-19.25Z"/><path class="cls-6" d="m1150.26,54.43c16.81,7.26,33.24,16.58,44.9,30.93,11.66,14.35,17.88,34.52,12.35,52.9-.57-12.1-9.8-21.38-18.82-28.83-11.3-9.33-23.28-17.81-35.8-25.35-10.36-6.23-21.57-11.96-33.73-12.15,4.91.08,6.19-20.28,8.9-22.33,4.8-3.63,17.63,2.88,22.19,4.84Z"/><path class="cls-6" d="m1142.23,45.85c20.01-4.48,40.91-7.45,60.37-4.63,19.46,2.82,37.33,12.3,43.18,27-7.78-7.4-21.93-8.31-34.8-8.17-16.12.18-32.36,1.27-48.55,3.25-13.39,1.64-27.26,4.07-38.71,10.53,4.62-2.61-6.37-16.27-5.07-19.05,2.3-4.92,18.16-7.72,23.59-8.94Z"/><path class="cls-6" d="m1132.63,40.19c13.61-16.02,29.13-31.14,47.84-39.96,18.7-8.82,41.14-10.42,57.32-.03-12.26-2.38-24.99,5.1-35.84,12.83-13.58,9.68-26.57,20.28-38.83,31.69-10.14,9.44-20.09,19.91-24.91,32.75,1.95-5.18-17.82-11.57-18.83-14.95-1.79-5.99,9.56-17.98,13.26-22.33Z"/><path class="cls-6" d="m1102.66,99.94c-7.1,3.58-14.24,7.19-20.43,12.31-11.83,9.78-19.56,24.52-27.07,38.97,2.11-27.97,15.69-51.21,33.37-67.87,12.45-11.74,61.36-56.36,74.5-14.37-18.48,12.49-40.44,20.9-60.37,30.96Z"/><path class="cls-6" d="m1101.5,39.65c16.64,3.21,33.29,6.42,49.93,9.62,5.41,1.04,11.66,2.89,13.4,9.02,1.49,5.25-1.12,11.15-3.64,16.2-22.13-5.92-44.41-11.87-67.38-12.86-22.97-.99-46.91,3.24-67.92,16.59,8.67-18.28,12.57-34.66,30.64-39.89,14.97-4.33,30.45-1.47,44.97,1.32Z"/><path class="cls-6" d="m1096.69,28.89c-5.33-5.9-10.7-11.83-17.27-16.45-12.56-8.83-28.82-12.39-44.74-15.81,27.54-5.36,53.54,1.6,74.28,14.24,14.61,8.91,70.57,44.29,33.55,68.06-16.93-14.52-30.85-33.48-45.81-50.04Z"/><path class="cls-6" d="m205.65,48.69c16.81,7.26,33.24,16.58,44.9,30.93,11.66,14.35,17.88,34.52,12.35,52.9-.57-12.1-9.8-21.38-18.82-28.83-11.3-9.33-23.28-17.81-35.8-25.35-10.36-6.23-21.57-11.96-33.73-12.15,4.91.08,6.19-20.28,8.9-22.33,4.8-3.63,17.63,2.88,22.19,4.84Z"/><path class="cls-6" d="m202.72,35.83c21.71.66,43.92,3.38,63.11,12.51,19.19,9.13,34.96,25.68,37.02,44.81-5.99-11.07-20.25-16.36-33.48-20.03-16.57-4.59-33.5-8.14-50.63-10.62-14.16-2.05-29.03-3.31-42.5.93,5.44-1.71-2.17-21.14-.09-24.04,3.68-5.13,20.68-3.73,26.57-3.55Z"/><path class="cls-6" d="m177.09,38.43c13.02-12.87,27.82-24.61,45.49-30.06,17.67-5.44,38.7-3.65,53.68,8.35-11.44-4-23.49,1.08-33.78,6.66-12.89,6.99-25.23,14.92-36.91,23.71-9.66,7.27-19.16,15.52-23.9,26.72,1.91-4.52-16.49-13.33-17.37-16.61-1.57-5.81,9.27-15.27,12.8-18.77Z"/><path class="cls-6" d="m135.05,97.2c-7.1,3.58-14.24,7.19-20.43,12.31-11.83,9.78-19.56,24.52-27.07,38.97,2.11-27.97,15.69-51.21,33.37-67.87,12.45-11.74,61.36-56.36,74.5-14.37-18.48,12.49-40.44,20.9-60.37,30.96Z"/><path class="cls-6" d="m141.01,32.43c16.53,2.87,33.07,5.73,49.6,8.6,5.37.93,11.6,2.64,13.45,8.61,1.58,5.12-.88,10.93-3.27,15.91-22.02-5.44-44.19-10.89-66.93-11.49-22.75-.6-46.34,3.94-66.86,17.35,8.2-18.03,11.72-34.13,29.49-39.54,14.72-4.48,30.1-1.94,44.52.56Z"/><path class="cls-6" d="m138.8,24.3c-6.33-4.82-12.69-9.66-20-12.99-13.97-6.37-30.61-6.88-46.89-7.31,26.08-10.33,52.92-8.28,75.63.34,16,6.07,77.51,30.55,45.49,60.73-19.31-11.16-36.48-27.24-54.24-40.76Z"/><path class="cls-1" d="m0,435.81c.6-14.46,8.82-33.77,22.99-36.56,5.01-.99,5.98,1.03,22.99,4.18,20.28,3.75,23.38,1.71,30.65,5.22,10.77,5.21,14.62,14.85,17.88,22.98,3.73,9.31,9.55,23.86,1.28,36.56-10.68,16.39-41.32,24.26-65.13,15.67C-.87,472.47-.15,439.54,0,435.81Z"/><path class="cls-9" d="m619.3,423.62c.37-9.67,5.44-22.59,14.18-24.45,3.09-.66,3.69.69,14.18,2.79,12.51,2.51,14.43,1.14,18.91,3.49,6.64,3.48,9.02,9.93,11.03,15.37,2.3,6.23,5.89,15.96.79,24.45-6.59,10.97-25.49,16.23-40.18,10.48-19.45-7.61-19.01-29.64-18.91-32.14Z"/></svg>