<?xml version="1.0" encoding="UTF-8"?><svg id="Layer_3" xmlns="http://www.w3.org/2000/svg" width="314.13" height="436.39" xmlns:xlink="http://www.w3.org/1999/xlink" viewBox="0 0 314.13 436.39"><defs><style>.cls-1{fill:url(#linear-gradient);}.cls-2{fill:#277f00;}.cls-3{fill:#5f3300;}</style><linearGradient id="linear-gradient" x1="0" y1="242.77" x2="279.52" y2="242.77" gradientUnits="userSpaceOnUse"><stop offset=".36" stop-color="#e27b2f"/><stop offset="1" stop-color="#ff0" stop-opacity=".97"/><stop offset="1" stop-color="#fce50b" stop-opacity=".76"/><stop offset="1" stop-color="#f8b123" stop-opacity=".36"/><stop offset="1" stop-color="#f59032" stop-opacity=".1"/><stop offset="1" stop-color="#f48438" stop-opacity="0"/></linearGradient></defs><path class="cls-1" d="m41.49,120.42c14.65-43.07,59.91-73.63,105.34-71.13,17.88.99,35.21,6.52,51.82,13.22,16.82,6.79,33.48,15.08,46.27,27.95,19.06,19.19,27.51,46.52,31.52,73.27,7.77,51.84.98,106.15-21.68,153.41-22.66,47.27-61.45,87.08-109.22,108.67-46.05,20.81-160.2,16.19-143.98-62.77,3.72-18.12,19.78-30.01,30.54-43.88,15.87-20.46,20.06-39.22,16.36-64.82-6.4-44.22-22.04-89.65-6.97-133.93Z"/><path class="cls-3" d="m117.73,52.98l.04-52.98c8.18,1.09,16.35,2.17,24.53,3.26-3.21,15.11-5.18,30.48-5.9,45.9"/><path class="cls-2" d="m233.4,25.18c42.49,12.99,75.5,52.65,80.57,96.79.31,2.72.35,5.89-1.73,7.67-1.47,1.26-3.57,1.39-5.51,1.46-27.43,1.04-57.31,1.36-79.21-15.2-13.51-10.22-22-25.51-31.93-39.23-6.42-8.87-57.28-52.2-55.37-57.17,4.58-11.92,81.63,2.16,93.17,5.69Z"/></svg>