<?xml version="1.0" encoding="UTF-8"?><svg id="Layer_1" xmlns="http://www.w3.org/2000/svg" width="2501" height="1139" xmlns:xlink="http://www.w3.org/1999/xlink" viewBox="0 0 2501 1139"><defs><style>.cls-1{fill:none;}.cls-2{fill:url(#linear-gradient);}.cls-3{clip-path:url(#clippath);}.cls-4{fill:#008ddf;}.cls-5{fill:#ff4b2e;}.cls-6{fill:#ffe9a1;}.cls-7{fill:#744100;}.cls-8{fill:#109400;}.cls-9{fill:#0a7f00;}.cls-10{fill:#88de88;}.cls-11{fill:#8a4600;}.cls-12{fill:url(#linear-gradient-2);}</style><clipPath id="clippath"><rect class="cls-1" x="345.5" y="45.5" width="1920" height="1080"/></clipPath><linearGradient id="linear-gradient" x1="294.86" y1="485.49" x2="440.19" y2="485.49" gradientTransform="translate(0 1173) scale(1 -1)" gradientUnits="userSpaceOnUse"><stop offset="0" stop-color="#fff"/><stop offset="1" stop-color="#000"/></linearGradient><linearGradient id="linear-gradient-2" x1="1194.56" y1="506.75" x2="1284.21" y2="506.75" gradientTransform="translate(0 1173) scale(1 -1)" gradientUnits="userSpaceOnUse"><stop offset="0" stop-color="#fff"/><stop offset=".8" stop-color="#090909"/><stop offset="1" stop-color="#000"/></linearGradient></defs><g class="cls-3"><rect class="cls-10" x="294.91" y="43.7" width="2096.31" height="753.94"/><polygon class="cls-11" points="552.04 740.98 552.04 135.22 578.19 135.22 578.19 736.7 552.04 740.98"/><polygon class="cls-11" points="1932.15 740.98 1932.15 122.14 1958.3 122.14 1958.3 736.59 1932.15 740.98"/><polygon class="cls-11" points="1057.6 706.12 1057.6 120.69 1083.75 120.69 1083.75 701.98 1057.6 706.12"/><polygon class="cls-7" points="1452.98 697.4 1452.98 136.09 1484.76 136.09 1484.76 693.42 1452.98 697.4"/><path class="cls-4" d="m294.91,906.91l135.13-42.03,136.62,11.8c75.73,42.74-34.15,73.69,75.73,42.74,109.89-30.96-14.85-50.12,109.89-30.96,124.73,19.16-10.4,53.05,124.73,19.16,135.13-33.89,19.31-69.28,135.13-33.91,115.83,35.37,136.62-13.26,115.83,35.37s129.19-28.01,129.19-28.01c109.89,19.16-17.83,57.48,109.89,19.16,127.71-38.32,25.25-67.8,127.71-38.32s-2.96,53.05,102.46,29.47c105.43-23.58,209.18-.46,209.18-.46,69.99-23.11,175.42,16.68,69.99-23.11-105.43-39.79,193.04,63.38,105.43,39.79-87.62-23.58,80.19-32.42,80.19-32.42l99.92,15.75,136.19-21.64,85.52,21.64,54.07-19.71v267.79H294.91"/><path class="cls-6" d="m0,782.54l444.71-66.2,583.9-27.66h610.05c8.34.42,48.33,2.4,56.69,2.8,156.84,7.76,313.68,15.38,470.51,22.88,94.49,15.63,188.97,31.28,283.46,46.91v144.29l-61.8,25.2h-253.43l-188.06-12.35-46.62,16.21-171.73-3.86-159.82-18.01-138.04,30.2-158.76-14.25-116.35,34.2-179.76,10.5-265.21-36.94-120.45,31.97-133.3-39.73-25.77,25.7-33.05,12.77-57.19,6.25-139.68-73.94c-15.28-.67-30.57-1.34-45.85-2"/><polygon class="cls-7" points="422.92 761.32 422.92 241.26 457.61 241.26 457.61 757.64 422.92 761.32"/><polygon class="cls-7" points="876 722.1 876 280.48 902.15 280.48 902.15 718.97 876 722.1"/><polygon class="cls-7" points="1397.5 706.12 1397.5 297.92 1429.28 297.92 1429.28 703.23 1397.5 706.12"/><polygon class="cls-7" points="1165.1 697.4 1165.1 174.44 1196.84 174.44 1196.84 693.7 1165.1 697.4"/><polygon class="cls-7" points="652.24 732.27 652.24 377.81 684.02 377.81 684.02 729.75 652.24 732.27"/><path class="cls-8" d="m926.92,260.8c37.45-.06,75.88,3.31,109.45,17.62,33.57,14.31,61.67,41.23,66.26,73.24-10.94-18.26-35.8-26.4-58.81-31.83-28.81-6.83-58.18-11.88-87.83-15.12-24.51-2.67-50.21-3.99-73.19,3.84,9.27-3.15-4.91-35.37-1.48-40.36,6.06-8.8,35.43-7.37,45.59-7.38h.01Z"/><path class="cls-8" d="m916.48,240.68c36.48-21.4,75.56-40.53,115.16-47.89s79.96-1.22,99.85,22.5c-19.45-8.79-47.59-1.31-72.64,7.32-31.36,10.81-62.44,23.4-92.89,37.64-25.19,11.77-50.86,25.33-69.5,44.87,7.53-7.89-21.82-26.32-20.88-32.37,1.67-10.71,30.99-26.26,40.88-32.06h.01Z"/><path class="cls-8" d="m882.38,250.5c21.99-35.63,46.81-70.79,75.98-96.88,29.16-26.09,63.43-41.82,87.21-33.16-18.46,2.95-38.44,23.29-55.55,42.94-21.44,24.61-42.04,50.48-61.61,77.34-16.18,22.21-32.16,46.11-40.52,71.14,3.37-10.11-26.19-9.75-27.46-15.04-2.24-9.34,15.99-36.68,21.95-46.35h0Z"/><path class="cls-8" d="m456.76,210.76c30.78-18.07,64.3-33.34,99.93-35.79,35.64-2.46,73.86,9.83,95.58,38.29-19.23-12.23-44.25-8.06-66.23-2.21-27.53,7.34-54.54,16.62-80.74,27.79-21.67,9.22-43.55,20.34-58.07,38.89,5.85-7.5-23.87-31.54-23.84-37.96.04-11.36,25.03-24.11,33.37-29.01h0Z"/><path class="cls-8" d="m822.51,286.92c22.88-9.11,45.76-18.2,68.64-27.31,7.44-2.96,16.6-5.42,24.1,2.27,6.42,6.6,8.47,17.56,9.89,27.18-31.89,9.63-63.98,19.35-92.53,37.03-28.55,17.68-53.65,43.96-67.2,81.39-5.67-34.47-15.41-62.15,1.74-85.01,14.22-18.94,35.39-27.6,55.35-35.53h0Z"/><path class="cls-8" d="m807.51,238.68c24.45,2.91,48.9,5.81,73.36,8.7,7.95.94,17.17,3.14,20.11,13.48,2.51,8.86-.92,19.48-4.26,28.6-32.63-6.73-65.46-13.48-98.99-11.53s-68.12,13.07-97.87,39.51c11.45-33.02,16.07-61.99,42.06-73.91,21.53-9.88,44.27-7.39,65.59-4.87h0Z"/><path class="cls-8" d="m1333.5,296.94c24.04-5.32,48.09-10.62,72.13-15.94,7.82-1.73,17.2-2.95,22.9,3.47,4.88,5.51,4.63,14.03,4.04,21.5-32.89,5.07-65.98,10.2-97.28,21.66-31.29,11.46-61,29.75-81.79,57.41,1.54-26.77-2.25-48.65,19.06-64.89,17.65-13.47,39.95-18.55,60.93-23.18v-.03Z"/><path class="cls-8" d="m864.83,189.94c20.38,13.81,40.76,27.63,61.15,41.44,6.62,4.49,13.66,10.91,10.1,23.37-3.05,10.69-12.52,20.7-21.02,29.13-25.48-21.53-51.15-43.17-82.65-55.71-31.5-12.54-69.48-15.57-112.28.1,30.17-30.77,51.76-60.14,82.43-61.71,25.41-1.31,44.48,11.3,62.28,23.36h0Z"/><path class="cls-8" d="m454.97,237.27c26.03,2.4,52.37,8.63,74.21,26.64,21.83,18.01,38.56,49.61,38.41,85.29-5.69-20.9-22.13-31.51-37.54-39.03-19.31-9.43-39.2-16.94-59.45-22.46-16.75-4.56-34.47-7.7-51.25-.55,6.77-2.89.28-39.43,3.17-44.7,5.13-9.34,25.38-5.83,32.44-5.17h.01Z"/><path class="cls-8" d="m360.18,227.55c24.45,2.91,48.9,5.81,73.36,8.7,7.95.94,17.17,3.14,20.11,13.48,2.51,8.86-.92,19.48-4.26,28.6-32.63-6.73-65.46-13.48-98.99-11.53-33.53,1.95-68.12,13.07-97.87,39.51,11.45-33.02,16.07-61.99,42.06-73.91,21.53-9.88,44.27-7.39,65.59-4.87h0Z"/><path class="cls-8" d="m380.43,169.38c21.36,12.28,42.7,24.54,64.05,36.81,6.94,3.98,14.56,9.63,13.21,20.28-1.16,9.12-8.48,17.55-15.15,24.64-27.37-19-54.91-38.09-86.51-49.48-31.6-11.37-67.79-14.72-105.53-2.08,23.49-25.86,39.12-50.7,67.7-51.45,23.68-.62,43.61,10.58,62.24,21.28Z"/><path class="cls-8" d="m377.15,264.93c23.74-6.52,47.49-13.06,71.23-19.58,7.71-2.12,17.1-3.56,23.69,4.9,5.67,7.25,6.49,18.39,6.84,28.09-32.76,6.06-65.71,12.19-96.03,26.63-30.32,14.43-58.17,37.78-75.75,73.49-1.84-34.89-8.48-63.47,11.08-84.3,16.21-17.26,38.21-23.53,58.92-29.23Z"/><path class="cls-8" d="m434.89,190.71c23.8-26.61,50.26-52.08,80.25-68.17,29.98-16.1,64.12-21.47,86.38-7.42-17.98-2.12-38.7,11.14-56.63,24.52-22.44,16.76-44.18,34.88-65,54.17-17.22,15.95-34.36,33.48-44.24,54.02,4-8.29-24.49-15.66-25.32-20.77-1.47-9.06,18.09-29.14,24.54-36.36h.01Z"/><path class="cls-9" d="m608.26,427.1c-10.31,5.2-20.69,10.44-29.68,17.88-17.19,14.21-28.42,35.62-39.33,56.61,3.07-40.63,22.79-74.39,48.48-98.59,18.09-17.05,89.14-81.87,108.23-20.87-26.85,18.14-58.75,30.36-87.7,44.97h0Z"/><path class="cls-9" d="m604.97,330.35c23.61,7.03,47.2,14.05,70.81,21.08,7.67,2.28,16.45,5.85,18.07,14.96,1.39,7.82-3.23,15.95-7.58,22.89-31.15-11.74-62.5-23.53-95.56-28.27-33.06-4.74-68.28-2.05-100.57,14.24,15.15-25.17,23.14-48.3,50.02-53.26,22.27-4.11,44.24,2.24,64.82,8.37h0Z"/><path class="cls-9" d="m604.68,322.64c-9.2-7-18.44-14.03-29.05-18.87-20.29-9.25-44.47-9.99-68.12-10.62,37.89-15.01,76.88-12.03,109.87.49,23.24,8.82,112.6,44.38,66.09,88.22-28.05-16.21-53-39.57-78.8-59.21h.01Z"/><path class="cls-9" d="m689.59,365.65c24.42,10.55,48.29,24.09,65.23,44.93,16.94,20.85,25.98,50.15,17.94,76.85-.83-17.58-14.24-31.06-27.34-41.88-16.42-13.55-33.82-25.87-52.01-36.83-15.05-9.05-31.34-17.37-49-17.65,7.13.12,8.99-29.46,12.93-32.44,6.97-5.27,25.61,4.18,32.24,7.03h.01Z"/><path class="cls-9" d="m692.33,345.35c26.59.8,53.77,4.59,77.2,17.71,23.43,13.12,42.64,37.04,45.02,64.8-7.26-16.04-24.68-23.62-40.87-28.85-20.27-6.55-40.98-11.58-61.93-15.05-17.33-2.88-35.53-4.59-52.05,1.66,6.67-2.53-2.51-30.7.06-34.92,4.55-7.48,25.35-5.56,32.57-5.35h0Z"/><path class="cls-9" d="m674.36,330.24c18.91-18.7,40.42-35.75,66.09-43.67,25.67-7.9,56.22-5.3,77.98,12.13-16.62-5.81-34.12,1.57-49.07,9.67-18.73,10.15-36.65,21.67-53.62,34.44-14.03,10.56-27.83,22.55-34.72,38.82,2.77-6.57-23.96-19.36-25.23-24.13-2.28-8.44,13.47-22.18,18.6-27.27h-.01Z"/><path class="cls-9" d="m1108.15,223.09c-10.92,5.51-21.91,11.07-31.6,18.61-18.52,14.43-31.31,35.34-43.73,55.83,5.45-38.66,27.7-71.73,55.54-96.11,19.61-17.17,96.51-82.57,112.73-25.87-28.69,18.7-62.28,32.08-92.95,47.55Z"/><path class="cls-9" d="m1105.92,135.35c24.49,2.47,49,4.94,73.49,7.41,7.96.8,17.27,2.5,20.76,9.72,2.99,6.19.16,13.48-2.66,19.74-32.85-5.27-65.9-10.56-99.16-9.85-33.25.71-67.07,7.79-95.23,25.55,9.57-22.66,12.57-42.67,37.77-50.44,20.88-6.44,43.64-4.3,65.02-2.14Z"/><path class="cls-9" d="m1104.36,92.04c24.94,12.77,49.89,25.52,74.85,38.29,8.11,4.14,17.23,9.88,17.59,19.61.31,8.35-6.09,15.63-12,21.72-32.53-19.38-65.29-38.86-101.04-51.5-35.75-12.64-75.06-18.16-113.3-9.04,20.72-22.28,33.2-44.16,63.66-42.93,25.23,1.02,48.48,12.7,70.24,23.84Z"/><path class="cls-9" d="m1210.24,160.3c24.42,10.55,48.29,24.09,65.23,44.93,16.94,20.85,25.98,50.15,17.94,76.85-.83-17.58-14.24-31.06-27.34-41.88-16.42-13.55-33.82-25.87-52.01-36.83-15.05-9.05-31.34-17.37-49-17.65,7.13.12,8.99-29.46,12.93-32.44,6.97-5.27,25.61,4.18,32.24,7.03h.01Z"/><path class="cls-9" d="m1220.46,131.45c31.5.96,63.73,4.9,91.57,18.17,27.83,13.26,50.73,37.29,53.72,65.09-8.69-16.08-29.37-23.77-48.58-29.1-24.04-6.67-48.61-11.82-73.47-15.43-20.54-2.98-42.12-4.81-61.67,1.35,7.89-2.48-3.15-30.71-.13-34.92,5.33-7.45,30-5.42,38.56-5.16h0Z"/><path class="cls-9" d="m1173.74,111.81c28.43-17.68,59.16-33.28,91.16-38.58,32.02-5.29,65.63,1.28,83.71,22.63-16.62-8.28-39.21-2.54-59.17,4.29-25,8.56-49.61,18.67-73.61,30.24-19.84,9.57-39.96,20.7-53.85,37.28,5.61-6.68-19.84-23.69-19.51-28.97.58-9.33,23.56-22.1,31.26-26.89h.01Z"/><path class="cls-8" d="m1336.96,257.11c23.75,6.49,47.5,12.97,71.26,19.47,7.71,2.11,16.6,5.39,18.65,13.73,1.76,7.15-2.44,14.58-6.44,20.9-31.47-10.82-63.14-21.69-96.17-26.1-33.04-4.42-67.84-2.06-99.11,12.74,13.83-22.98,20.66-44.1,47.07-48.56,21.89-3.7,43.99,2.16,64.72,7.83h.01Z"/><path class="cls-8" d="m1368.21,228.01c16.56,13.31,33.14,26.61,49.7,39.92,5.39,4.33,11.22,10.07,9.31,18.16-1.63,6.93-8.24,12.25-14.21,16.63-20.99-19.61-42.13-39.34-67.15-53.72-25.02-14.4-54.39-23.3-86.21-19.97,21.12-16.14,35.74-32.84,59.18-28.47,19.42,3.62,34.91,15.85,49.36,27.46h0Z"/><path class="cls-8" d="m1440.96,252.56c37.7-17.04,77.71-31.55,117.08-34.43,39.37-2.88,78.14,7.64,95.23,33.19-18.12-10.81-46.31-6.55-71.61-.81-31.67,7.18-63.22,16.14-94.34,26.79-25.73,8.8-52.12,19.32-72.22,36.51,8.11-6.93-18.71-28.33-17.2-34.18,2.67-10.36,32.82-22.43,43.04-27.05h.01Z"/><path class="cls-8" d="m1408.57,252.42c22.14-25.9,46.69-50.92,74.18-67.59s58.43-23.82,78.17-12.42c-16.18-.77-35.23,12.71-51.75,26.12-20.69,16.79-40.76,34.79-60.04,53.79-15.94,15.72-31.86,32.86-41.3,52.31,3.81-7.84-21.72-12.73-22.33-17.36-1.09-8.19,17.07-27.83,23.07-34.86h0Z"/><polygon class="cls-7" points="1636.84 709.02 1636.84 148.29 1668.62 148.29 1668.62 705.06 1636.84 709.02"/><path class="cls-9" d="m1678.04,128c33.22,8.79,66.56,20.69,93.15,40.56s45.51,49.01,42.48,76.86c-5.64-17.84-25.87-30.51-45.06-40.49-24.04-12.51-48.97-23.66-74.54-33.37-21.15-8.03-43.64-15.19-65.77-14.08,8.93-.45,3.52-30.72,7.66-34.08,7.34-5.93,33.06,2.21,42.07,4.59h.01Z"/><path class="cls-9" d="m1688.28,112.09c41.04-11.33,83.93-20.09,123.99-18.29,40.07,1.82,77.04,15.81,89.42,41.11-16.17-11.93-45.28-11.21-71.75-8.83-33.14,2.99-66.51,7.63-99.73,13.86-27.49,5.16-55.95,11.8-79.33,25.25,9.44-5.43-13.5-28.02-10.88-33.21,4.62-9.17,37.15-16.82,48.27-19.89h.01Z"/><path class="cls-9" d="m1673.66,90.02c31.15-23.27,64.87-44.77,100.2-55.68,35.33-10.91,72.64-9.66,93,9.67-18.54-5.88-43.44,3.91-65.39,14.41-27.5,13.15-54.57,27.86-80.92,44-21.79,13.35-43.86,28.37-58.92,48.05,6.09-7.95-22.37-21.49-22.1-27.06.49-9.86,25.68-27.09,34.12-33.4Z"/><path class="cls-9" d="m1564.49,96.81c27.91,2.47,55.83,4.92,83.74,7.39,9.07.8,19.7,2.5,23.87,9.7,3.57,6.17.58,13.47-2.44,19.73-37.48-5.26-75.19-10.55-112.98-9.83-37.77.71-76.01,7.77-107.49,25.52,10.23-22.63,13.05-42.61,41.46-50.38,23.55-6.44,49.48-4.3,73.83-2.15h.01Z"/><path class="cls-9" d="m1559.83,141.01c29.26-6.29,58.53-12.58,87.79-18.86,9.52-2.05,20.91-3.63,27.49,2.73,5.65,5.46,4.95,14.21,3.91,21.85-39.92,6.35-80.1,12.77-118.38,25.6-38.28,12.84-74.98,32.6-101.3,61.64,3.07-27.46-.54-49.7,25.92-67.08,21.92-14.4,49.06-20.4,74.58-25.89h0Z"/><path class="cls-9" d="m1547.88,55.2c-12.65-9.65-25.39-19.34-39.41-26.77-26.82-14.22-56.87-19.47-86.28-24.48,44.19-10.2,93.02.29,136.15,20.54,30.39,14.27,147.53,71.04,97.89,112.48-37.68-23.56-72.83-54.71-108.35-81.77h0Z"/><polygon class="cls-7" points="1835.31 722.1 1835.31 225.28 1867.1 225.28 1867.1 718.58 1835.31 722.1"/><path class="cls-8" d="m1864.79,180.64c36.48-21.4,75.56-40.53,115.16-47.89,39.6-7.37,79.96-1.22,99.85,22.5-19.45-8.79-47.59-1.31-72.64,7.32-31.36,10.81-62.44,23.4-92.89,37.64-25.19,11.77-50.86,25.33-69.5,44.87,7.53-7.89-21.82-26.32-20.88-32.37,1.67-10.71,30.99-26.26,40.88-32.06h.01Z"/><path class="cls-8" d="m1860.43,210.25c37.45-.06,75.88,3.31,109.45,17.62,33.57,14.31,61.67,41.23,66.26,73.24-10.94-18.26-35.8-26.4-58.81-31.83-28.81-6.83-58.18-11.88-87.83-15.12-24.51-2.67-50.21-3.99-73.19,3.84,9.27-3.15-4.91-35.37-1.48-40.36,6.06-8.8,35.43-7.37,45.59-7.38h.01Z"/><path class="cls-8" d="m1842.17,175.7c18.91-37.35,40.98-74.33,69.03-102.17,28.05-27.83,63.12-45.27,90.22-37.28-19.66,3.72-38.54,25.31-54.39,46.11-19.86,26.03-38.64,53.33-56.16,81.61-14.48,23.39-28.52,48.48-34.1,74.45,2.25-10.49-29.85-9.01-31.97-14.38-3.75-9.5,12.25-38.21,17.37-48.35Z"/><path class="cls-8" d="m1795.4,231.38c22.88-9.11,45.76-18.2,68.64-27.31,7.44-2.96,16.6-5.42,24.1,2.27,6.42,6.6,8.47,17.56,9.89,27.18-31.89,9.63-63.98,19.35-92.53,37.03-28.55,17.68-53.65,43.96-67.2,81.39-5.67-34.47-15.41-62.15,1.74-85.01,14.22-18.94,35.39-27.6,55.35-35.53h0Z"/><path class="cls-8" d="m1781.6,185.46c28.74,9.4,57.46,18.8,86.19,28.2,9.34,3.05,20.06,7.52,22.39,16.97,1.99,8.09-3.27,15.98-8.25,22.63-38.02-14.92-76.28-29.91-116.32-37.87-40.05-7.95-82.4-8.54-120.69,5.01,17.29-24.26,26-47.1,58.21-49.61,26.69-2.09,53.42,6.46,78.48,14.67h0Z"/><path class="cls-8" d="m1810.57,122.87c18.6,18.67,37.19,37.32,55.8,55.99,6.04,6.06,12.29,14.06,7.58,24.97-4.04,9.36-14.31,16.31-23.46,22.05-22.82-27.38-45.82-54.91-75.43-75.35-29.61-20.44-66.51-33.6-109.96-30.26,32.59-21.12,56.61-43.25,86.8-36.46,25.02,5.64,42.45,22.79,58.68,39.06h-.01Z"/><polygon class="cls-7" points="2071.74 740.98 2071.74 353.71 2103.53 353.71 2103.53 738.24 2071.74 740.98"/><path class="cls-9" d="m2120.18,328.61c24.42,10.55,48.29,24.09,65.23,44.93,16.94,20.85,25.98,50.15,17.94,76.85-.83-17.58-14.24-31.06-27.34-41.88-16.42-13.55-33.82-25.87-52.01-36.83-15.05-9.05-31.34-17.37-49-17.65,7.13.12,8.99-29.46,12.93-32.44,6.97-5.27,25.61,4.18,32.24,7.03h.01Z"/><path class="cls-9" d="m2098.11,305.62c29.71-2.21,60.38-2.05,87.75,6.12,27.37,8.16,51.05,25.58,56.35,47.94-9.62-12.28-29.77-16.58-48.29-19.1-23.21-3.15-46.78-5.03-70.46-5.59-19.58-.48-40.04.09-57.86,6.94,7.19-2.77-5.72-24.72-3.25-28.44,4.34-6.58,27.73-7.26,35.8-7.86h-.03Z"/><path class="cls-9" d="m2080.05,298.38c25.31-17.1,52.92-32.19,82.54-37.23,29.62-5.04,61.64,1.48,80.22,22.34-16.21-8.12-36.96-2.61-55.16,3.97-22.78,8.24-45.09,18-66.71,29.18-17.87,9.25-35.9,20-47.65,36.1,4.75-6.49-20.41-23.14-20.51-28.27-.16-9.08,20.41-21.43,27.27-26.06v-.03Z"/><path class="cls-9" d="m2026.33,387.46c-10.31,5.2-20.69,10.44-29.68,17.88-17.19,14.21-28.42,35.62-39.33,56.61,3.07-40.63,22.79-74.39,48.48-98.59,18.09-17.05,89.14-81.87,108.23-20.87-26.85,18.14-58.75,30.36-87.7,44.97h0Z"/><path class="cls-9" d="m2031.24,302.58c24.17,4.66,48.36,9.33,72.54,13.97,7.86,1.51,16.94,4.2,19.47,13.1,2.16,7.63-1.63,16.2-5.29,23.53-32.15-8.6-64.52-17.24-97.89-18.68-33.37-1.44-68.15,4.71-98.67,24.1,12.6-26.55,18.26-50.35,44.51-57.95,21.75-6.29,44.24-2.14,65.33,1.92Z"/><path class="cls-9" d="m2015.62,280.86c-7.74-8.57-15.54-17.19-25.09-23.9-18.25-12.83-41.87-18-65-22.97,40.01-7.79,77.78,2.32,107.91,20.69,21.22,12.94,102.52,64.34,48.74,98.87-24.6-21.09-44.82-48.64-66.55-72.69h-.01Z"/><polygon class="cls-7" points="2293.74 768.58 2293.74 210.76 2325.52 210.76 2325.52 764.63 2293.74 768.58"/><path class="cls-8" d="m2237.2,205.7c26.99-3.66,53.98-7.32,80.96-10.98,8.77-1.19,19.21-1.87,24.7,4.01,4.71,5.04,3.43,12.54,1.9,19.07-36.65,3.07-73.55,6.19-109.2,14.95-35.66,8.76-70.4,23.59-96.43,47.04,4.85-23.49,3.25-42.88,28.53-56.28,20.95-11.1,45.98-14.64,69.53-17.82h.01Z"/><path class="cls-8" d="m2204.28,154.97c29.32,8.06,58.63,16.14,87.95,24.2,9.53,2.61,20.54,6.51,23.58,15.04,2.6,7.32-2.03,14.54-6.48,20.67-38.98-12.93-78.22-25.93-118.69-32.5-40.47-6.58-82.68-6.44-119.76,6.48,15.36-22.28,22.3-43.14,54.16-45.95,26.4-2.32,53.66,5.01,79.25,12.06h0Z"/><path class="cls-8" d="m2261.89,106.69c20.67,20.82,41.36,41.63,62.03,62.47,6.71,6.77,13.83,15.54,10.07,26.26-3.23,9.2-13.02,15.37-21.81,20.38-25.8-30.13-51.79-60.45-83.84-84.11-32.05-23.66-70.84-40.56-114.74-41.18,31.18-18.59,53.55-38.99,84.9-29.23,25.98,8.08,45.34,27.25,63.38,45.43h0Z"/><path class="cls-8" d="m2327.53,178.81c26.03,2.4,52.43,8.09,74.48,23.77,22.05,15.67,39.18,42.88,39.54,73.35-5.97-17.93-22.53-27.21-38.03-33.85-19.41-8.31-39.37-15.01-59.68-19.99-16.79-4.13-34.53-7.06-51.19-1.18,6.73-2.37-.28-33.66,2.56-38.12,4.98-7.9,25.28-4.62,32.34-3.97h-.01Z"/><path class="cls-8" d="m2317,157.31c30.8-18.07,63.88-34.05,97.7-39.6s68.63.92,86.31,22.44c-16.92-8.28-40.91-2.35-62.19,4.68-26.67,8.8-53.03,19.19-78.83,31.06-21.33,9.81-43.04,21.19-58.56,38.06,6.26-6.81-19.39-23.88-18.74-29.23,1.16-9.44,25.96-22.52,34.31-27.41h0Z"/><path class="cls-8" d="m2305.34,141.97c14.82-32.48,32.56-64.64,56.41-88.9,23.85-24.26,54.87-39.53,80.28-32.71-17.8,3.31-33.66,22.12-46.79,40.22-16.46,22.68-31.84,46.43-45.99,71.02-11.69,20.34-22.87,42.17-26.22,64.72,1.35-9.11-28.02-7.68-30.33-12.33-4.08-8.22,8.63-33.19,12.65-42h0Z"/><polygon class="cls-11" points="979.15 722.1 979.15 267.41 1005.3 267.41 1005.3 718.87 979.15 722.1"/><path class="cls-9" d="m944.65,343.22c-8.19,4.13-16.42,8.29-23.42,14.48-13.37,11.84-21.5,30.39-29.37,48.61.48-36.14,14.95-65.31,34.76-85.65,13.96-14.32,68.92-68.67,87.61-13.22-21.08,14.86-46.6,24.19-69.59,35.78Z"/><path class="cls-9" d="m921.05,259.36c24.49,2.47,49,4.94,73.49,7.41,7.96.8,17.27,2.5,20.76,9.72,2.99,6.19.16,13.5-2.66,19.76-32.85-5.27-65.9-10.58-99.16-9.85-33.25.71-67.09,7.79-95.23,25.58,9.57-22.68,12.57-42.69,37.77-50.47,20.88-6.45,43.64-4.3,65.02-2.15h0Z"/><path class="cls-9" d="m943,220.42c17.1,15.46,34.2,30.93,51.3,46.38,5.55,5.03,11.58,11.53,9.69,19.45-1.63,6.78-8.37,11.33-14.45,15.01-21.69-22.36-43.52-44.86-69.31-62.45-25.77-17.59-55.99-30.2-88.62-30.78,21.56-13.66,36.43-28.69,60.54-21.38,19.96,6.06,35.94,20.29,50.86,33.77Z"/><path class="cls-9" d="m1004.22,268.03c24.42,10.55,48.29,24.09,65.23,44.93,16.94,20.85,25.98,50.15,17.94,76.85-.83-17.58-14.24-31.06-27.34-41.88-16.42-13.55-33.82-25.87-52.01-36.83-15.05-9.05-31.34-17.37-49-17.65,7.13.12,8.99-29.46,12.93-32.44,6.97-5.27,25.61,4.18,32.24,7.03h.01Z"/><path class="cls-9" d="m1004.43,251.76c31.5.96,63.73,4.9,91.57,18.17,27.83,13.26,50.73,37.29,53.72,65.09-8.69-16.08-29.37-23.77-48.58-29.1-24.04-6.67-48.61-11.82-73.47-15.43-20.54-2.98-42.12-4.81-61.67,1.35,7.89-2.48-3.15-30.71-.13-34.92,5.33-7.45,30-5.42,38.56-5.16h0Z"/><path class="cls-9" d="m981.75,231.05c28.43-17.68,59.16-33.28,91.16-38.58,32.02-5.29,65.63,1.28,83.71,22.63-16.62-8.28-39.21-2.54-59.17,4.29-25,8.56-49.61,18.67-73.61,30.24-19.84,9.57-39.96,20.7-53.85,37.28,5.61-6.68-19.84-23.69-19.51-28.97.58-9.33,23.56-22.1,31.26-26.89h.01Z"/><path class="cls-8" d="m984.58,103.26c24.35-3.69,48.7-7.39,73.03-11.08,7.92-1.21,17.37-1.73,22.71,5.69,4.58,6.36,3.85,15.56,2.83,23.56-33.18,2.69-66.56,5.4-98.5,15.12-31.93,9.72-62.69,26.95-85.01,55.06,3.05-28.79.46-52.73,22.69-68.48,18.41-13.05,41-16.65,62.24-19.87h.01Z"/><path class="cls-8" d="m1023.69,57.28c20.7,13.35,41.39,26.69,62.09,40.04,6.73,4.33,14.21,10.14,13.66,18.71-.46,7.34-6.71,13.18-12.44,18-26.74-19.8-53.68-39.7-83.84-53.87-30.16-14.16-64.07-22.4-98.34-17.71,20.12-17.75,32.98-35.84,59.52-32.13,21.99,3.07,41.3,15.33,59.34,26.96h0Z"/><path class="cls-8" d="m1091.98,101.62c34.53,8.18,69.38,18.99,97.91,36.46,28.53,17.48,49.9,42.68,48.75,66.31-7-15.31-28.56-26.51-48.84-35.4-25.41-11.14-51.63-21.15-78.4-29.95-22.14-7.26-45.6-13.83-68.1-13.34,9.08-.2,1.42-26.09,5.42-28.85,7.06-4.9,33.89,2.56,43.26,4.78h0Z"/><path class="cls-8" d="m1083.89,72.05c33.91-23.69,70.24-45.8,107.1-57.77,36.86-11.97,74.44-12.33,93.02,5.42-18.13-4.88-44.31,5.58-67.61,16.6-29.17,13.8-58.07,29.1-86.38,45.73-23.42,13.76-47.29,29.14-64.57,48.71,6.97-7.9-20.38-19.74-19.52-25.12,1.53-9.52,28.78-27.14,37.97-33.57Z"/><path class="cls-8" d="m1427.8,273.44c34.53,8.16,69.21,19.7,97.01,40.24,27.81,20.54,47.8,51.51,45.02,82.02-6.07-19.22-27.21-32.16-47.21-42.23-25.06-12.61-51.02-23.71-77.63-33.19-22.01-7.84-45.4-14.69-68.29-12.52,9.24-.87,3.24-33.67,7.48-37.51,7.51-6.78,34.27.99,43.64,3.2h-.01Z"/><path class="cls-9" d="m1431.91,197.59c-10.31,5.2-20.69,10.44-29.68,17.88-17.19,14.21-28.42,35.62-39.33,56.61,3.07-40.63,22.79-74.39,48.48-98.59,18.09-17.05,89.14-81.87,108.23-20.87-26.85,18.14-58.75,30.36-87.7,44.97Z"/><path class="cls-9" d="m1413.4,139.62c-11.1-3.2-22.27-6.41-33.91-7.07-22.27-1.28-45.06,6.78-67.33,14.76,29.88-27.7,67.32-39.03,102.59-39.31,24.86-.19,121.04.62,93.54,58.32-32.02-4.97-63.72-17.71-94.88-26.69h-.01Z"/><path class="cls-9" d="m1416.67,96.08c-6.13-9.79-12.32-19.64-20.54-27.89-15.73-15.81-38.09-25.02-60.01-33.92,40.75-.71,76.2,15.82,102.65,39.15,18.65,16.44,89.76,81.2,30.78,105.84-20.54-25.06-35.66-55.7-52.88-83.18Z"/><path class="cls-9" d="m1495.25,127.12c24.42,10.55,48.29,24.09,65.23,44.93,16.94,20.85,25.98,50.15,17.94,76.85-.83-17.58-14.24-31.06-27.34-41.88-16.42-13.55-33.82-25.87-52.01-36.83-15.05-9.05-31.34-17.37-49-17.65,7.13.12,8.99-29.46,12.93-32.44,6.97-5.27,25.61,4.18,32.24,7.03h.01Z"/><path class="cls-9" d="m1450.09,106.77c18.17-19.42,38.98-37.32,64.31-46.22,25.34-8.9,55.97-7.51,78.39,9.05-16.82-5.14-34.04,2.91-48.65,11.59-18.3,10.88-35.78,23.1-52.23,36.52-13.61,11.1-26.93,23.62-33.17,40.15,2.51-6.67-24.7-18.41-26.16-23.13-2.61-8.35,12.58-22.71,17.51-27.96Z"/><path class="cls-9" d="m1965.94,122.77c24.42,10.55,48.29,24.09,65.23,44.93,16.94,20.85,25.98,50.15,17.94,76.85-.83-17.58-14.24-31.06-27.34-41.88-16.42-13.55-33.82-25.87-52.01-36.83-15.05-9.05-31.34-17.37-49-17.65,7.13.12,8.99-29.46,12.93-32.44,6.97-5.27,25.61,4.18,32.24,7.03h.01Z"/><path class="cls-9" d="m1954.27,110.3c29.07-6.51,59.43-10.82,87.7-6.73,28.27,4.1,54.23,17.87,62.73,39.22-11.3-10.75-31.86-12.07-50.56-11.87-23.42.26-47.01,1.84-70.53,4.72-19.45,2.38-39.6,5.91-56.24,15.3,6.71-3.79-9.25-23.64-7.37-27.67,3.34-7.15,26.38-11.21,34.27-12.99h-.01Z"/><path class="cls-9" d="m1940.33,102.08c19.77-23.27,42.32-45.24,69.5-58.05,27.17-12.81,59.77-15.14,83.27-.04-17.81-3.46-36.3,7.41-52.07,18.64-19.73,14.06-38.6,29.46-56.41,46.04-14.73,13.71-29.19,28.92-36.19,47.58,2.83-7.52-25.89-16.81-27.36-21.72-2.6-8.7,13.89-26.12,19.26-32.44h-.01Z"/><path class="cls-9" d="m1896.79,188.88c-10.31,5.2-20.69,10.44-29.68,17.88-17.19,14.21-28.42,35.62-39.33,56.61,3.07-40.63,22.79-74.39,48.48-98.59,18.09-17.05,89.14-81.87,108.23-20.87-26.85,18.14-58.75,30.36-87.7,44.97Z"/><path class="cls-9" d="m1895.1,101.3c24.17,4.66,48.36,9.33,72.54,13.97,7.86,1.51,16.94,4.2,19.47,13.1,2.16,7.63-1.63,16.2-5.29,23.53-32.15-8.6-64.52-17.24-97.89-18.68-33.37-1.44-68.15,4.71-98.67,24.1,12.6-26.55,18.26-50.35,44.51-57.95,21.75-6.29,44.24-2.14,65.33,1.92Z"/><path class="cls-9" d="m1888.12,85.67c-7.74-8.57-15.54-17.19-25.09-23.9-18.25-12.83-41.87-18-65-22.97,40.01-7.79,77.78,2.32,107.91,20.69,21.22,12.94,102.52,64.34,48.74,98.87-24.6-21.09-44.82-48.64-66.55-72.69h-.01Z"/><path class="cls-9" d="m593.66,114.43c24.42,10.55,48.29,24.09,65.23,44.93,16.94,20.85,25.98,50.15,17.94,76.85-.83-17.58-14.24-31.06-27.34-41.88-16.42-13.55-33.82-25.87-52.01-36.83-15.05-9.05-31.34-17.37-49-17.65,7.13.12,8.99-29.46,12.93-32.44,6.97-5.27,25.61,4.18,32.24,7.03h.01Z"/><path class="cls-9" d="m589.41,95.75c31.54.96,63.8,4.91,91.68,18.17,27.88,13.26,50.79,37.3,53.78,65.09-8.7-16.08-29.42-23.77-48.64-29.1-24.07-6.67-48.67-11.82-73.55-15.43-20.57-2.98-42.17-4.81-61.74,1.35,7.9-2.48-3.15-30.71-.13-34.92,5.35-7.45,30.04-5.42,38.6-5.16h0Z"/><path class="cls-9" d="m552.17,99.52c18.91-18.7,40.42-35.75,66.09-43.67,25.67-7.9,56.22-5.3,77.98,12.13-16.62-5.81-34.12,1.57-49.07,9.67-18.73,10.15-36.65,21.67-53.62,34.44-14.03,10.56-27.83,22.55-34.72,38.82,2.77-6.57-23.96-19.36-25.23-24.13-2.28-8.44,13.47-22.18,18.6-27.27h-.01Z"/><path class="cls-9" d="m491.1,184.9c-10.31,5.2-20.69,10.44-29.68,17.88-17.19,14.21-28.42,35.62-39.33,56.61,3.07-40.63,22.79-74.39,48.48-98.59,18.09-17.05,89.14-81.87,108.23-20.87-26.85,18.14-58.75,30.36-87.7,44.97Z"/><path class="cls-9" d="m499.76,90.81c24.01,4.17,48.04,8.32,72.06,12.49,7.8,1.35,16.85,3.84,19.54,12.51,2.3,7.44-1.28,15.88-4.75,23.11-31.99-7.9-64.2-15.82-97.23-16.69-33.05-.87-67.32,5.72-97.13,25.2,11.91-26.19,17.03-49.58,42.84-57.44,21.38-6.51,43.73-2.82,64.68.81h0Z"/><path class="cls-9" d="m496.55,79c-9.2-7-18.44-14.03-29.05-18.87-20.29-9.25-44.47-9.99-68.12-10.62,37.89-15.01,76.88-12.03,109.87.49,23.24,8.82,112.6,44.38,66.09,88.22-28.05-16.21-53-39.57-78.8-59.21h.01Z"/><path class="cls-2" d="m294.91,676.79c.87-21.01,12.81-49.06,33.4-53.11,7.28-1.44,8.69,1.5,33.4,6.07,29.46,5.45,33.97,2.48,44.53,7.58,15.65,7.57,21.24,21.57,25.98,33.38,5.42,13.52,13.87,34.66,1.86,53.11-15.52,23.81-60.03,35.24-94.62,22.76-45.81-16.55-44.76-64.38-44.54-69.8Z"/><path class="cls-12" d="m1194.59,659.08c.54-14.05,7.9-32.82,20.6-35.52,4.49-.96,5.36,1,20.6,4.05,18.17,3.65,20.96,1.66,27.47,5.07,9.65,5.06,13.1,14.43,16.02,22.33,3.34,9.05,8.56,23.18,1.15,35.52-9.57,15.94-37.03,23.58-58.37,15.22-28.26-11.05-27.62-43.06-27.47-46.69h0Z"/><path class="cls-5" d="m930.45,763.24h23.12v2.54c0,11.81-1.76,20.31-5.28,25.5-3.84,5.67-9.52,8.5-17.04,8.5s-13.19-2.78-17.4-8.34c-4.18-5.61-6.28-13.32-6.28-23.12s2.11-17.76,6.32-23.48c4.21-5.72,9.97-8.58,17.28-8.58,9.69,0,16.72,5.06,21.09,15.17l-16.05,5.88c-.24-1.93-.79-3.46-1.65-4.59-.86-1.12-1.94-1.69-3.24-1.69-4.56,0-6.83,6.26-6.83,18.79,0,5.32.5,9.19,1.51,11.6,1.01,2.41,2.61,3.62,4.81,3.62.87,0,1.67-.21,2.38-.64.71-.42,1.32-1.02,1.81-1.79.49-.77.87-1.7,1.15-2.8.28-1.1.42-2.32.42-3.67h-6.12v-12.91Z"/><path class="cls-5" d="m1004.25,798.71h-17.92l-8.18-21.85c-.08-.37-.22-.86-.42-1.47s-.44-1.34-.73-2.18l.12,4.05v21.45h-16.49v-61.33h16.96c7.47,0,13.06,1.47,16.76,4.41,4.71,3.76,7.07,9.11,7.07,16.05,0,7.41-3.16,12.54-9.49,15.37l12.31,25.5Zm-27.05-32.93h1.11c1.91,0,3.5-.73,4.77-2.19,1.27-1.46,1.91-3.31,1.91-5.56,0-4.58-2.4-6.87-7.19-6.87h-.6v14.62Z"/><path class="cls-5" d="m1026.3,798.71h-16.56v-61.33h16.56v61.33Z"/><path class="cls-5" d="m1034.88,798.71v-61.33h19.27c7.2,0,12.54,1.59,16.01,4.77,3.52,3.26,5.28,7.47,5.28,12.63,0,7.68-3.81,11.84-11.44,12.47,4.34.64,7.53,2.07,9.55,4.29,2.03,2.22,3.04,5.43,3.04,9.61,0,5.27-1.71,9.51-5.12,12.71-3.39,3.23-7.85,4.85-13.39,4.85h-23.2Zm16.56-37.5h1.11c1.99,0,3.56-.46,4.71-1.39,1.15-.93,1.73-2.22,1.73-3.89,0-3.55-1.95-5.32-5.84-5.32-.19,0-.42,0-.7.02-.28.01-.62.03-1.01.06v10.53Zm0,24.19c.32.03.6.05.83.06.24.01.44.02.6.02,2.07,0,3.71-.54,4.95-1.63s1.85-2.54,1.85-4.37-.62-3.26-1.85-4.29c-1.23-1.03-2.92-1.55-5.06-1.55h-1.31v11.76Z"/><path class="cls-5" d="m1171.25,798.71h-17.32l-1.23-27.96-.52-11.16c-.19,2.15-.4,4.19-.64,6.14-.24,1.95-.53,3.83-.87,5.66l-5.2,27.33h-13.51l-4.45-27.37c-.27-1.59-.62-4.32-1.07-8.18-.05-.58-.17-1.77-.36-3.58l-.4,11.32-1.47,27.8h-17.64l7.15-61.33h20.62l3.46,20.66c.29,1.7.55,3.54.77,5.52.22,1.99.43,4.14.62,6.47.34-3.89.82-7.38,1.43-10.45l4.21-22.2h20.46l5.96,61.33Z"/><path class="cls-5" d="m1222.77,798.71h-17.12l-1.23-7.79h-11.16l-1.35,7.79h-17.12l14.74-61.33h20.26l12.99,61.33Zm-20.3-20.93l-1.07-7.15s-.08-.38-.16-1.07c-.05-.58-.33-2.89-.83-6.91-.05-.45-.12-1.07-.2-1.85-.08-.78-.19-1.77-.32-2.96l-.52-5.8c-.05.56-.13,1.18-.22,1.87-.09.69-.19,1.44-.3,2.26-.19,1.64-.32,2.78-.4,3.42s-.13,1.02-.16,1.15l-1.15,7.43-1.67,9.61h6.99Z"/><path class="cls-5" d="m1227.58,798.71v-61.33h15.81l8.3,21.53c.45,1.27.96,2.73,1.53,4.37.57,1.64,1.2,3.54,1.89,5.68l1.71,5.4c-.61-5.32-1.07-9.88-1.39-13.66-.32-3.79-.48-6.96-.48-9.53v-13.78h15.81v61.33h-15.81l-8.34-22.56c-.87-2.41-1.66-4.67-2.36-6.77-.7-2.11-1.32-4.11-1.85-6.02.34,4.32.6,8.08.75,11.28.16,3.2.24,6.01.24,8.42v15.65h-15.81Z"/><path class="cls-5" d="m1301.39,763.24h23.12v2.54c0,11.81-1.76,20.31-5.28,25.5-3.84,5.67-9.52,8.5-17.04,8.5s-13.19-2.78-17.4-8.34c-4.18-5.61-6.28-13.32-6.28-23.12s2.11-17.76,6.32-23.48c4.21-5.72,9.97-8.58,17.28-8.58,9.69,0,16.72,5.06,21.09,15.17l-16.05,5.88c-.24-1.93-.79-3.46-1.65-4.59-.86-1.12-1.94-1.69-3.24-1.69-4.56,0-6.83,6.26-6.83,18.79,0,5.32.5,9.19,1.51,11.6,1.01,2.41,2.61,3.62,4.81,3.62.87,0,1.67-.21,2.38-.64.71-.42,1.32-1.02,1.81-1.79.49-.77.87-1.7,1.15-2.8.28-1.1.42-2.32.42-3.67h-6.12v-12.91Z"/><path class="cls-5" d="m1376.66,768.24c0,9.35-2.13,16.95-6.4,22.8-4.24,5.83-9.76,8.74-16.56,8.74-6.04,0-11.22-2.24-15.53-6.71-5.43-5.67-8.14-14.17-8.14-25.5s2.83-19.16,8.5-24.91c4.21-4.26,9.2-6.4,14.98-6.4,7.07,0,12.7,2.89,16.88,8.66,4.18,5.77,6.28,13.54,6.28,23.32Zm-17.2.12c0-11.09-1.96-16.64-5.88-16.64-1.96,0-3.52,1.46-4.69,4.37-1.14,2.7-1.71,6.67-1.71,11.92s.54,9.17,1.61,12.02c1.07,2.85,2.56,4.27,4.47,4.27s3.47-1.4,4.53-4.21c1.11-2.81,1.67-6.71,1.67-11.72Z"/><path class="cls-5" d="m1383.73,798.71v-61.33h30.79v14.42h-14.22v8.94h12.75v13.86h-12.75v9.38h14.22v14.74h-30.79Z"/><path class="cls-5" d="m1465.21,798.71h-17.92l-8.18-21.85c-.08-.37-.22-.86-.42-1.47-.2-.61-.44-1.34-.73-2.18l.12,4.05v21.45h-16.49v-61.33h16.96c7.47,0,13.06,1.47,16.76,4.41,4.71,3.76,7.07,9.11,7.07,16.05,0,7.41-3.17,12.54-9.49,15.37l12.31,25.5Zm-27.05-32.93h1.11c1.91,0,3.5-.73,4.77-2.19,1.27-1.46,1.91-3.31,1.91-5.56,0-4.58-2.4-6.87-7.19-6.87h-.6v14.62Z"/><path class="cls-5" d="m1470.69,798.71v-61.33h15.81l8.3,21.53c.45,1.27.96,2.73,1.53,4.37.57,1.64,1.2,3.54,1.89,5.68l1.71,5.4c-.61-5.32-1.07-9.88-1.39-13.66-.32-3.79-.48-6.96-.48-9.53v-13.78h15.81v61.33h-15.81l-8.34-22.56c-.87-2.41-1.66-4.67-2.36-6.77-.7-2.11-1.32-4.11-1.85-6.02.34,4.32.6,8.08.75,11.28.16,3.2.24,6.01.24,8.42v15.65h-15.81Z"/><path class="cls-5" d="m1522.45,798.71v-61.33h30.79v14.42h-14.22v8.94h12.75v13.86h-12.75v9.38h14.22v14.74h-30.79Z"/><path class="cls-5" d="m934.14,835h16.56v43.38c0,3.63-.57,6.57-1.71,8.82-1.11,2.36-2.97,4.49-5.56,6.39-3.5,2.54-7.75,3.81-12.75,3.81-5.67,0-10.42-1.4-14.26-4.21-4.87-3.58-7.31-9.29-7.31-17.16v-41.03h16.56v39.56c0,2.67.32,4.57.97,5.68.65,1.11,1.74,1.67,3.28,1.67s2.69-.52,3.3-1.55c.61-1.09.91-3.01.91-5.76v-39.6Z"/><path class="cls-5" d="m959.29,896.33v-61.33h15.81l8.3,21.53c.45,1.27.96,2.73,1.53,4.37.57,1.64,1.2,3.54,1.89,5.68l1.71,5.4c-.61-5.32-1.07-9.88-1.39-13.66-.32-3.79-.48-6.96-.48-9.53v-13.78h15.81v61.33h-15.81l-8.34-22.56c-.87-2.41-1.66-4.67-2.36-6.77-.7-2.11-1.32-4.11-1.85-6.02.34,4.32.6,8.08.75,11.28.16,3.2.24,6.01.24,8.42v15.65h-15.81Z"/><path class="cls-5" d="m1011.05,896.33v-61.33h14.3c8.18,0,14.55,2.2,19.11,6.59,5.98,5.75,8.98,13.78,8.98,24.11s-2.53,18.02-7.59,23.55c-4.32,4.71-10.75,7.07-19.31,7.07h-15.49Zm16.56-14.82c5.93-.29,8.9-5.4,8.9-15.33,0-4.9-.75-8.76-2.26-11.6-1.51-2.86-3.55-4.29-6.12-4.29h-.52v31.22Z"/><path class="cls-5" d="m1085.85,896.33h-16.88l-14.06-61.33h17.4l3.02,17.52c1.14,6.7,2.05,14.19,2.74,22.48.29-3.68.65-7.12,1.07-10.33.42-3.2.93-6.33,1.51-9.37l3.93-20.3h17.99l-16.72,61.33Z"/><path class="cls-5" d="m1123.43,896.33h-16.56v-61.33h16.56v61.33Z"/><path class="cls-5" d="m1153.34,860.86h23.12v2.54c0,11.81-1.76,20.31-5.28,25.5-3.84,5.67-9.52,8.5-17.04,8.5s-13.19-2.78-17.4-8.34c-4.18-5.61-6.28-13.32-6.28-23.12s2.11-17.76,6.32-23.48c4.21-5.72,9.97-8.58,17.28-8.58,9.69,0,16.72,5.06,21.09,15.17l-16.05,5.88c-.24-1.93-.79-3.46-1.65-4.59-.86-1.12-1.94-1.69-3.24-1.69-4.56,0-6.83,6.26-6.83,18.79,0,5.32.5,9.19,1.51,11.6,1.01,2.41,2.61,3.62,4.81,3.62.87,0,1.67-.21,2.38-.64.71-.42,1.32-1.02,1.81-1.79.49-.77.87-1.7,1.15-2.8.28-1.1.42-2.32.42-3.67h-6.12v-12.91Z"/><path class="cls-5" d="m1208,896.33v-61.33h14.3c8.18,0,14.55,2.2,19.11,6.59,5.98,5.75,8.98,13.78,8.98,24.11s-2.53,18.02-7.59,23.55c-4.32,4.71-10.75,7.07-19.31,7.07h-15.49Zm16.56-14.82c5.93-.29,8.9-5.4,8.9-15.33,0-4.9-.75-8.76-2.26-11.6-1.51-2.86-3.55-4.29-6.12-4.29h-.52v31.22Z"/><path class="cls-5" d="m1257.45,896.33v-61.33h30.79v14.42h-14.22v8.94h12.75v13.86h-12.75v9.38h14.22v14.74h-30.79Z"/><path class="cls-5" d="m1363.39,896.33h-17.92l-8.18-21.85c-.08-.37-.22-.86-.42-1.47-.2-.61-.44-1.34-.73-2.18l.12,4.05v21.45h-16.49v-61.33h16.96c7.47,0,13.06,1.47,16.76,4.41,4.71,3.76,7.07,9.11,7.07,16.05,0,7.41-3.17,12.54-9.49,15.37l12.31,25.5Zm-27.05-32.93h1.11c1.91,0,3.5-.73,4.77-2.19,1.27-1.46,1.91-3.31,1.91-5.56,0-4.58-2.4-6.87-7.19-6.87h-.6v14.62Z"/><path class="cls-5" d="m1413.05,896.33h-17.12l-1.23-7.79h-11.16l-1.35,7.79h-17.12l14.74-61.33h20.26l12.99,61.33Zm-15.37-73.56c0,2.17-.78,4.04-2.34,5.6-1.56,1.56-3.42,2.34-5.56,2.34s-4.12-.78-5.68-2.34c-1.56-1.64-2.34-3.55-2.34-5.72s.77-4.06,2.3-5.6c1.56-1.56,3.44-2.34,5.64-2.34s4.08.78,5.64,2.34c1.56,1.56,2.34,3.47,2.34,5.72Zm-4.93,52.63l-1.07-7.15s-.08-.38-.16-1.07c-.05-.58-.33-2.89-.83-6.91-.05-.45-.12-1.07-.2-1.85-.08-.78-.19-1.77-.32-2.96l-.52-5.8c-.05.56-.13,1.18-.22,1.87s-.19,1.44-.3,2.26c-.19,1.64-.32,2.78-.4,3.42-.08.64-.13,1.02-.16,1.15l-1.15,7.43-1.67,9.61h6.99Zm.4-52.63c0-.98-.33-1.8-.99-2.46-.66-.66-1.47-.99-2.42-.99s-1.72.33-2.38.97c-.66.65-.99,1.45-.99,2.4,0,.48.09.92.28,1.33.18.41.43.77.73,1.07s.66.55,1.07.73c.41.19.85.28,1.33.28.95,0,1.75-.34,2.4-1.01.65-.68.97-1.45.97-2.32Z"/><path class="cls-5" d="m1417.86,896.33v-61.33h14.3c8.18,0,14.55,2.2,19.11,6.59,5.99,5.75,8.98,13.78,8.98,24.11s-2.53,18.02-7.59,23.55c-4.32,4.71-10.75,7.07-19.31,7.07h-15.49Zm16.56-14.82c5.93-.29,8.9-5.4,8.9-15.33,0-4.9-.75-8.76-2.26-11.6-1.51-2.86-3.55-4.29-6.12-4.29h-.52v31.22Z"/><path class="cls-5" d="m1467.31,896.33v-61.33h15.81l8.3,21.53c.45,1.27.96,2.73,1.53,4.37.57,1.64,1.2,3.54,1.89,5.68l1.71,5.4c-.61-5.32-1.07-9.88-1.39-13.66-.32-3.79-.48-6.96-.48-9.53v-13.78h15.81v61.33h-15.81l-8.34-22.56c-.87-2.41-1.66-4.67-2.36-6.77-.7-2.11-1.32-4.11-1.85-6.02.34,4.32.6,8.08.75,11.28.16,3.2.24,6.01.24,8.42v15.65h-15.81Z"/><path class="cls-5" d="m1519.07,896.33v-61.33h30.79v14.42h-14.22v8.94h12.75v13.86h-12.75v9.38h14.22v14.74h-30.79Z"/><path class="cls-5" d="m1581.4,896.33v-61.33h19.27c7.2,0,12.54,1.59,16.01,4.77,3.52,3.26,5.28,7.47,5.28,12.63,0,7.68-3.81,11.84-11.44,12.47,4.34.64,7.53,2.07,9.55,4.29,2.03,2.22,3.04,5.43,3.04,9.61,0,5.27-1.71,9.51-5.12,12.71-3.39,3.23-7.85,4.85-13.39,4.85h-23.2Zm16.56-37.5h1.11c1.99,0,3.56-.46,4.71-1.39,1.15-.93,1.73-2.22,1.73-3.89,0-3.55-1.95-5.32-5.84-5.32-.19,0-.42,0-.69.02-.28.01-.62.03-1.01.06v10.53Zm0,24.19c.32.03.6.05.83.06.24.01.44.02.6.02,2.07,0,3.71-.54,4.95-1.63s1.85-2.54,1.85-4.37-.62-3.26-1.85-4.29c-1.23-1.03-2.92-1.55-5.06-1.55h-1.31v11.76Z"/><path class="cls-5" d="m1673.71,896.33h-17.12l-1.23-7.79h-11.16l-1.35,7.79h-17.12l14.74-61.33h20.26l12.99,61.33Zm-20.3-20.93l-1.07-7.15s-.08-.38-.16-1.07c-.05-.58-.33-2.89-.83-6.91-.05-.45-.12-1.07-.2-1.85-.08-.78-.19-1.77-.32-2.96l-.52-5.8c-.05.56-.13,1.18-.22,1.87s-.19,1.44-.3,2.26c-.19,1.64-.32,2.78-.4,3.42-.08.64-.13,1.02-.16,1.15l-1.15,7.43-1.67,9.61h6.99Z"/><path class="cls-5" d="m1678.52,896.33v-61.33h15.81l8.3,21.53c.45,1.27.96,2.73,1.53,4.37.57,1.64,1.2,3.54,1.89,5.68l1.71,5.4c-.61-5.32-1.07-9.88-1.39-13.66-.32-3.79-.48-6.96-.48-9.53v-13.78h15.81v61.33h-15.81l-8.34-22.56c-.87-2.41-1.66-4.67-2.36-6.77-.7-2.11-1.32-4.11-1.85-6.02.34,4.32.6,8.08.75,11.28.16,3.2.24,6.01.24,8.42v15.65h-15.81Z"/><path class="cls-5" d="m1774.85,896.33h-17.12l-1.23-7.79h-11.16l-1.35,7.79h-17.12l14.74-61.33h20.26l12.99,61.33Zm-20.3-20.93l-1.07-7.15s-.08-.38-.16-1.07c-.05-.58-.33-2.89-.83-6.91-.05-.45-.12-1.07-.2-1.85-.08-.78-.19-1.77-.32-2.96l-.52-5.8c-.05.56-.13,1.18-.22,1.87s-.19,1.44-.3,2.26c-.19,1.64-.32,2.78-.4,3.42-.08.64-.13,1.02-.16,1.15l-1.15,7.43-1.67,9.61h6.99Z"/><path class="cls-5" d="m1779.66,896.33v-61.33h15.81l8.3,21.53c.45,1.27.96,2.73,1.53,4.37.57,1.64,1.2,3.54,1.89,5.68l1.71,5.4c-.61-5.32-1.07-9.88-1.39-13.66-.32-3.79-.48-6.96-.48-9.53v-13.78h15.81v61.33h-15.81l-8.34-22.56c-.87-2.41-1.66-4.67-2.36-6.77-.7-2.11-1.32-4.11-1.85-6.02.34,4.32.6,8.08.75,11.28.16,3.2.24,6.01.24,8.42v15.65h-15.81Z"/><path class="cls-5" d="m1831.42,896.33v-61.33h30.79v14.42h-14.22v8.94h12.75v13.86h-12.75v9.38h14.22v14.74h-30.79Z"/><path class="cls-5" d="m1912.89,896.33h-17.92l-8.18-21.85c-.08-.37-.22-.86-.42-1.47-.2-.61-.44-1.34-.73-2.18l.12,4.05v21.45h-16.49v-61.33h16.96c7.47,0,13.06,1.47,16.76,4.41,4.71,3.76,7.07,9.11,7.07,16.05,0,7.41-3.17,12.54-9.49,15.37l12.31,25.5Zm-27.05-32.93h1.11c1.91,0,3.5-.73,4.77-2.19,1.27-1.46,1.91-3.31,1.91-5.56,0-4.58-2.4-6.87-7.19-6.87h-.6v14.62Z"/></g></svg>