<?xml version="1.0" encoding="UTF-8"?><svg id="Layer_1" xmlns="http://www.w3.org/2000/svg" width="468" height="145" xmlns:xlink="http://www.w3.org/1999/xlink" viewBox="0 0 468 145"><defs><style>.cls-1{fill:url(#linear-gradient);}.cls-2{fill:#fff;}</style><linearGradient id="linear-gradient" x1="0" y1="72.5" x2="468" y2="72.5" gradientUnits="userSpaceOnUse"><stop offset=".36" stop-color="#e27b2f"/><stop offset="1" stop-color="#ff0" stop-opacity=".97"/><stop offset="1" stop-color="#fce50b" stop-opacity=".76"/><stop offset="1" stop-color="#f8b123" stop-opacity=".36"/><stop offset="1" stop-color="#f59032" stop-opacity=".1"/><stop offset="1" stop-color="#f48438" stop-opacity="0"/></linearGradient></defs><rect class="cls-1" width="468" height="145" rx="41.7" ry="41.7"/><path class="cls-2" d="m37.47,87.34v-11.13c1.88,2.57,3.92,3.86,6.11,3.86.83,0,1.5-.22,2.02-.65.52-.44.78-.98.78-1.64,0-.95-.57-1.87-1.7-2.78l-1.56-1.22c-1.04-.78-1.93-1.56-2.66-2.33-.73-.77-1.33-1.57-1.79-2.39-.46-.82-.79-1.66-1.01-2.54-.21-.87-.32-1.79-.32-2.75,0-1.65.38-3.38,1.15-5.19.38-.84.83-1.61,1.33-2.31.5-.7,1.09-1.31,1.74-1.85,1.8-1.53,3.98-2.29,6.54-2.29,2.28,0,4.57.6,6.88,1.81v10.83c-.78-1.21-1.67-2.16-2.66-2.86-1-.7-1.97-1.04-2.94-1.04-.73,0-1.34.21-1.81.64-.49.41-.73.91-.73,1.49,0,.95.65,1.89,1.95,2.82l1.51,1.12c2.02,1.45,3.47,2.95,4.34,4.48.89,1.53,1.33,3.32,1.33,5.37,0,3.49-1.06,6.37-3.19,8.63-2.13,2.26-4.82,3.4-8.08,3.4-2.25,0-4.66-.5-7.23-1.49Z"/><path class="cls-2" d="m71.16,88.21h-9.57v-35.43h9.27c4.62,0,8.05.94,10.28,2.82,2.63,2.22,3.95,5.3,3.95,9.25,0,4.3-1.4,7.5-4.2,9.62-1.91,1.42-4.66,2.13-8.24,2.13h-1.49v11.61Zm0-19.58l.44.02c1.16,0,2.09-.36,2.78-1.07.69-.71,1.03-1.69,1.03-2.93s-.34-2.22-1.01-2.98c-.67-.78-1.53-1.17-2.57-1.17h-.67v8.12Z"/><path class="cls-2" d="m99.89,88.21h-9.57v-35.43h9.57v35.43Z"/><path class="cls-2" d="m123.48,88.21h-16.75v-35.43h9.57v26.92h7.18v8.51Z"/><path class="cls-2" d="m153.79,88.21h-9.57v-35.43h9.57v35.43Z"/><path class="cls-2" d="m172.95,67.71h13.36v1.47c0,6.82-1.02,11.74-3.05,14.73-2.22,3.27-5.5,4.91-9.84,4.91s-7.62-1.61-10.05-4.82c-2.42-3.24-3.62-7.7-3.62-13.36s1.22-10.26,3.65-13.56,5.76-4.96,9.98-4.96c5.6,0,9.66,2.92,12.19,8.77l-9.27,3.4c-.14-1.12-.46-2-.95-2.65-.5-.65-1.12-.98-1.87-.98-2.63,0-3.95,3.62-3.95,10.86,0,3.07.29,5.31.87,6.7.58,1.39,1.51,2.09,2.78,2.09.5,0,.96-.12,1.38-.37.41-.24.76-.59,1.04-1.03.28-.44.5-.98.67-1.62.16-.63.24-1.34.24-2.12h-3.53v-7.46Z"/><path class="cls-2" d="m192.27,88.21v-35.43h17.79v8.33h-8.21v5.16h7.37v8.01h-7.37v5.42h8.21v8.51h-17.79Z"/><path class="cls-2" d="m216.02,88.21v-35.43h9.13l4.8,12.44c.26.73.55,1.58.88,2.52.33.95.69,2.04,1.09,3.28l.99,3.12c-.35-3.07-.62-5.71-.8-7.89-.18-2.19-.28-4.02-.28-5.51v-7.96h9.13v35.43h-9.13l-4.82-13.04c-.5-1.39-.96-2.7-1.37-3.91-.41-1.22-.76-2.38-1.07-3.48.2,2.49.34,4.67.44,6.52.09,1.85.14,3.47.14,4.87v9.04h-9.13Z"/><path class="cls-2" d="m263.44,75.38h-9.11v-8.68c.64.05,1.12.07,1.42.07,1.74,0,3.01-.37,3.81-1.11.79-.74,1.19-1.92,1.19-3.55,0-2.62-.69-3.92-2.07-3.92s-2,1.35-2,4.04h-9.22c0-3.32.7-5.91,2.09-7.76.93-1.29,2.23-2.3,3.9-3.05,1.54-.75,3.3-1.12,5.25-1.12,3.37,0,6.13,1.09,8.29,3.28,2.16,2.19,3.24,4.98,3.24,8.38,0,2.6-.57,4.73-1.71,6.39-1.14,1.66-2.83,2.79-5.08,3.38v3.65Zm.87,8.03c0,1.47-.53,2.72-1.58,3.74-1.09,1.04-2.34,1.56-3.76,1.56s-2.7-.52-3.79-1.56c-1.04-1.09-1.56-2.36-1.56-3.81s.52-2.75,1.56-3.83c1.02-1.06,2.28-1.58,3.76-1.58s2.78.54,3.81,1.61c1.04,1.09,1.56,2.38,1.56,3.88Z"/></svg>