<?xml version="1.0" encoding="UTF-8"?><svg id="Layer_1" xmlns="http://www.w3.org/2000/svg" width="468" height="145" xmlns:xlink="http://www.w3.org/1999/xlink" viewBox="0 0 468 145"><defs><style>.cls-1{fill:url(#linear-gradient);}.cls-2{fill:#fff;}</style><linearGradient id="linear-gradient" x1="0" y1="72.5" x2="468" y2="72.5" gradientUnits="userSpaceOnUse"><stop offset=".36" stop-color="#e27b2f"/><stop offset="1" stop-color="#ff0" stop-opacity=".97"/><stop offset="1" stop-color="#fce50b" stop-opacity=".76"/><stop offset="1" stop-color="#f8b123" stop-opacity=".36"/><stop offset="1" stop-color="#f59032" stop-opacity=".1"/><stop offset="1" stop-color="#f48438" stop-opacity="0"/></linearGradient></defs><rect class="cls-1" x="0" width="468" height="145" rx="41.7" ry="41.7"/><path class="cls-2" d="m35.89,93.76v-11.13c1.88,2.57,3.92,3.86,6.11,3.86.83,0,1.5-.22,2.02-.65.52-.44.78-.98.78-1.64,0-.95-.57-1.87-1.7-2.78l-1.56-1.22c-1.04-.78-1.93-1.56-2.66-2.33-.73-.77-1.33-1.57-1.79-2.39-.46-.82-.79-1.66-1.01-2.54-.21-.87-.32-1.79-.32-2.75,0-1.65.38-3.38,1.15-5.19.38-.84.83-1.61,1.33-2.31.5-.7,1.09-1.31,1.74-1.85,1.8-1.53,3.98-2.29,6.54-2.29,2.28,0,4.57.6,6.88,1.81v10.83c-.78-1.21-1.67-2.16-2.66-2.86-1-.7-1.97-1.04-2.94-1.04-.73,0-1.34.21-1.81.64-.49.41-.73.91-.73,1.49,0,.95.65,1.89,1.95,2.82l1.51,1.12c2.02,1.45,3.47,2.95,4.34,4.48.89,1.53,1.33,3.32,1.33,5.37,0,3.49-1.06,6.37-3.19,8.63-2.13,2.26-4.82,3.4-8.08,3.4-2.25,0-4.66-.5-7.23-1.49Z"/><path class="cls-2" d="m72.83,94.64h-9.57v-26.94h-5.28v-8.49h20.33v8.49h-5.49v26.94Z"/><path class="cls-2" d="m107.35,94.64h-9.89l-.71-4.5h-6.45l-.78,4.5h-9.89l8.51-35.43h11.71l7.5,35.43Zm-11.73-12.09l-.62-4.13s-.05-.22-.09-.62c-.03-.34-.19-1.67-.48-3.99-.03-.26-.07-.62-.12-1.07-.05-.45-.11-1.02-.18-1.71l-.3-3.35c-.03.32-.07.68-.13,1.08-.05.4-.11.83-.17,1.31-.11.95-.18,1.61-.23,1.97s-.08.59-.09.67l-.67,4.29-.96,5.55h4.04Z"/><path class="cls-2" d="m137.2,94.64h-10.35l-4.73-12.62c-.05-.21-.13-.5-.24-.85-.12-.35-.26-.77-.42-1.26l.07,2.34v12.39h-9.52v-35.43h9.8c4.31,0,7.54.85,9.69,2.55,2.72,2.17,4.08,5.26,4.08,9.27,0,4.28-1.83,7.25-5.48,8.88l7.11,14.73Zm-15.63-19.03h.64c1.1,0,2.02-.42,2.75-1.26.73-.84,1.1-1.91,1.1-3.21,0-2.65-1.39-3.97-4.15-3.97h-.34v8.45Z"/><path class="cls-2" d="m154.94,94.64h-9.57v-26.94h-5.28v-8.49h20.33v8.49h-5.49v26.94Z"/><path class="cls-2" d="m180.04,93.76v-11.13c1.88,2.57,3.92,3.86,6.11,3.86.83,0,1.5-.22,2.02-.65.52-.44.78-.98.78-1.64,0-.95-.57-1.87-1.7-2.78l-1.56-1.22c-1.04-.78-1.93-1.56-2.66-2.33-.73-.77-1.33-1.57-1.79-2.39-.46-.82-.79-1.66-1.01-2.54-.21-.87-.32-1.79-.32-2.75,0-1.65.38-3.38,1.15-5.19.38-.84.83-1.61,1.33-2.31.5-.7,1.09-1.31,1.74-1.85,1.8-1.53,3.98-2.29,6.54-2.29,2.28,0,4.57.6,6.88,1.81v10.83c-.78-1.21-1.67-2.16-2.66-2.86-1-.7-1.97-1.04-2.94-1.04-.73,0-1.34.21-1.81.64-.49.41-.73.91-.73,1.49,0,.95.65,1.89,1.95,2.82l1.51,1.12c2.02,1.45,3.47,2.95,4.34,4.48.89,1.53,1.33,3.32,1.33,5.37,0,3.49-1.06,6.37-3.19,8.63-2.13,2.26-4.82,3.4-8.08,3.4-2.25,0-4.66-.5-7.23-1.49Z"/><path class="cls-2" d="m213.73,94.64h-9.57v-35.43h9.27c4.62,0,8.05.94,10.28,2.82,2.63,2.22,3.95,5.3,3.95,9.25,0,4.3-1.4,7.5-4.2,9.62-1.91,1.42-4.66,2.13-8.24,2.13h-1.49v11.61Zm0-19.58l.44.02c1.16,0,2.09-.36,2.78-1.07.69-.71,1.03-1.69,1.03-2.93s-.34-2.22-1.01-2.98c-.67-.78-1.53-1.17-2.57-1.17h-.67v8.12Z"/><path class="cls-2" d="m242.46,94.64h-9.57v-35.43h9.57v35.43Z"/><path class="cls-2" d="m266.05,94.64h-16.75v-35.43h9.57v26.92h7.18v8.51Z"/><path class="cls-2" d="m287.53,94.64h-16.75v-35.43h9.57v26.92h7.18v8.51Z"/><path class="cls-2" d="m292.26,94.64v-35.43h17.79v8.33h-8.21v5.16h7.37v8.01h-7.37v5.42h8.21v8.51h-17.79Z"/><path class="cls-2" d="m328.37,94.64h-9.57v-26.94h-5.28v-8.49h20.33v8.49h-5.48v26.94Z"/></svg>