<?xml version="1.0" encoding="UTF-8"?><svg id="Layer_1" xmlns="http://www.w3.org/2000/svg" width="468" height="145" xmlns:xlink="http://www.w3.org/1999/xlink" viewBox="0 0 468 145"><defs><style>.cls-1{fill:url(#linear-gradient);}.cls-2{fill:#fff;}</style><linearGradient id="linear-gradient" x1="0" y1="72.5" x2="468" y2="72.5" gradientUnits="userSpaceOnUse"><stop offset=".36" stop-color="#e27b2f"/><stop offset="1" stop-color="#ff0" stop-opacity=".97"/><stop offset="1" stop-color="#fce50b" stop-opacity=".76"/><stop offset="1" stop-color="#f8b123" stop-opacity=".36"/><stop offset="1" stop-color="#f59032" stop-opacity=".1"/><stop offset="1" stop-color="#f48438" stop-opacity="0"/></linearGradient></defs><rect class="cls-1" width="468" height="145" rx="41.7" ry="41.7"/><path class="cls-2" d="m61.72,96.41h-9.57v-14.25h-4.57v14.25h-9.57v-35.43h9.57v12.53h4.57v-12.53h9.57v35.43Z"/><path class="cls-2" d="m94.61,78.81c0,5.4-1.23,9.79-3.69,13.17-2.45,3.37-5.64,5.05-9.57,5.05-3.49,0-6.48-1.29-8.97-3.88-3.14-3.27-4.7-8.18-4.7-14.73s1.64-11.07,4.91-14.39c2.43-2.46,5.32-3.7,8.65-3.7,4.08,0,7.34,1.67,9.75,5,2.42,3.34,3.62,7.83,3.62,13.47Zm-9.94.07c0-6.41-1.13-9.62-3.4-9.62-1.13,0-2.04.84-2.71,2.52-.66,1.56-.99,3.86-.99,6.89s.31,5.3.93,6.94c.62,1.65,1.48,2.47,2.58,2.47s2-.81,2.62-2.43c.64-1.62.96-3.88.96-6.77Z"/><path class="cls-2" d="m130.5,96.41h-9.23l-2.2-12.42c-.43-2.4-.75-4.48-.96-6.24-.11-.87-.2-1.6-.28-2.18-.08-.58-.13-1.03-.16-1.33-.08.63-.19,1.8-.34,3.51-.08.87-.17,1.79-.28,2.75-.11.96-.24,1.98-.39,3.05l-1.81,12.85h-9.32l-7.89-35.43h9.46l1.56,9.75c.6,3.89,1.01,6.94,1.24,9.16l.32,3.24.3-2.78c.32-3.24.73-6.33,1.24-9.25l1.79-10.12h8.24l1.61,8.51c.76,3.96,1.43,8.65,2,14.07.17-2.43.35-4.59.55-6.47.2-1.88.42-3.59.67-5.12l1.74-10.99h9.34l-7.18,35.43Z"/><path class="cls-2" d="m170.43,96.41h-9.57v-26.94h-5.28v-8.49h20.33v8.49h-5.49v26.94Z"/><path class="cls-2" d="m206.55,78.81c0,5.4-1.23,9.79-3.69,13.17-2.45,3.37-5.64,5.05-9.57,5.05-3.49,0-6.48-1.29-8.97-3.88-3.14-3.27-4.7-8.18-4.7-14.73s1.64-11.07,4.91-14.39c2.43-2.46,5.32-3.7,8.65-3.7,4.08,0,7.34,1.67,9.75,5,2.42,3.34,3.62,7.83,3.62,13.47Zm-9.94.07c0-6.41-1.13-9.62-3.4-9.62-1.13,0-2.04.84-2.71,2.52-.66,1.56-.99,3.86-.99,6.89s.31,5.3.93,6.94c.62,1.65,1.48,2.47,2.58,2.47s2-.81,2.62-2.43c.64-1.62.96-3.88.96-6.77Z"/><path class="cls-2" d="m238.1,96.41h-9.57v-35.43h9.27c4.62,0,8.05.94,10.28,2.82,2.63,2.22,3.95,5.3,3.95,9.25,0,4.3-1.4,7.51-4.2,9.62-1.91,1.42-4.66,2.13-8.24,2.13h-1.49v11.61Zm0-19.58l.44.02c1.16,0,2.09-.36,2.78-1.07.69-.71,1.03-1.69,1.03-2.93s-.34-2.22-1.01-2.98c-.67-.78-1.53-1.17-2.57-1.17h-.67v8.12Z"/><path class="cls-2" d="m274.01,96.41h-16.75v-35.43h9.57v26.92h7.18v8.51Z"/><path class="cls-2" d="m305.52,96.41h-9.89l-.71-4.5h-6.45l-.78,4.5h-9.89l8.51-35.43h11.71l7.5,35.43Zm-11.73-12.09l-.62-4.13s-.05-.22-.09-.62c-.03-.34-.19-1.67-.48-3.99-.03-.26-.07-.62-.12-1.07-.05-.45-.11-1.02-.18-1.71l-.3-3.35c-.03.32-.07.68-.13,1.08-.05.4-.11.83-.17,1.31-.11.95-.18,1.61-.23,1.97-.05.37-.08.59-.09.67l-.67,4.29-.96,5.55h4.04Z"/><path class="cls-2" d="m326.06,96.41h-9.57v-15.01l-8.79-20.42h9.98l1.72,5.26c.34,1.02.64,2.01.91,2.96.27.95.51,1.86.72,2.73.35-1.3.66-2.42.92-3.36.26-.94.49-1.7.69-2.28l1.74-5.3h9.91l-8.24,20.42v15.01Z"/></svg>