<?xml version="1.0" encoding="UTF-8"?><svg id="Layer_1" xmlns="http://www.w3.org/2000/svg" width="1920" height="1080" xmlns:xlink="http://www.w3.org/1999/xlink" viewBox="0 0 1920 1080"><defs><style>.cls-1{fill:none;}.cls-2{fill:url(#linear-gradient);}.cls-3{clip-path:url(#clippath);}.cls-4{fill:#008ddf;}.cls-5{fill:#ff4b2e;}.cls-6{fill:#ffe9a1;}.cls-7{fill:#744100;}.cls-8{fill:#109400;}.cls-9{fill:#0a7f00;}.cls-10{fill:#88de88;}.cls-11{fill:#8a4600;}.cls-12{fill:url(#linear-gradient-2);}</style><clipPath id="clippath"><rect class="cls-1" width="1920" height="1080"/></clipPath><linearGradient id="linear-gradient" x1="-49.95" y1="439.35" x2="95.37" y2="439.35" gradientTransform="translate(0 1082) scale(1 -1)" gradientUnits="userSpaceOnUse"><stop offset="0" stop-color="#fff"/><stop offset="1" stop-color="#000"/></linearGradient><linearGradient id="linear-gradient-2" x1="849.75" y1="460.63" x2="939.39" y2="460.63" gradientTransform="translate(0 1082) scale(1 -1)" gradientUnits="userSpaceOnUse"><stop offset="0" stop-color="#fff"/><stop offset=".8" stop-color="#090909"/><stop offset="1" stop-color="#000"/></linearGradient></defs><g class="cls-3"><rect class="cls-10" x="-49.91" y="-1.67" width="2096.31" height="754.54"/><polygon class="cls-11" points="207.23 696.17 207.23 89.92 233.38 89.92 233.38 691.88 207.23 696.17"/><polygon class="cls-11" points="1587.34 696.17 1587.34 76.84 1613.49 76.84 1613.49 691.78 1587.34 696.17"/><polygon class="cls-11" points="712.78 661.27 712.78 75.38 738.93 75.38 738.93 657.13 712.78 661.27"/><polygon class="cls-7" points="1108.16 652.55 1108.16 90.79 1139.95 90.79 1139.95 648.57 1108.16 652.55"/><path class="cls-4" d="m-49.91,862.22l135.13-42.06,136.62,11.81c75.73,42.77-34.15,73.75,75.73,42.77,109.89-30.98-14.85-50.16,109.89-30.98,124.73,19.18-10.4,53.09,124.73,19.18,135.13-33.92,19.31-69.33,135.13-33.93,115.83,35.4,136.62-13.27,115.83,35.4-20.79,48.67,129.19-28.03,129.19-28.03,109.89,19.18-17.83,57.53,109.89,19.18,127.71-38.35,25.25-67.85,127.71-38.35,102.46,29.5-2.96,53.09,102.46,29.5,105.43-23.6,209.18-.47,209.18-.47,69.99-23.13,175.42,16.69,69.99-23.13-105.43-39.82,193.04,63.43,105.43,39.82-87.62-23.6,80.19-32.45,80.19-32.45l99.92,15.76,136.19-21.66,85.52,21.66,54.07-19.73v268H-49.91"/><path class="cls-6" d="m-344.81,737.76l444.71-66.25,583.9-27.68h610.05c8.34.42,48.33,2.4,56.69,2.81,156.84,7.76,313.68,15.4,470.51,22.9,94.49,15.64,188.97,31.3,283.46,46.94v144.41l-61.8,25.22h-253.43l-188.06-12.36-46.62,16.22-171.73-3.87-159.82-18.03-138.04,30.23-158.76-14.26-116.35,34.22-179.76,10.51-265.21-36.97-120.45,32-133.3-39.76-25.77,25.72-33.05,12.78-57.19,6.25-139.68-74c-15.28-.67-30.57-1.34-45.85-2.01"/><polygon class="cls-7" points="78.11 716.52 78.11 196.05 112.8 196.05 112.8 712.84 78.11 716.52"/><polygon class="cls-7" points="531.19 677.27 531.19 235.3 557.34 235.3 557.34 674.14 531.19 677.27"/><polygon class="cls-7" points="1052.68 661.27 1052.68 252.75 1084.47 252.75 1084.47 658.38 1052.68 661.27"/><polygon class="cls-7" points="820.29 652.55 820.29 129.17 852.03 129.17 852.03 648.84 820.29 652.55"/><polygon class="cls-7" points="307.43 687.44 307.43 332.71 339.21 332.71 339.21 684.93 307.43 687.44"/><path class="cls-8" d="m582.11,215.6c37.45-.06,75.88,3.31,109.45,17.63,33.57,14.32,61.67,41.26,66.26,73.3-10.94-18.27-35.8-26.42-58.81-31.85-28.81-6.83-58.18-11.89-87.83-15.13-24.51-2.68-50.21-4-73.19,3.84,9.27-3.15-4.91-35.4-1.48-40.39,6.06-8.81,35.43-7.37,45.59-7.39h.01Z"/><path class="cls-8" d="m571.67,195.47c36.48-21.41,75.56-40.56,115.16-47.93,39.6-7.37,79.96-1.22,99.85,22.52-19.45-8.8-47.59-1.31-72.64,7.33-31.36,10.82-62.44,23.42-92.89,37.67-25.19,11.78-50.86,25.35-69.5,44.91,7.53-7.89-21.82-26.34-20.88-32.39,1.67-10.71,30.99-26.29,40.88-32.09h.01Z"/><path class="cls-8" d="m537.57,205.3c21.99-35.66,46.81-70.84,75.98-96.96,29.16-26.11,63.43-41.86,87.21-33.19-18.46,2.95-38.44,23.3-55.55,42.98-21.44,24.63-42.04,50.52-61.61,77.4-16.18,22.23-32.16,46.14-40.52,71.19,3.37-10.12-26.19-9.76-27.46-15.05-2.24-9.35,15.99-36.71,21.95-46.39h0Z"/><path class="cls-8" d="m111.94,165.52c30.78-18.09,64.3-33.37,99.93-35.82,35.64-2.46,73.86,9.84,95.58,38.32-19.23-12.24-44.25-8.07-66.23-2.21-27.53,7.34-54.54,16.63-80.74,27.81-21.67,9.23-43.55,20.35-58.07,38.92,5.85-7.5-23.87-31.56-23.84-37.99.04-11.37,25.03-24.13,33.37-29.03h0Z"/><path class="cls-8" d="m477.7,241.74c22.88-9.12,45.76-18.22,68.64-27.33,7.44-2.97,16.6-5.42,24.1,2.27,6.42,6.6,8.47,17.58,9.89,27.2-31.89,9.64-63.98,19.36-92.53,37.06-28.55,17.69-53.65,43.99-67.2,81.46-5.67-34.5-15.41-62.19,1.74-85.08,14.22-18.96,35.39-27.62,55.35-35.56h0Z"/><path class="cls-8" d="m462.69,193.46c24.45,2.91,48.9,5.82,73.36,8.71,7.95.94,17.17,3.14,20.11,13.49,2.51,8.87-.92,19.5-4.26,28.63-32.63-6.73-65.46-13.49-98.99-11.54-33.53,1.95-68.12,13.08-97.87,39.54,11.45-33.05,16.07-62.03,42.06-73.97,21.53-9.89,44.27-7.4,65.59-4.87h0Z"/><path class="cls-8" d="m988.69,251.78c24.04-5.32,48.09-10.63,72.13-15.95,7.82-1.73,17.2-2.95,22.9,3.47,4.88,5.51,4.63,14.04,4.04,21.52-32.89,5.07-65.98,10.21-97.28,21.68-31.29,11.47-61,29.77-81.79,57.46,1.54-26.79-2.25-48.69,19.06-64.94,17.65-13.48,39.95-18.57,60.93-23.2v-.03Z"/><path class="cls-8" d="m520.02,144.69c20.38,13.83,40.76,27.65,61.15,41.48,6.62,4.49,13.66,10.92,10.1,23.39-3.05,10.7-12.52,20.72-21.02,29.15-25.48-21.55-51.15-43.21-82.65-55.75-31.5-12.55-69.48-15.59-112.28.1,30.17-30.79,51.76-60.19,82.43-61.76,25.41-1.31,44.48,11.31,62.28,23.38h0Z"/><path class="cls-8" d="m110.16,192.05c26.03,2.4,52.37,8.64,74.21,26.66,21.83,18.03,38.56,49.65,38.41,85.35-5.69-20.92-22.13-31.53-37.54-39.06-19.31-9.44-39.2-16.95-59.45-22.48-16.75-4.57-34.47-7.71-51.25-.55,6.77-2.89.28-39.46,3.17-44.73,5.13-9.35,25.38-5.83,32.44-5.18h.01Z"/><path class="cls-8" d="m15.37,182.33c24.45,2.91,48.9,5.82,73.36,8.71,7.95.94,17.17,3.14,20.11,13.49,2.51,8.87-.92,19.5-4.26,28.63-32.63-6.73-65.46-13.49-98.99-11.54-33.53,1.95-68.12,13.08-97.87,39.54,11.45-33.05,16.07-62.03,42.06-73.97,21.53-9.89,44.27-7.4,65.59-4.87h0Z"/><path class="cls-8" d="m35.62,124.11c21.36,12.28,42.7,24.56,64.05,36.84,6.94,3.98,14.56,9.64,13.21,20.3-1.16,9.13-8.48,17.56-15.15,24.66-27.37-19.02-54.91-38.12-86.51-49.52-31.6-11.38-67.79-14.73-105.53-2.08,23.49-25.88,39.12-50.74,67.7-51.49,23.68-.63,43.61,10.58,62.24,21.3Z"/><path class="cls-8" d="m32.33,219.73c23.74-6.53,47.49-13.07,71.23-19.6,7.71-2.12,17.1-3.56,23.69,4.9,5.67,7.25,6.49,18.41,6.84,28.12-32.76,6.06-65.71,12.2-96.03,26.65-30.32,14.44-58.17,37.81-75.75,73.55-1.84-34.92-8.48-63.52,11.08-84.37,16.21-17.27,38.21-23.55,58.92-29.25Z"/><path class="cls-8" d="m90.08,145.46c23.8-26.63,50.26-52.12,80.25-68.23,29.98-16.11,64.12-21.49,86.38-7.43-17.98-2.12-38.7,11.15-56.63,24.54-22.44,16.78-44.18,34.91-65,54.21-17.22,15.96-34.36,33.51-44.24,54.07,4-8.3-24.49-15.67-25.32-20.79-1.47-9.07,18.09-29.16,24.54-36.39h.01Z"/><path class="cls-9" d="m263.45,382.04c-10.31,5.2-20.69,10.45-29.68,17.9-17.19,14.22-28.42,35.65-39.33,56.66,3.07-40.66,22.79-74.45,48.48-98.67,18.09-17.07,89.14-81.94,108.23-20.89-26.85,18.16-58.75,30.38-87.7,45.01h0Z"/><path class="cls-9" d="m260.15,285.21c23.61,7.04,47.2,14.06,70.81,21.1,7.67,2.28,16.45,5.86,18.07,14.97,1.39,7.82-3.23,15.96-7.58,22.91-31.15-11.75-62.5-23.55-95.56-28.29s-68.28-2.05-100.57,14.25c15.15-25.19,23.14-48.34,50.02-53.3,22.27-4.11,44.24,2.24,64.82,8.37h0Z"/><path class="cls-9" d="m259.86,277.49c-9.2-7.01-18.44-14.04-29.05-18.89-20.29-9.26-44.47-10-68.12-10.63,37.89-15.02,76.88-12.04,109.87.49,23.24,8.82,112.6,44.41,66.09,88.29-28.05-16.22-53-39.6-78.8-59.26h.01Z"/><path class="cls-9" d="m344.78,320.54c24.42,10.55,48.29,24.1,65.23,44.97,16.94,20.86,25.98,50.19,17.94,76.91-.83-17.59-14.24-31.08-27.34-41.91-16.42-13.56-33.82-25.89-52.01-36.85-15.05-9.06-31.34-17.39-49-17.66,7.13.12,8.99-29.48,12.93-32.46,6.97-5.28,25.61,4.19,32.24,7.04h.01Z"/><path class="cls-9" d="m347.52,300.22c26.59.8,53.77,4.59,77.2,17.72,23.43,13.13,42.64,37.07,45.02,64.86-7.26-16.05-24.68-23.64-40.87-28.87-20.27-6.56-40.98-11.59-61.93-15.06-17.33-2.88-35.53-4.59-52.05,1.66,6.67-2.53-2.51-30.72.06-34.95,4.55-7.49,25.35-5.57,32.57-5.35h0Z"/><path class="cls-9" d="m329.55,285.1c18.91-18.71,40.42-35.78,66.09-43.7,25.67-7.91,56.22-5.31,77.98,12.14-16.62-5.82-34.12,1.57-49.07,9.68-18.73,10.16-36.65,21.69-53.62,34.47-14.03,10.57-27.83,22.56-34.72,38.85,2.77-6.57-23.96-19.38-25.23-24.15-2.28-8.45,13.47-22.2,18.6-27.29h-.01Z"/><path class="cls-9" d="m763.34,177.86c-10.92,5.51-21.91,11.08-31.6,18.62-18.52,14.44-31.31,35.37-43.73,55.87,5.45-38.69,27.7-71.79,55.54-96.19,19.61-17.18,96.51-82.64,112.73-25.89-28.69,18.71-62.28,32.1-92.95,47.58Z"/><path class="cls-9" d="m761.1,90.05c24.49,2.47,49,4.94,73.49,7.41,7.96.8,17.27,2.5,20.76,9.73,2.99,6.19.16,13.49-2.66,19.76-32.85-5.28-65.9-10.57-99.16-9.86-33.25.71-67.07,7.79-95.23,25.57,9.57-22.68,12.57-42.7,37.77-50.48,20.88-6.44,43.64-4.3,65.02-2.14Z"/><path class="cls-9" d="m759.55,46.71c24.94,12.78,49.89,25.54,74.85,38.32,8.11,4.14,17.23,9.89,17.59,19.63.31,8.36-6.09,15.64-12,21.73-32.53-19.39-65.29-38.89-101.04-51.54-35.75-12.65-75.06-18.17-113.3-9.04,20.72-22.3,33.2-44.2,63.66-42.96,25.23,1.02,48.48,12.71,70.24,23.86Z"/><path class="cls-9" d="m865.42,115.03c24.42,10.55,48.29,24.1,65.23,44.97,16.94,20.86,25.98,50.19,17.94,76.91-.83-17.59-14.24-31.08-27.34-41.91-16.42-13.56-33.82-25.89-52.01-36.85-15.05-9.06-31.34-17.39-49-17.66,7.13.12,8.99-29.48,12.93-32.46,6.97-5.28,25.61,4.19,32.24,7.04h.01Z"/><path class="cls-9" d="m875.65,86.16c31.5.96,63.73,4.9,91.57,18.19,27.83,13.27,50.73,37.32,53.72,65.15-8.69-16.09-29.37-23.78-48.58-29.12-24.04-6.67-48.61-11.83-73.47-15.44-20.54-2.98-42.12-4.81-61.67,1.35,7.89-2.49-3.15-30.73-.13-34.95,5.33-7.46,30-5.42,38.56-5.16h0Z"/><path class="cls-9" d="m828.93,66.5c28.43-17.69,59.16-33.31,91.16-38.61,32.02-5.29,65.63,1.28,83.71,22.65-16.62-8.29-39.21-2.54-59.17,4.29-25,8.56-49.61,18.68-73.61,30.27-19.84,9.58-39.96,20.72-53.85,37.31,5.61-6.69-19.84-23.71-19.51-28.99.58-9.33,23.56-22.11,31.26-26.91h.01Z"/><path class="cls-8" d="m992.15,211.91c23.75,6.5,47.5,12.98,71.26,19.48,7.71,2.11,16.6,5.39,18.65,13.74,1.76,7.15-2.44,14.6-6.44,20.92-31.47-10.83-63.14-21.71-96.17-26.13-33.04-4.42-67.84-2.06-99.11,12.75,13.83-23,20.66-44.14,47.07-48.6,21.89-3.71,43.99,2.17,64.72,7.84h.01Z"/><path class="cls-8" d="m1023.4,182.79c16.56,13.32,33.14,26.63,49.7,39.95,5.39,4.33,11.22,10.08,9.31,18.17-1.63,6.93-8.24,12.26-14.21,16.65-20.99-19.63-42.13-39.37-67.15-53.76-25.02-14.41-54.39-23.32-86.21-19.99,21.12-16.15,35.74-32.87,59.18-28.5,19.42,3.62,34.91,15.86,49.36,27.48h0Z"/><path class="cls-8" d="m1096.15,207.36c37.7-17.05,77.71-31.58,117.08-34.46,39.37-2.88,78.14,7.65,95.23,33.22-18.12-10.82-46.31-6.56-71.61-.81-31.67,7.18-63.22,16.15-94.34,26.81-25.73,8.81-52.12,19.34-72.22,36.53,8.11-6.93-18.71-28.35-17.2-34.21,2.67-10.37,32.82-22.45,43.04-27.07h.01Z"/><path class="cls-8" d="m1063.75,207.22c22.14-25.92,46.69-50.96,74.18-67.65s58.43-23.84,78.17-12.43c-16.18-.77-35.23,12.72-51.75,26.14-20.69,16.81-40.76,34.82-60.04,53.84-15.94,15.73-31.86,32.89-41.3,52.35,3.81-7.85-21.72-12.74-22.33-17.37-1.09-8.2,17.07-27.86,23.07-34.89h0Z"/><polygon class="cls-7" points="1292.02 664.18 1292.02 103 1323.81 103 1323.81 660.21 1292.02 664.18"/><path class="cls-9" d="m1333.22,82.7c33.22,8.8,66.56,20.7,93.15,40.59,26.59,19.89,45.51,49.05,42.48,76.92-5.64-17.85-25.87-30.53-45.06-40.52-24.04-12.52-48.97-23.68-74.54-33.39-21.15-8.04-43.64-15.21-65.77-14.09,8.93-.45,3.52-30.75,7.66-34.11,7.34-5.93,33.06,2.21,42.07,4.59h.01Z"/><path class="cls-9" d="m1343.46,66.78c41.04-11.34,83.93-20.11,123.99-18.3,40.07,1.82,77.04,15.82,89.42,41.14-16.17-11.94-45.28-11.22-71.75-8.84-33.14,2.99-66.51,7.63-99.73,13.87-27.49,5.16-55.95,11.81-79.33,25.27,9.44-5.44-13.5-28.04-10.88-33.23,4.62-9.17,37.15-16.84,48.27-19.9h.01Z"/><path class="cls-9" d="m1328.85,44.69c31.15-23.29,64.87-44.81,100.2-55.73,35.33-10.92,72.64-9.67,93,9.68-18.54-5.89-43.44,3.91-65.39,14.42-27.5,13.16-54.57,27.88-80.92,44.04-21.79,13.36-43.86,28.39-58.92,48.09,6.09-7.95-22.37-21.5-22.1-27.08.49-9.87,25.68-27.11,34.12-33.42Z"/><path class="cls-9" d="m1219.68,51.48c27.91,2.47,55.83,4.93,83.74,7.4,9.07.8,19.7,2.5,23.87,9.71,3.57,6.18.58,13.48-2.44,19.74-37.48-5.26-75.19-10.55-112.98-9.84-37.77.71-76.01,7.78-107.49,25.54,10.23-22.65,13.05-42.64,41.46-50.42,23.55-6.44,49.48-4.3,73.83-2.15h.01Z"/><path class="cls-9" d="m1215.01,95.72c29.26-6.3,58.53-12.59,87.79-18.87,9.52-2.05,20.91-3.63,27.49,2.73,5.65,5.47,4.95,14.22,3.91,21.87-39.92,6.35-80.1,12.78-118.38,25.62-38.28,12.85-74.98,32.62-101.3,61.69,3.07-27.48-.54-49.74,25.92-67.14,21.92-14.41,49.06-20.41,74.58-25.91h0Z"/><path class="cls-9" d="m1203.07,9.84c-12.65-9.65-25.39-19.35-39.41-26.79-26.82-14.23-56.87-19.48-86.28-24.5,44.19-10.21,93.02.29,136.15,20.56,30.39,14.28,147.53,71.09,97.89,112.57-37.68-23.58-72.83-54.75-108.35-81.84h0Z"/><polygon class="cls-7" points="1490.5 677.27 1490.5 180.06 1522.28 180.06 1522.28 673.75 1490.5 677.27"/><path class="cls-8" d="m1519.97,135.38c36.48-21.41,75.56-40.56,115.16-47.93,39.6-7.37,79.96-1.22,99.85,22.52-19.45-8.8-47.59-1.31-72.64,7.33-31.36,10.82-62.44,23.42-92.89,37.67-25.19,11.78-50.86,25.35-69.5,44.91,7.53-7.89-21.82-26.34-20.88-32.39,1.67-10.71,30.99-26.29,40.88-32.09h.01Z"/><path class="cls-8" d="m1515.61,165.01c37.45-.06,75.88,3.31,109.45,17.63,33.57,14.32,61.67,41.26,66.26,73.3-10.94-18.27-35.8-26.42-58.81-31.85-28.81-6.83-58.18-11.89-87.83-15.13-24.51-2.68-50.21-4-73.19,3.84,9.27-3.15-4.91-35.4-1.48-40.39,6.06-8.81,35.43-7.37,45.59-7.39h.01Z"/><path class="cls-8" d="m1497.35,130.44c18.91-37.38,40.98-74.39,69.03-102.25,28.05-27.86,63.12-45.3,90.22-37.31-19.66,3.72-38.54,25.33-54.39,46.14-19.86,26.05-38.64,53.37-56.16,81.68-14.48,23.41-28.52,48.51-34.1,74.51,2.25-10.5-29.85-9.01-31.97-14.39-3.75-9.51,12.25-38.24,17.37-48.38Z"/><path class="cls-8" d="m1450.59,186.16c22.88-9.12,45.76-18.22,68.64-27.33,7.44-2.97,16.6-5.42,24.1,2.27,6.42,6.6,8.47,17.58,9.89,27.2-31.89,9.64-63.98,19.36-92.53,37.06-28.55,17.69-53.65,43.99-67.2,81.46-5.67-34.5-15.41-62.19,1.74-85.08,14.22-18.96,35.39-27.62,55.35-35.56h0Z"/><path class="cls-8" d="m1436.79,140.21c28.74,9.41,57.46,18.81,86.19,28.22,9.34,3.05,20.06,7.53,22.39,16.98,1.99,8.1-3.27,15.99-8.25,22.65-38.02-14.93-76.28-29.93-116.32-37.9-40.05-7.95-82.4-8.55-120.69,5.02,17.29-24.28,26-47.13,58.21-49.65,26.69-2.09,53.42,6.47,78.48,14.68h0Z"/><path class="cls-8" d="m1465.76,77.56c18.6,18.68,37.19,37.35,55.8,56.03,6.04,6.06,12.29,14.07,7.58,24.99-4.04,9.36-14.31,16.33-23.46,22.07-22.82-27.4-45.82-54.95-75.43-75.41-29.61-20.46-66.51-33.63-109.96-30.28,32.59-21.14,56.61-43.28,86.8-36.49,25.02,5.64,42.45,22.81,58.68,39.09h-.01Z"/><polygon class="cls-7" points="1726.93 696.17 1726.93 308.59 1758.72 308.59 1758.72 693.42 1726.93 696.17"/><path class="cls-9" d="m1775.36,283.47c24.42,10.55,48.29,24.1,65.23,44.97,16.94,20.86,25.98,50.19,17.94,76.91-.83-17.59-14.24-31.08-27.34-41.91-16.42-13.56-33.82-25.89-52.01-36.85-15.05-9.06-31.34-17.39-49-17.66,7.13.12,8.99-29.48,12.93-32.46,6.97-5.28,25.61,4.19,32.24,7.04h.01Z"/><path class="cls-9" d="m1753.3,260.45c29.71-2.21,60.38-2.05,87.75,6.12,27.37,8.17,51.05,25.6,56.35,47.98-9.62-12.28-29.77-16.59-48.29-19.12-23.21-3.15-46.78-5.03-70.46-5.6-19.58-.48-40.04.09-57.86,6.95,7.19-2.78-5.72-24.74-3.25-28.47,4.34-6.59,27.73-7.27,35.8-7.87h-.03Z"/><path class="cls-9" d="m1735.24,253.21c25.31-17.11,52.92-32.22,82.54-37.26,29.62-5.04,61.64,1.48,80.22,22.36-16.21-8.13-36.96-2.62-55.16,3.97-22.78,8.24-45.09,18.01-66.71,29.21-17.87,9.26-35.9,20.02-47.65,36.13,4.75-6.5-20.41-23.16-20.51-28.29-.16-9.09,20.41-21.44,27.27-26.08v-.03Z"/><path class="cls-9" d="m1681.52,342.36c-10.31,5.2-20.69,10.45-29.68,17.9-17.19,14.22-28.42,35.65-39.33,56.66,3.07-40.66,22.79-74.45,48.48-98.67,18.09-17.07,89.14-81.94,108.23-20.89-26.85,18.16-58.75,30.38-87.7,45.01h0Z"/><path class="cls-9" d="m1686.43,257.42c24.17,4.67,48.36,9.33,72.54,13.99,7.86,1.51,16.94,4.2,19.47,13.11,2.16,7.63-1.63,16.21-5.29,23.55-32.15-8.61-64.52-17.26-97.89-18.7-33.37-1.44-68.15,4.71-98.67,24.12,12.6-26.58,18.26-50.39,44.51-57.99,21.75-6.3,44.24-2.14,65.33,1.92Z"/><path class="cls-9" d="m1670.81,235.68c-7.74-8.58-15.54-17.2-25.09-23.92-18.25-12.84-41.87-18.01-65-22.98,40.01-7.79,77.78,2.33,107.91,20.7,21.22,12.95,102.52,64.39,48.74,98.95-24.6-21.11-44.82-48.67-66.55-72.75h-.01Z"/><path class="cls-8" d="m1892.38,160.46c26.99-3.66,53.98-7.33,80.96-10.99,8.77-1.19,19.21-1.88,24.7,4.01,4.71,5.04,3.43,12.55,1.9,19.09-36.65,3.07-73.55,6.19-109.2,14.96-35.66,8.77-70.4,23.61-96.43,47.07,4.85-23.51,3.25-42.92,28.53-56.32,20.95-11.11,45.98-14.65,69.53-17.84h.01Z"/><path class="cls-8" d="m1859.46,109.69c29.32,8.07,58.63,16.15,87.95,24.22,9.53,2.62,20.54,6.51,23.58,15.05,2.6,7.33-2.03,14.55-6.48,20.69-38.98-12.94-78.22-25.95-118.69-32.52-40.47-6.59-82.68-6.44-119.76,6.48,15.36-22.3,22.3-43.18,54.16-45.98,26.4-2.33,53.66,5.02,79.25,12.07h0Z"/><path class="cls-8" d="m1917.08,61.37c20.67,20.83,41.36,41.67,62.03,62.51,6.71,6.77,13.83,15.56,10.07,26.29-3.23,9.2-13.02,15.38-21.81,20.4-25.8-30.15-51.79-60.49-83.84-84.18-32.05-23.68-70.84-40.59-114.74-41.22,31.18-18.61,53.55-39.02,84.9-29.25,25.98,8.08,45.34,27.27,63.38,45.46h0Z"/><polygon class="cls-11" points="634.34 677.27 634.34 222.22 660.49 222.22 660.49 674.04 634.34 677.27"/><path class="cls-9" d="m599.83,298.09c-8.19,4.13-16.42,8.3-23.42,14.49-13.37,11.85-21.5,30.41-29.37,48.65.48-36.17,14.95-65.36,34.76-85.72,13.96-14.33,68.92-68.72,87.61-13.23-21.08,14.87-46.6,24.21-69.59,35.81Z"/><path class="cls-9" d="m576.24,214.16c24.49,2.47,49,4.94,73.49,7.41,7.96.8,17.27,2.5,20.76,9.73,2.99,6.19.16,13.51-2.66,19.77-32.85-5.28-65.9-10.58-99.16-9.86-33.25.71-67.09,7.79-95.23,25.6,9.57-22.69,12.57-42.73,37.77-50.51,20.88-6.45,43.64-4.3,65.02-2.15h0Z"/><path class="cls-9" d="m598.19,175.19c17.1,15.47,34.2,30.95,51.3,46.42,5.55,5.03,11.58,11.54,9.69,19.47-1.63,6.79-8.37,11.34-14.45,15.02-21.69-22.37-43.52-44.89-69.31-62.5-25.77-17.61-55.99-30.23-88.62-30.81,21.56-13.67,36.43-28.71,60.54-21.4,19.96,6.06,35.94,20.31,50.86,33.8Z"/><path class="cls-9" d="m659.41,222.84c24.42,10.55,48.29,24.1,65.23,44.97,16.94,20.86,25.98,50.19,17.94,76.91-.83-17.59-14.24-31.08-27.34-41.91-16.42-13.56-33.82-25.89-52.01-36.85-15.05-9.06-31.34-17.39-49-17.66,7.13.12,8.99-29.48,12.93-32.46,6.97-5.28,25.61,4.19,32.24,7.04h.01Z"/><path class="cls-9" d="m659.61,206.56c31.5.96,63.73,4.9,91.57,18.19,27.83,13.27,50.73,37.32,53.72,65.15-8.69-16.09-29.37-23.78-48.58-29.12-24.04-6.67-48.61-11.83-73.47-15.44-20.54-2.98-42.12-4.81-61.67,1.35,7.89-2.49-3.15-30.73-.13-34.95,5.33-7.46,30-5.42,38.56-5.16h0Z"/><path class="cls-9" d="m636.94,185.83c28.43-17.69,59.16-33.31,91.16-38.61,32.02-5.29,65.63,1.28,83.71,22.65-16.62-8.29-39.21-2.54-59.17,4.29-25,8.56-49.61,18.68-73.61,30.27-19.84,9.58-39.96,20.72-53.85,37.31,5.61-6.69-19.84-23.71-19.51-28.99.58-9.33,23.56-22.11,31.26-26.91h.01Z"/><path class="cls-8" d="m639.77,57.94c24.35-3.69,48.7-7.4,73.03-11.09,7.92-1.21,17.37-1.73,22.71,5.7,4.58,6.37,3.85,15.57,2.83,23.58-33.18,2.69-66.56,5.41-98.5,15.13-31.93,9.73-62.69,26.97-85.01,55.1,3.05-28.81.46-52.77,22.69-68.53,18.41-13.06,41-16.66,62.24-19.89h.01Z"/><path class="cls-8" d="m678.88,11.92c20.7,13.36,41.39,26.71,62.09,40.07,6.73,4.33,14.21,10.15,13.66,18.73-.46,7.34-6.71,13.19-12.44,18.01-26.74-19.82-53.68-39.73-83.84-53.91-30.16-14.17-64.07-22.42-98.34-17.72,20.12-17.77,32.98-35.87,59.52-32.16,21.99,3.07,41.3,15.34,59.34,26.98h0Z"/><path class="cls-8" d="m747.17,56.29c34.53,8.19,69.38,19,97.91,36.49,28.53,17.49,49.9,42.71,48.75,66.37-7-15.32-28.56-26.53-48.84-35.43-25.41-11.15-51.63-21.17-78.4-29.98-22.14-7.27-45.6-13.84-68.1-13.35,9.08-.2,1.42-26.11,5.42-28.87,7.06-4.9,33.89,2.56,43.26,4.78h0Z"/><path class="cls-8" d="m739.08,26.71c33.91-23.71,70.24-45.84,107.1-57.82,36.86-11.98,74.44-12.34,93.02,5.42-18.13-4.88-44.31,5.58-67.61,16.62-29.17,13.81-58.07,29.12-86.38,45.77-23.42,13.77-47.29,29.16-64.57,48.75,6.97-7.91-20.38-19.76-19.52-25.14,1.53-9.52,28.78-27.16,37.97-33.6Z"/><path class="cls-8" d="m1082.99,228.25c34.53,8.17,69.21,19.71,97.01,40.27,27.81,20.56,47.8,51.55,45.02,82.08-6.07-19.23-27.21-32.19-47.21-42.26-25.06-12.62-51.02-23.73-77.63-33.22-22.01-7.85-45.4-14.7-68.29-12.53,9.24-.87,3.24-33.7,7.48-37.54,7.51-6.79,34.27.99,43.64,3.2h-.01Z"/><path class="cls-9" d="m1087.1,152.35c-10.31,5.2-20.69,10.45-29.68,17.9-17.19,14.22-28.42,35.65-39.33,56.66,3.07-40.66,22.79-74.45,48.48-98.67,18.09-17.07,89.14-81.94,108.23-20.89-26.85,18.16-58.75,30.38-87.7,45.01Z"/><path class="cls-9" d="m1068.59,94.33c-11.1-3.2-22.27-6.41-33.91-7.08-22.27-1.28-45.06,6.79-67.33,14.77,29.88-27.72,67.32-39.06,102.59-39.34,24.86-.19,121.04.63,93.54,58.37-32.02-4.97-63.72-17.72-94.88-26.71h-.01Z"/><path class="cls-9" d="m1071.86,50.75c-6.13-9.8-12.32-19.66-20.54-27.91-15.73-15.82-38.09-25.03-60.01-33.95,40.75-.71,76.2,15.83,102.65,39.18,18.65,16.46,89.76,81.27,30.78,105.93-20.54-25.08-35.66-55.74-52.88-83.25Z"/><path class="cls-9" d="m1150.44,81.82c24.42,10.55,48.29,24.1,65.23,44.97,16.94,20.86,25.98,50.19,17.94,76.91-.83-17.59-14.24-31.08-27.34-41.91-16.42-13.56-33.82-25.89-52.01-36.85-15.05-9.06-31.34-17.39-49-17.66,7.13.12,8.99-29.48,12.93-32.46,6.97-5.28,25.61,4.19,32.24,7.04h.01Z"/><path class="cls-9" d="m1105.27,61.45c18.17-19.44,38.98-37.35,64.31-46.26,25.34-8.91,55.97-7.52,78.39,9.06-16.82-5.15-34.04,2.91-48.65,11.6-18.3,10.89-35.78,23.12-52.23,36.55-13.61,11.11-26.93,23.64-33.17,40.18,2.51-6.67-24.7-18.42-26.16-23.14-2.61-8.36,12.58-22.72,17.51-27.99Z"/><path class="cls-9" d="m1621.13,77.46c24.42,10.55,48.29,24.1,65.23,44.97,16.94,20.86,25.98,50.19,17.94,76.91-.83-17.59-14.24-31.08-27.34-41.91-16.42-13.56-33.82-25.89-52.01-36.85-15.05-9.06-31.34-17.39-49-17.66,7.13.12,8.99-29.48,12.93-32.46,6.97-5.28,25.61,4.19,32.24,7.04h.01Z"/><path class="cls-9" d="m1609.46,64.99c29.07-6.51,59.43-10.83,87.7-6.73,28.27,4.1,54.23,17.88,62.73,39.25-11.3-10.76-31.86-12.08-50.56-11.88-23.42.26-47.01,1.85-70.53,4.72-19.45,2.38-39.6,5.92-56.24,15.31,6.71-3.79-9.25-23.65-7.37-27.7,3.34-7.15,26.38-11.22,34.27-13h-.01Z"/><path class="cls-9" d="m1595.52,56.76c19.77-23.29,42.32-45.27,69.5-58.09,27.17-12.82,59.77-15.15,83.27-.04-17.81-3.46-36.3,7.41-52.07,18.65-19.73,14.07-38.6,29.48-56.41,46.07-14.73,13.72-29.19,28.95-36.19,47.61,2.83-7.53-25.89-16.82-27.36-21.73-2.6-8.71,13.89-26.14,19.26-32.46h-.01Z"/><path class="cls-9" d="m1551.98,143.62c-10.31,5.2-20.69,10.45-29.68,17.9-17.19,14.22-28.42,35.65-39.33,56.66,3.07-40.66,22.79-74.45,48.48-98.67,18.09-17.07,89.14-81.94,108.23-20.89-26.85,18.16-58.75,30.38-87.7,45.01Z"/><path class="cls-9" d="m1550.29,55.97c24.17,4.67,48.36,9.33,72.54,13.99,7.86,1.51,16.94,4.2,19.47,13.11,2.16,7.63-1.63,16.21-5.29,23.55-32.15-8.61-64.52-17.26-97.89-18.7-33.37-1.44-68.15,4.71-98.67,24.12,12.6-26.58,18.26-50.39,44.51-57.99,21.75-6.3,44.24-2.14,65.33,1.92Z"/><path class="cls-9" d="m1543.3,40.33c-7.74-8.58-15.54-17.2-25.09-23.92-18.25-12.84-41.87-18.01-65-22.99,40.01-7.79,77.78,2.33,107.91,20.7,21.22,12.95,102.52,64.39,48.74,98.95-24.6-21.11-44.82-48.67-66.55-72.75h-.01Z"/><path class="cls-9" d="m248.85,69.12c24.42,10.55,48.29,24.1,65.23,44.97,16.94,20.86,25.98,50.19,17.94,76.91-.83-17.59-14.24-31.08-27.34-41.91-16.42-13.56-33.82-25.89-52.01-36.85-15.05-9.06-31.34-17.39-49-17.66,7.13.12,8.99-29.48,12.93-32.46,6.97-5.28,25.61,4.19,32.24,7.04h.01Z"/><path class="cls-9" d="m244.59,50.42c31.54.96,63.8,4.91,91.68,18.19,27.88,13.27,50.79,37.33,53.78,65.15-8.7-16.09-29.42-23.78-48.64-29.12-24.07-6.67-48.67-11.83-73.55-15.44-20.57-2.98-42.17-4.81-61.74,1.35,7.9-2.49-3.15-30.73-.13-34.95,5.35-7.46,30.04-5.42,38.6-5.16h0Z"/><path class="cls-9" d="m207.36,54.2c18.91-18.71,40.42-35.78,66.09-43.7,25.67-7.91,56.22-5.31,77.98,12.14-16.62-5.82-34.12,1.57-49.07,9.68-18.73,10.16-36.65,21.69-53.62,34.47-14.03,10.57-27.83,22.56-34.72,38.85,2.77-6.57-23.96-19.38-25.23-24.15-2.28-8.45,13.47-22.2,18.6-27.29h-.01Z"/><path class="cls-9" d="m146.29,139.64c-10.31,5.2-20.69,10.45-29.68,17.9-17.19,14.22-28.42,35.65-39.33,56.66,3.07-40.66,22.79-74.45,48.48-98.67,18.09-17.07,89.14-81.94,108.23-20.89-26.85,18.16-58.75,30.38-87.7,45.01Z"/><path class="cls-9" d="m154.95,45.48c24.01,4.17,48.04,8.33,72.06,12.5,7.8,1.35,16.85,3.84,19.54,12.52,2.3,7.44-1.28,15.89-4.75,23.13-31.99-7.91-64.2-15.83-97.23-16.7-33.05-.87-67.32,5.73-97.13,25.22,11.91-26.21,17.03-49.62,42.84-57.48,21.38-6.51,43.73-2.82,64.68.81h0Z"/><path class="cls-9" d="m151.73,33.66c-9.2-7.01-18.44-14.04-29.05-18.89C102.39,5.51,78.21,4.77,54.56,4.14c37.89-15.02,76.88-12.04,109.87.49,23.24,8.82,112.6,44.41,66.09,88.29-28.05-16.22-53-39.6-78.8-59.26h.01Z"/><path class="cls-2" d="m-49.91,631.92c.87-21.02,12.81-49.1,33.4-53.15,7.28-1.44,8.69,1.5,33.4,6.08,29.46,5.45,33.97,2.49,44.53,7.59,15.65,7.57,21.24,21.59,25.98,33.41,5.42,13.54,13.87,34.69,1.86,53.15-15.52,23.83-60.03,35.27-94.62,22.78-45.81-16.56-44.76-64.43-44.54-69.86Z"/><path class="cls-12" d="m849.78,614.2c.54-14.06,7.9-32.84,20.6-35.55,4.49-.96,5.36,1,20.6,4.06,18.17,3.65,20.96,1.66,27.47,5.07,9.65,5.06,13.1,14.44,16.02,22.35,3.34,9.06,8.56,23.2,1.15,35.55-9.57,15.95-37.03,23.6-58.37,15.24-28.26-11.06-27.62-43.09-27.47-46.73h0Z"/><path class="cls-5" d="m597.13,822.42h-46.48v-98.32h26.55v74.69h19.93v23.62Z"/><path class="cls-5" d="m605.02,822.42v-98.32h49.35v23.12h-22.8v14.33h20.44v22.22h-20.44v15.03h22.8v23.62h-49.35Z"/><path class="cls-5" d="m708.44,822.42h-27.06l-22.54-98.32h27.89l4.84,28.08c1.82,10.74,3.29,22.75,4.39,36.04.47-5.9,1.04-11.42,1.72-16.56.68-5.14,1.49-10.15,2.42-15.03l6.3-32.54h28.85l-26.81,98.32Z"/><path class="cls-5" d="m742.12,822.42v-98.32h49.35v23.12h-22.8v14.33h20.44v22.22h-20.44v15.03h22.8v23.62h-49.35Z"/><path class="cls-5" d="m849.29,822.42h-46.48v-98.32h26.55v74.69h19.93v23.62Z"/><path class="cls-5" d="m951.69,792.17l-1.53,28.4c-5.9,2.38-11.19,3.57-15.86,3.57-10.99,0-20.25-4.03-27.76-12.1-8.41-9.04-12.61-21.84-12.61-38.4,0-15.49,3.95-27.93,11.84-37.32,7.9-9.34,18.45-14.01,31.65-14.01,4.29,0,8.66.81,13.12,2.42v28.08c-3.95-3.95-8-5.92-12.16-5.92-5.44,0-9.68,2.31-12.74,6.94-3.06,4.67-4.58,11.12-4.58,19.36,0,3.99.38,7.56,1.15,10.7.76,3.14,1.86,5.79,3.28,7.96,1.42,2.17,3.17,3.82,5.25,4.97s4.46,1.72,7.13,1.72c4.58,0,9.19-2.12,13.82-6.37Z"/><path class="cls-5" d="m1034.34,773.58c0,14.99-3.42,27.17-10.25,36.55-6.79,9.34-15.64,14.01-26.55,14.01-9.68,0-17.98-3.59-24.9-10.76-8.7-9.08-13.05-22.71-13.05-40.88s4.54-30.71,13.63-39.93c6.75-6.83,14.75-10.25,24.01-10.25,11.33,0,20.36,4.63,27.06,13.88,6.71,9.25,10.06,21.71,10.06,37.38Zm-27.57.19c0-17.79-3.14-26.68-9.42-26.68-3.14,0-5.65,2.33-7.51,7-1.83,4.33-2.74,10.7-2.74,19.1s.86,14.7,2.58,19.26c1.72,4.56,4.11,6.84,7.16,6.84s5.56-2.25,7.26-6.75c1.78-4.5,2.67-10.76,2.67-18.78Z"/><path class="cls-5" d="m1146.86,822.42h-27.76l-1.97-44.83-.83-17.89c-.3,3.44-.64,6.72-1.02,9.84-.38,3.12-.85,6.15-1.4,9.07l-8.34,43.81h-21.65l-7.13-43.87c-.42-2.55-1-6.92-1.72-13.12-.08-.93-.28-2.84-.57-5.73l-.64,18.15-2.36,44.57h-28.27l11.46-98.32h33.05l5.54,33.11c.47,2.72.88,5.67,1.24,8.85.36,3.18.69,6.64.99,10.38.55-6.24,1.32-11.82,2.29-16.75l6.75-35.6h32.79l9.55,98.32Z"/><path class="cls-5" d="m1185.19,822.42h-26.55v-98.32h25.73c12.82,0,22.33,2.61,28.53,7.83,7.3,6.16,10.95,14.71,10.95,25.66,0,11.93-3.88,20.82-11.65,26.68-5.31,3.95-12.93,5.92-22.86,5.92h-4.14v32.22Zm0-54.32l1.21.06c3.23,0,5.79-.99,7.71-2.96,1.91-1.97,2.87-4.68,2.87-8.12s-.93-6.16-2.8-8.28c-1.87-2.17-4.25-3.25-7.13-3.25h-1.85v22.54Z"/><path class="cls-5" d="m1279.63,822.42h-46.49v-98.32h26.55v74.69h19.93v23.62Z"/><path class="cls-5" d="m1287.52,822.42v-98.32h49.35v23.12h-22.8v14.33h20.44v22.22h-20.44v15.03h22.8v23.62h-49.35Z"/><path class="cls-5" d="m1382.53,822.42h-26.55v-74.76h-14.65v-23.56h56.42v23.56h-15.22v74.76Z"/><path class="cls-5" d="m1404.62,822.42v-98.32h49.35v23.12h-22.8v14.33h20.44v22.22h-20.44v15.03h22.8v23.62h-49.35Z"/></g></svg>