<?xml version="1.0" encoding="UTF-8"?><svg id="Layer_2" xmlns="http://www.w3.org/2000/svg" width="314" height="356" viewBox="0 0 314 356"><defs><style>.cls-1,.cls-2,.cls-3{fill:none;}.cls-2{stroke-width:3px;}.cls-2,.cls-4,.cls-5,.cls-3,.cls-6{stroke-miterlimit:10;}.cls-2,.cls-4,.cls-3,.cls-6{stroke:#000;}.cls-7{fill:#6a3500;}.cls-8{fill:#ff4b2e;}.cls-9{fill:#8800c9;}.cls-10{fill:#dfa474;}.cls-5{fill:#fff;stroke:#fff;}.cls-3,.cls-6{stroke-width:2px;}</style></defs><g id="Layer_1-2"><circle class="cls-7" cx="257" cy="231" r="25"/><circle class="cls-7" cx="213" cy="237" r="25"/><circle class="cls-7" cx="102" cy="237" r="25"/><circle class="cls-7" cx="71" cy="237" r="25"/><circle class="cls-7" cx="99" cy="197" r="25"/><circle class="cls-7" cx="236" cy="225" r="25"/><circle class="cls-7" cx="221" cy="203" r="25"/><ellipse class="cls-10" cx="218.2" cy="229.49" rx="8.2" ry="37" transform="translate(-95.63 187.22) rotate(-38.77)"/><ellipse class="cls-10" cx="94.37" cy="229.68" rx="37" ry="8.2" transform="translate(-143.79 159.41) rotate(-51.23)"/><ellipse class="cls-9" cx="138.5" cy="341" rx="11.5" ry="15"/><ellipse class="cls-9" cx="170.5" cy="341" rx="11.5" ry="15"/><ellipse class="cls-10" cx="170.5" cy="320.5" rx="10.5" ry="30.5"/><ellipse class="cls-10" cx="138.5" cy="320.5" rx="10.5" ry="30.5"/><polygon class="cls-8" points="111.95 183 108 302 207 302 201.24 188.87 111.95 183"/><circle class="cls-7" cx="65" cy="179" r="25"/><circle class="cls-7" cx="249" cy="172" r="25"/><path class="cls-10" d="m186.44,194.5h-58.38c-5.08,0-13.01-.6-22-3.95-2.87-1.07-13.26-5.17-22.59-14.52-16.81-16.85-18.26-38.77-18.47-44.59v-19.38c0-34.83,28.23-63.06,63.06-63.06h58.38c34.83,0,63.06,28.23,63.06,63.06v19.38c0,34.83-28.23,63.06-63.06,63.06Z"/><ellipse class="cls-4" cx="127.5" cy="131" rx="13" ry="11.5"/><ellipse class="cls-4" cx="177.5" cy="131" rx="13" ry="11.5"/><path class="cls-5" d="m138.03,131.6c.17-.71.35-1.45.17-2.16s-.8-1.37-1.63-1.41c-.6-.03-1.15.26-1.71.47-1.61.61-3.54.66-4.82,1.72-1.34,1.11-1.45,2.9-1.48,4.49-.01.95.05,2.06.93,2.6.57.35,1.33.35,2.03.34,1.31-.02,2.69-.05,3.84-.63,1.35-.67,2.15-2,2.43-3.32s.11-2.68-.06-4.01"/><path class="cls-5" d="m186.72,132.06c.24-.77.48-1.57.43-2.39s-.47-1.65-1.13-1.82c-.48-.12-.97.12-1.45.27-1.39.44-2.97.2-4.15,1.19-1.24,1.04-1.57,3.02-1.81,4.8-.14,1.06-.23,2.31.41,3.05.42.48,1.03.6,1.61.7,1.07.18,2.19.35,3.21-.12,1.19-.55,2.02-1.91,2.42-3.35s.45-2.99.49-4.51"/><ellipse class="cls-7" cx="58.5" cy="81.25" rx="25" ry="24.75"/><circle class="cls-7" cx="50" cy="114" r="25"/><circle class="cls-7" cx="50.5" cy="149.5" r="25.5"/><circle class="cls-7" cx="281" cy="158" r="25"/><circle class="cls-7" cx="90" cy="53" r="25"/><circle class="cls-7" cx="118" cy="43" r="25"/><ellipse class="cls-7" cx="152" cy="44" rx="26" ry="19"/><ellipse class="cls-7" cx="246" cy="73" rx="25" ry="27"/><circle class="cls-7" cx="216" cy="53" r="25"/><circle class="cls-7" cx="266" cy="133" r="25"/><ellipse class="cls-7" cx="259" cy="107" rx="23" ry="26"/><circle class="cls-7" cx="186" cy="45" r="25"/><circle class="cls-7" cx="289" cy="154" r="25"/><circle class="cls-7" cx="282" cy="129" r="25"/><circle class="cls-7" cx="271" cy="96" r="25"/><circle class="cls-7" cx="259" cy="67" r="25"/><circle class="cls-7" cx="232" cy="42" r="25"/><circle class="cls-7" cx="196" cy="31" r="25"/><circle class="cls-7" cx="161" cy="25" r="25"/><circle class="cls-7" cx="127" cy="25" r="25"/><circle class="cls-7" cx="93" cy="37" r="25"/><circle class="cls-7" cx="65" cy="56" r="25"/><circle class="cls-7" cx="44" cy="85" r="25"/><circle class="cls-7" cx="34" cy="121" r="25"/><circle class="cls-7" cx="30" cy="158" r="25"/><circle class="cls-7" cx="284" cy="183" r="25"/><circle class="cls-7" cx="69" cy="208" r="25"/><circle class="cls-7" cx="282" cy="206" r="25"/><circle class="cls-7" cx="25" cy="191" r="25"/><circle class="cls-7" cx="44" cy="218" r="25"/><circle class="cls-7" cx="257" cy="208" r="25"/><circle class="cls-7" cx="221" cy="63" r="25"/><path class="cls-6" d="m189.41,125.96l7.13-6.35"/><path class="cls-3" d="m186.45,123.44c2.3-2.6,4.02-5.7,5.02-9.03"/><path class="cls-3" d="m118.01,123.02c-2.66-2.25-4.95-4.95-6.75-7.94"/><path class="cls-3" d="m117.13,126.14c-4.9-1.37-9.27-4.66-12.13-9.14"/><path class="cls-1" d="m153.25,286.1c-.02-2.82-.78-5.64-2.17-8.1"/><ellipse class="cls-8" cx="199.5" cy="209" rx="14.5" ry="14"/><ellipse class="cls-8" cx="113.5" cy="209" rx="14.5" ry="14"/><path class="cls-2" d="m135.09,154c3.73,8.23,10.41,13.74,17.4,14.32s14.1-3.77,18.51-11.32"/></g></svg>