<?xml version="1.0" encoding="UTF-8"?><svg id="Layer_2" xmlns="http://www.w3.org/2000/svg" width="383.14" height="473.01" xmlns:xlink="http://www.w3.org/1999/xlink" viewBox="0 0 383.14 473.01"><defs><style>.cls-1{fill:#554300;}.cls-2{fill:url(#radial-gradient);}</style><radialGradient id="radial-gradient" cx="332.88" cy="236.51" fx="316.58" fy="236.51" r="207.86" gradientTransform="translate(-173.73) scale(1.1 1)" gradientUnits="userSpaceOnUse"><stop offset=".51" stop-color="#150d00"/><stop offset=".53" stop-color="#2d2403"/><stop offset=".6" stop-color="#63590b"/><stop offset=".66" stop-color="#928711"/><stop offset=".72" stop-color="#b8ac17"/><stop offset=".78" stop-color="#d5c81b"/><stop offset=".84" stop-color="#ebdd1e"/><stop offset=".9" stop-color="#f7e920"/><stop offset=".96" stop-color="#fcee21"/></radialGradient></defs><path class="cls-2" d="m264.25,222.33c15.4-19.77,30.92-39.75,39.72-61.38,17.23-42.38,7.45-87.43,2.47-131.34-.8-7.02-1.37-14.43,3.08-20.76,4.45-6.33,15.76-10.89,24.94-7.92,6.42,2.08,9.82,7.03,11.74,11.77,9.12,22.5-3.54,47.24,5.88,69.68,4.8,11.44,15.02,21.4,21.28,32.5,9.16,16.24,9.46,34.14,9.65,51.59.43,40.74.71,82.23-16.6,121.15-36.27,81.58-143.59,138.28-254.73,174.58-31.63,10.33-74.29,18.08-97.35-.18-57.09-45.18,72.48-80.72,106.99-101.02,63.03-37.06,104.18-88.93,142.93-138.68Z"/><path class="cls-1" d="m339.3,16.18c2.61.31,4.3,3.21,4.26,5.87s-1.36,5.11-2.64,7.44c-3.44,6.26-8.11,13.33-15.2,13.56-9.1.3-14.15-12.68-9.22-20.42,4.93-7.74,15.53-9.88,24.42-7.92"/><path class="cls-1" d="m22.05,433.02c-1.4-3.19.98-6.9,4.32-8.59s7.35-1.86,11.19-1.93c10.34-.19,22.29.69,28.32,8.18,2.33,2.89,3.42,6.42,4.21,9.91,1.63,7.2,1.55,15.93-5.01,20.37-2.17,1.47-4.81,2.26-7.45,2.84-11.73,2.58-25.35.86-33.74-6.89-8.39-7.75-8.93-22.1.74-28.55"/></svg>