<?xml version="1.0" encoding="UTF-8"?><svg id="Layer_2" xmlns="http://www.w3.org/2000/svg" width="1577.1" height="772.9" xmlns:xlink="http://www.w3.org/1999/xlink" viewBox="0 0 1577.1 772.9"><defs><style>.cls-1,.cls-2,.cls-3{fill:none;}.cls-2{stroke-width:3px;}.cls-2,.cls-4,.cls-5,.cls-3,.cls-6{stroke-miterlimit:10;}.cls-2,.cls-4,.cls-3,.cls-6{stroke:#000;}.cls-7{fill:url(#linear-gradient);}.cls-8{fill:#008ddf;}.cls-9{fill:#6a3500;}.cls-10{fill:#ff4b2e;}.cls-11{fill:#ffe9a1;}.cls-12{fill:#744100;}.cls-13{fill:#8800c9;}.cls-14{fill:#dfa474;}.cls-15{fill:#109400;}.cls-16{fill:#0a7f00;}.cls-17{fill:#88de88;}.cls-18{fill:#8a4600;}.cls-19{fill:#277f00;}.cls-20{fill:#5f3300;}.cls-5{fill:#fff;stroke:#fff;}.cls-3,.cls-6{stroke-width:2px;}.cls-21{fill:url(#linear-gradient-8);}.cls-22{fill:url(#linear-gradient-3);}.cls-23{fill:url(#linear-gradient-4);}.cls-24{fill:url(#linear-gradient-2);}.cls-25{fill:url(#linear-gradient-6);}.cls-26{fill:url(#linear-gradient-7);}.cls-27{fill:url(#linear-gradient-5);}</style><linearGradient id="linear-gradient" x1="41.59" y1="322.63" x2="141.92" y2="322.63" gradientTransform="translate(0 807.74) scale(1 -1)" gradientUnits="userSpaceOnUse"><stop offset="0" stop-color="#fff"/><stop offset="1" stop-color="#000"/></linearGradient><linearGradient id="linear-gradient-2" x1="662.79" y1="337.31" x2="724.69" y2="337.31" gradientTransform="translate(0 807.74) scale(1 -1)" gradientUnits="userSpaceOnUse"><stop offset="0" stop-color="#fff"/><stop offset=".8" stop-color="#090909"/><stop offset="1" stop-color="#000"/></linearGradient><linearGradient id="linear-gradient-3" x1="1261.74" y1="520.53" x2="1301.28" y2="520.53" gradientTransform="translate(0 807.74) scale(1 -1)" gradientUnits="userSpaceOnUse"><stop offset=".36" stop-color="#e27b2f"/><stop offset="1" stop-color="#ff0" stop-opacity=".97"/><stop offset="1" stop-color="#fce50b" stop-opacity=".76"/><stop offset="1" stop-color="#f8b123" stop-opacity=".36"/><stop offset="1" stop-color="#f59032" stop-opacity=".1"/><stop offset="1" stop-color="#f48438" stop-opacity="0"/></linearGradient><linearGradient id="linear-gradient-4" x1="1093.22" y1="601.78" x2="1132.76" y2="601.78" xlink:href="#linear-gradient-3"/><linearGradient id="linear-gradient-5" x1="791.29" y1="556.64" x2="830.83" y2="556.64" xlink:href="#linear-gradient-3"/><linearGradient id="linear-gradient-6" x1="508.42" y1="556.64" x2="547.96" y2="556.64" xlink:href="#linear-gradient-3"/><linearGradient id="linear-gradient-7" x1="119.22" y1="577.71" x2="158.76" y2="577.71" xlink:href="#linear-gradient-3"/><linearGradient id="linear-gradient-8" x1="951.78" y1="666.98" x2="991.32" y2="666.98" xlink:href="#linear-gradient-3"/></defs><g id="Layer_2-2"><g id="Layer_1-2"><path class="cls-17" d="m1574.75,531.82c0-2.11.98-3.58,2.35-4.42V0H0v567.23h1575.14c-.21-11.8-.38-23.61-.39-35.42Z"/><polygon class="cls-18" points="219.15 522.04 219.15 103.75 237.2 103.75 237.2 519.08 219.15 522.04"/><polygon class="cls-18" points="1172.08 522.04 1172.08 94.72 1190.14 94.72 1190.14 519.02 1172.08 522.04"/><polygon class="cls-18" points="568.22 497.97 568.22 93.72 586.28 93.72 586.28 495.11 568.22 497.97"/><polygon class="cls-12" points="841.22 491.95 841.22 104.35 863.17 104.35 863.17 489.21 841.22 491.95"/><path class="cls-8" d="m1282.48,771.74c21.33,0,42.66-.19,63.98-.57,37.41-.67,74.68-2,112.1-1.19,18.52.4,37.07.75,55.59-.07,6.84-.3,13.44.39,20.16.84.87-1.87,2.84-3.21,4.94-3.2,2.92.01,5.6,1.93,8.22,3.1,5.66-.67,11.27-1.95,16.99-2.19.22-9.05.41-18.11.41-27.17,0-37.59-.46-75.17-.21-112.77.02-3.07.01-6.15,0-9.22l-4.67,1.7-63.87-16.17-101.72,16.17-74.63-11.76s-75.62,3.99-78.71,14.02c-42.52-15.64-108.41-37.82-59.92-19.52,78.74,29.72,0,0-52.27,17.26,0,0-77.49-17.26-156.23.35-78.74,17.61,0,0-76.52-22.01-76.52-22.01,0,0-95.38,28.62-95.38,28.62,0,0-82.07-14.31,0,0-112.01,57.24-96.49,20.92,15.53-36.33,0,0-86.51-26.42-86.51-26.42,0,.01-100.93,25.32-100.93,25.31,0,0-93.16-14.31-93.16-14.31,0,0-82.07,23.12-82.07,23.12,0,0-56.56-31.92l-102.03-8.81L0,632.94v138.77c32.08,2.06,64.11-1.84,96.19-1.92.66,0,1.25.1,1.79.27.86-.82,2.06-1.35,3.6-1.35,15.66.03,31.29.81,46.95,1.02,14.59.2,29.09-1.61,43.66-1.49,2.6.02,5.42.03,8.25.22.67-.31,1.45-.48,2.35-.47,5.04.06,10.04.55,15.01,1.22,1.1-.64,2.47-.94,4.02-.67,13.97,2.46,28.17,2.43,42.34,2.19.89-1.05,2.22-1.82,3.95-2.02,10.36-1.2,20.68.07,31.01.88,3.61.28,7.22.54,10.83.78.48-.14,1.01-.22,1.58-.22,8.37-.02,16.76-.17,25.05,1.16.42.07.86.14,1.31.21.55-.51,1.2-.92,1.99-1.17,17.06-5.39,35.14-.42,52.54-.2,1.17-1.32,2.98-2.08,5.25-1.6.78.17,1.54.37,2.29.6,4.69,1,9.43.66,14.25.31,5.69-.41,11.38-.39,17.09-.59,9.78-.34,19.37-1,29.1-1.74,3.62-.28,6.68.22,9.02,1.59,6.47.08,12.91.86,19.35,1.71.87-.79,1.97-1.32,3.28-1.35,11.37-.32,22.64.99,33.93,2.12.73.01,1.46.02,2.19.03.84-.66,1.94-1.08,3.36-1.07,3.41.03,6.81.17,10.21.34.82-1.44,2.32-2.48,4.51-2.49,6.12-.02,12.54-.13,18.15,2.39.05-.01.1-.03.15-.04,9.27-1.66,18.47-1.16,27.82-.75,6.56.29,15.15-1.58,21.2,1.65.15-.01.29-.02.44-.02,17.3-.04,34.57-1.1,51.86-1.75,17-.63,33.79.1,50.77.55,7.35.19,17.18-1.08,24.9,1.41,1.97.26,3.94.56,5.9.91.9-1.22,2.31-2.09,4.17-2.18,18.11-.88,36.24.1,54.3,1.42,9.34.69,18.53,1.49,27.9.78,9.16-.69,18.42-1.83,27.5-3.19,6.21-.93,13.12-2.62,18.98.68.43.24.83.51,1.21.79.48-.13,1-.21,1.57-.21,34.89.01,69.78.57,104.67.96,62.07.7,124.12-.02,186.19-.9,30.39-.43,60.9-1.82,91.2,1.06,4.69.45,9.57.47,13.98,1.38.84-.71,1.96-1.17,3.38-1.17Z"/><path class="cls-11" d="m1575.72,524.19c-55.66-9.21-111.31-18.42-166.97-27.63-117.84-5.63-235.68-11.36-353.51-17.19-6.28-.31-36.32-1.79-42.59-2.11h-458.35l-438.7,20.78L1,515.11c-.31,13.16-.6,26.33-.58,39.49.01,12.86.86,25.71.91,38.56.05,13.26-1.01,26.48-1.29,39.73-.28,12.94.99,25.86.46,38.79,0,.09-.02.17-.02.25l36.43,19.29,42.97-4.69,24.83-9.59,19.36-19.31,100.16,29.85,90.5-24.02,199.26,27.76,135.06-7.89,87.42-25.69,119.28,10.71,103.71-22.69,120.08,13.53,129.03,2.9,35.03-12.18,141.29,9.28h190.41l1.71-.7c0-7.23.02-14.45.07-21.68.25-37.55-1.29-75.05-1.35-112.59Z"/><polygon class="cls-12" points="129.99 536.08 129.99 176.98 153.94 176.98 153.94 533.55 129.99 536.08"/><polygon class="cls-12" points="442.83 509 442.83 204.06 460.89 204.06 460.89 506.84 442.83 509"/><polygon class="cls-12" points="802.91 497.97 802.91 216.1 824.86 216.1 824.86 495.97 802.91 497.97"/><polygon class="cls-12" points="642.45 491.95 642.45 130.83 664.37 130.83 664.37 489.4 642.45 491.95"/><polygon class="cls-12" points="288.33 516.02 288.33 271.27 310.28 271.27 310.28 514.3 288.33 516.02"/><path class="cls-15" d="m477.99,190.48c25.86-.04,52.39,2.29,75.57,12.17,23.18,9.88,42.58,28.47,45.75,50.58-7.55-12.61-24.72-18.23-40.61-21.98-19.89-4.71-40.17-8.21-60.65-10.44-16.92-1.85-34.67-2.76-50.54,2.65,6.4-2.18-3.39-24.43-1.02-27.87,4.18-6.08,24.47-5.09,31.48-5.1h.01Z"/><path class="cls-15" d="m470.78,176.58c25.19-14.78,52.17-27.99,79.52-33.07,27.34-5.09,55.21-.84,68.94,15.54-13.43-6.07-32.86-.9-50.15,5.06-21.66,7.46-43.11,16.16-64.14,25.99-17.39,8.13-35.12,17.49-47.99,30.99,5.2-5.45-15.07-18.18-14.41-22.35,1.15-7.39,21.4-18.14,28.23-22.14h.01Z"/><path class="cls-15" d="m447.24,183.36c15.19-24.61,32.32-48.88,52.46-66.9,20.14-18.02,43.79-28.88,60.22-22.9-12.75,2.04-26.54,16.08-38.36,29.65-14.81,16.99-29.03,34.86-42.54,53.4-11.17,15.34-22.21,31.84-27.98,49.12,2.33-6.98-18.09-6.73-18.96-10.38-1.54-6.45,11.04-25.33,15.16-32.01h0Z"/><path class="cls-15" d="m153.35,155.91c21.26-12.48,44.4-23.02,69-24.72,24.61-1.7,51,6.79,65.99,26.44-13.28-8.45-30.55-5.57-45.73-1.52-19.01,5.07-37.66,11.48-55.75,19.19-14.97,6.37-30.07,14.04-40.09,26.85,4.04-5.18-16.48-21.78-16.46-26.21.03-7.84,17.28-16.65,23.04-20.03Z"/><path class="cls-15" d="m405.9,208.5c15.8-6.29,31.6-12.57,47.4-18.86,5.14-2.05,11.47-3.74,16.64,1.56,4.43,4.55,5.85,12.13,6.83,18.77-22.02,6.65-44.18,13.36-63.89,25.57-19.71,12.21-37.04,30.35-46.4,56.2-3.91-23.8-10.64-42.91,1.2-58.7,9.82-13.08,24.44-19.06,38.22-24.54h0Z"/><path class="cls-15" d="m395.54,175.19c16.88,2.01,33.76,4.01,50.66,6.01,5.49.65,11.86,2.17,13.88,9.31,1.74,6.12-.63,13.45-2.94,19.75-22.53-4.64-45.2-9.31-68.35-7.96-23.15,1.34-47.03,9.03-67.58,27.28,7.9-22.8,11.09-42.8,29.04-51.04,14.87-6.82,30.56-5.11,45.29-3.36h0Z"/><path class="cls-15" d="m758.73,215.43c16.6-3.67,33.2-7.33,49.8-11,5.4-1.19,11.88-2.04,15.81,2.4,3.37,3.8,3.2,9.69,2.79,14.85-22.71,3.5-45.56,7.04-67.17,14.96-21.61,7.91-42.12,20.54-56.47,39.64,1.06-18.49-1.55-33.59,13.16-44.81,12.19-9.3,27.59-12.81,42.07-16.01v-.02Z"/><path class="cls-15" d="m435.12,141.55c14.07,9.54,28.15,19.08,42.22,28.62,4.57,3.1,9.43,7.53,6.97,16.14-2.11,7.38-8.65,14.29-14.51,20.11-17.59-14.87-35.32-29.81-57.07-38.47-21.75-8.66-47.98-10.75-77.53.07,20.83-21.25,35.74-41.53,56.92-42.61,17.54-.9,30.71,7.8,43,16.13h0Z"/><path class="cls-15" d="m152.12,174.22c17.98,1.66,36.16,5.96,51.24,18.4,15.08,12.44,26.62,34.26,26.52,58.89-3.93-14.43-15.28-21.76-25.92-26.95-13.33-6.51-27.06-11.7-41.05-15.51-11.57-3.15-23.8-5.32-35.39-.38,4.67-2,.19-27.22,2.19-30.87,3.54-6.45,17.52-4.02,22.4-3.57h.01Z"/><path class="cls-15" d="m86.67,167.51c16.88,2.01,33.76,4.01,50.66,6.01,5.49.65,11.86,2.17,13.88,9.31,1.74,6.12-.63,13.45-2.94,19.75-22.53-4.64-45.2-9.31-68.35-7.96-23.15,1.34-47.03,9.03-67.58,27.28,7.9-22.8,11.09-42.8,29.04-51.04,14.87-6.82,30.56-5.11,45.29-3.36h0Z"/><path class="cls-15" d="m100.65,127.34c14.75,8.48,29.48,16.94,44.23,25.42,4.79,2.75,10.05,6.65,9.12,14-.8,6.3-5.86,12.12-10.46,17.01-18.9-13.12-37.92-26.3-59.73-34.17s-46.8-10.16-72.86-1.43c16.22-17.87,27.01-35.01,46.74-35.54,16.35-.43,30.11,7.3,42.97,14.7h0Z"/><path class="cls-15" d="m98.38,193.33c16.39-4.5,32.79-9.02,49.18-13.52,5.33-1.46,11.81-2.46,16.36,3.38,3.91,5.01,4.48,12.7,4.72,19.4-22.62,4.18-45.37,8.42-66.3,18.39-20.93,9.96-40.16,26.09-52.3,50.75-1.27-24.09-5.86-43.83,7.65-58.21,11.19-11.92,26.38-16.25,40.69-20.18h0Z"/><path class="cls-15" d="m138.26,142.07c16.43-18.38,34.71-35.96,55.41-47.08,20.7-11.11,44.28-14.83,59.64-5.13-12.42-1.46-26.72,7.69-39.1,16.93-15.5,11.58-30.5,24.08-44.88,37.41-11.89,11.01-23.72,23.12-30.54,37.3,2.76-5.73-16.91-10.81-17.48-14.34-1.01-6.26,12.49-20.12,16.94-25.11h.01Z"/><path class="cls-16" d="m257.97,305.3c-7.12,3.59-14.28,7.21-20.49,12.35-11.87,9.81-19.62,24.6-27.15,39.09,2.12-28.06,15.74-51.37,33.47-68.08,12.49-11.78,61.55-56.53,74.73-14.41-18.54,12.53-40.57,20.96-60.56,31.06Z"/><path class="cls-16" d="m255.69,238.5c16.3,4.85,32.59,9.7,48.89,14.55,5.3,1.57,11.36,4.04,12.48,10.33.96,5.4-2.23,11.01-5.24,15.81-21.51-8.1-43.15-16.25-65.98-19.52-22.83-3.27-47.15-1.41-69.44,9.83,10.46-17.38,15.98-33.35,34.54-36.77,15.38-2.84,30.54,1.54,44.76,5.78h0Z"/><path class="cls-16" d="m255.49,233.17c-6.35-4.83-12.73-9.69-20.06-13.03-14.01-6.39-30.7-6.9-47.03-7.33,26.16-10.36,53.08-8.31,75.86.34,16.05,6.09,77.75,30.64,45.63,60.92-19.37-11.19-36.59-27.32-54.41-40.89h.01Z"/><path class="cls-16" d="m314.12,262.87c16.86,7.28,33.34,16.63,45.04,31.03,11.7,14.39,17.94,34.63,12.39,53.06-.57-12.14-9.83-21.45-18.88-28.92-11.33-9.36-23.35-17.87-35.91-25.43-10.39-6.25-21.64-12-33.83-12.19,4.93.08,6.21-20.34,8.93-22.4,4.81-3.64,17.68,2.89,22.26,4.85h.01Z"/><path class="cls-16" d="m316.01,248.85c18.36.55,37.12,3.17,53.3,12.23,16.18,9.06,29.44,25.58,31.09,44.75-5.02-11.07-17.04-16.31-28.22-19.92-13.99-4.52-28.3-7.99-42.76-10.39-11.97-1.99-24.54-3.17-35.94,1.14,4.6-1.75-1.74-21.2.04-24.11,3.14-5.17,17.5-3.84,22.49-3.69h0Z"/><path class="cls-16" d="m303.61,238.43c13.06-12.91,27.91-24.69,45.63-30.15,17.72-5.46,38.82-3.66,53.85,8.38-11.48-4.01-23.56,1.08-33.88,6.68-12.93,7.01-25.31,14.97-37.02,23.78-9.69,7.29-19.22,15.57-23.97,26.8,1.92-4.53-16.54-13.37-17.42-16.66-1.57-5.83,9.3-15.32,12.84-18.83h0Z"/><path class="cls-16" d="m603.13,164.43c-7.54,3.8-15.13,7.64-21.82,12.85-12.79,9.96-21.62,24.41-30.19,38.55,3.76-26.69,19.13-49.53,38.35-66.36,13.54-11.86,66.64-57.02,77.84-17.87-19.81,12.91-43,22.15-64.18,32.83Z"/><path class="cls-16" d="m601.58,103.84c16.91,1.71,33.83,3.41,50.75,5.12,5.5.55,11.93,1.73,14.33,6.71,2.07,4.27.11,9.31-1.84,13.63-22.68-3.64-45.5-7.29-68.47-6.8-22.96.49-46.31,5.38-65.75,17.64,6.61-15.65,8.68-29.46,26.08-34.83,14.41-4.44,30.13-2.97,44.9-1.47Z"/><path class="cls-16" d="m600.51,73.94c17.22,8.82,34.45,17.62,51.68,26.44,5.6,2.86,11.9,6.82,12.15,13.54.21,5.77-4.2,10.79-8.29,15-22.46-13.38-45.08-26.83-69.77-35.56s-51.83-12.54-78.23-6.24c14.3-15.39,22.92-30.49,43.96-29.64,17.42.7,33.47,8.77,48.5,16.46Z"/><path class="cls-16" d="m673.62,121.07c16.86,7.28,33.34,16.63,45.04,31.03,11.7,14.39,17.94,34.63,12.39,53.06-.57-12.14-9.83-21.45-18.88-28.92-11.33-9.36-23.35-17.87-35.91-25.43-10.39-6.25-21.64-12-33.83-12.19,4.93.08,6.21-20.34,8.93-22.4,4.81-3.64,17.68,2.89,22.26,4.85h0Z"/><path class="cls-16" d="m680.68,101.15c21.75.66,44.01,3.38,63.22,12.55,19.22,9.16,35.03,25.75,37.09,44.95-6-11.1-20.28-16.41-33.54-20.09-16.6-4.6-33.56-8.17-50.73-10.65-14.18-2.06-29.08-3.32-42.58.93,5.45-1.72-2.18-21.21-.09-24.11,3.68-5.15,20.71-3.74,26.62-3.56h0Z"/><path class="cls-16" d="m648.42,87.59c19.63-12.21,40.85-22.98,62.94-26.64,22.11-3.65,45.32.88,57.8,15.63-11.48-5.72-27.07-1.76-40.86,2.96-17.26,5.91-34.26,12.89-50.83,20.88-13.7,6.61-27.6,14.29-37.18,25.74,3.87-4.61-13.7-16.36-13.47-20,.4-6.44,16.27-15.26,21.59-18.57h0Z"/><path class="cls-15" d="m761.12,187.93c16.4,4.48,32.8,8.96,49.2,13.44,5.33,1.45,11.47,3.72,12.88,9.48,1.21,4.94-1.69,10.07-4.44,14.43-21.73-7.47-43.59-14.98-66.4-18.03-22.81-3.05-46.84-1.42-68.43,8.8,9.55-15.87,14.26-30.45,32.5-33.53,15.12-2.56,30.37,1.49,44.69,5.41h.01Z"/><path class="cls-15" d="m782.69,167.83c11.44,9.19,22.88,18.38,34.32,27.56,3.72,2.99,7.74,6.95,6.43,12.54-1.12,4.78-5.69,8.46-9.81,11.49-14.49-13.54-29.09-27.16-46.36-37.09s-37.56-16.09-59.52-13.79c14.58-11.14,24.68-22.68,40.87-19.66,13.41,2.5,24.1,10.94,34.09,18.96h0Z"/><path class="cls-15" d="m832.93,184.78c26.03-11.77,53.66-21.79,80.84-23.77,27.18-1.99,53.96,5.28,65.75,22.92-12.51-7.46-31.98-4.52-49.44-.56-21.87,4.96-43.65,11.14-65.14,18.5-17.76,6.08-35.99,13.34-49.86,25.21,5.6-4.78-12.92-19.56-11.88-23.6,1.85-7.15,22.66-15.49,29.72-18.68h.01Z"/><path class="cls-15" d="m810.56,184.68c15.29-17.89,32.24-35.16,51.22-46.67,18.98-11.52,40.34-16.45,53.98-8.58-11.17-.53-24.32,8.78-35.73,18.04-14.28,11.6-28.15,24.02-41.46,37.14-11,10.85-22,22.69-28.52,36.12,2.63-5.42-15-8.79-15.42-11.99-.75-5.66,11.79-19.22,15.93-24.07h0Z"/><polygon class="cls-12" points="968.17 499.97 968.17 112.78 990.12 112.78 990.12 497.23 968.17 499.97"/><path class="cls-16" d="m996.62,98.77c22.94,6.07,45.96,14.28,64.32,28.01,18.36,13.72,31.43,33.84,29.33,53.07-3.89-12.32-17.87-21.06-31.12-27.96-16.6-8.64-33.81-16.34-51.47-23.04-14.61-5.55-30.13-10.49-45.41-9.72,6.17-.31,2.43-21.22,5.29-23.53,5.07-4.09,22.83,1.52,29.05,3.17h.01Z"/><path class="cls-16" d="m1003.69,87.78c28.34-7.82,57.95-13.87,85.61-12.63,27.67,1.25,53.19,10.91,61.74,28.39-11.16-8.24-31.27-7.74-49.54-6.1-22.88,2.07-45.92,5.27-68.86,9.57-18.98,3.56-38.63,8.15-54.78,17.43,6.52-3.75-9.32-19.35-7.51-22.93,3.19-6.33,25.65-11.62,33.33-13.73h.01Z"/><path class="cls-16" d="m993.6,72.56c21.51-16.07,44.79-30.92,69.18-38.45,24.4-7.53,50.15-6.67,64.22,6.68-12.8-4.06-29.99,2.7-45.15,9.95-18.99,9.08-37.68,19.24-55.87,30.38-15.05,9.22-30.28,19.59-40.69,33.18,4.2-5.49-15.45-14.84-15.26-18.69.34-6.81,17.73-18.71,23.56-23.06Z"/><path class="cls-16" d="m918.22,77.23c19.27,1.71,38.55,3.4,57.82,5.11,6.26.55,13.6,1.73,16.48,6.7,2.47,4.26.4,9.3-1.69,13.62-25.88-3.63-51.92-7.28-78.01-6.79-26.08.49-52.48,5.37-74.22,17.62,7.06-15.63,9.01-29.42,28.63-34.79,16.26-4.44,34.17-2.97,50.98-1.48h.01Z"/><path class="cls-16" d="m915,107.75c20.2-4.34,40.41-8.69,60.62-13.02,6.57-1.41,14.43-2.51,18.98,1.89,3.9,3.77,3.42,9.81,2.7,15.09-27.56,4.38-55.31,8.82-81.74,17.67-26.43,8.87-51.77,22.51-69.95,42.56,2.12-18.96-.37-34.32,17.9-46.32,15.14-9.94,33.87-14.08,51.5-17.88h0Z"/><path class="cls-16" d="m906.75,48.5c-8.74-6.66-17.53-13.35-27.21-18.49-18.52-9.82-39.27-13.44-59.57-16.9,30.51-7.04,64.23.2,94.01,14.18,20.98,9.85,101.86,49.05,67.59,77.67-26.02-16.27-50.29-37.78-74.81-56.46Z"/><polygon class="cls-12" points="1105.22 509 1105.22 165.94 1127.16 165.94 1127.16 506.57 1105.22 509"/><path class="cls-15" d="m1125.57,135.13c25.19-14.78,52.17-27.99,79.52-33.07s55.21-.84,68.94,15.54c-13.43-6.07-32.86-.9-50.15,5.06-21.66,7.46-43.11,16.16-64.14,25.99-17.39,8.13-35.12,17.49-47.99,30.99,5.2-5.45-15.07-18.18-14.41-22.35,1.15-7.39,21.4-18.14,28.23-22.14h0Z"/><path class="cls-15" d="m1122.56,155.56c25.86-.04,52.39,2.29,75.57,12.17,23.18,9.88,42.58,28.47,45.75,50.58-7.55-12.61-24.72-18.23-40.61-21.98-19.89-4.71-40.17-8.21-60.65-10.44-16.92-1.85-34.67-2.76-50.54,2.65,6.4-2.18-3.39-24.43-1.02-27.87,4.18-6.08,24.47-5.09,31.48-5.1h.01Z"/><path class="cls-15" d="m1109.95,131.71c13.06-25.79,28.3-51.33,47.67-70.55,19.37-19.22,43.58-31.26,62.29-25.74-13.57,2.57-26.61,17.47-37.56,31.84-13.71,17.98-26.68,36.82-38.78,56.35-10,16.15-19.69,33.47-23.54,51.41,1.55-7.24-20.61-6.22-22.08-9.93-2.59-6.56,8.46-26.38,12-33.38Z"/><path class="cls-15" d="m1077.66,170.17c15.8-6.29,31.6-12.57,47.4-18.86,5.14-2.05,11.47-3.74,16.64,1.56,4.43,4.55,5.85,12.13,6.83,18.77-22.02,6.65-44.18,13.36-63.89,25.57-19.71,12.21-37.04,30.35-46.4,56.2-3.91-23.8-10.64-42.91,1.2-58.7,9.82-13.08,24.44-19.06,38.22-24.54h0Z"/><path class="cls-15" d="m1068.13,138.46c19.84,6.49,39.67,12.98,59.51,19.47,6.45,2.11,13.85,5.2,15.46,11.72,1.37,5.59-2.26,11.03-5.7,15.63-26.25-10.3-52.67-20.65-80.32-26.15-27.65-5.5-56.9-5.9-83.34,3.46,11.94-16.75,17.96-32.52,40.19-34.26,18.43-1.44,36.88,4.46,54.19,10.13Z"/><path class="cls-15" d="m1088.13,95.23c12.84,12.89,25.68,25.77,38.53,38.66,4.17,4.18,8.49,9.71,5.24,17.24-2.79,6.46-9.88,11.26-16.2,15.23-15.76-18.91-31.64-37.92-52.08-52.03-20.44-14.11-45.92-23.2-75.92-20.89,22.5-14.58,39.09-29.86,59.93-25.18,17.27,3.89,29.31,15.74,40.51,26.97h0Z"/><polygon class="cls-12" points="1268.47 522.04 1268.47 254.63 1290.42 254.63 1290.42 520.16 1268.47 522.04"/><path class="cls-16" d="m1301.91,237.29c16.86,7.28,33.34,16.63,45.04,31.03,11.7,14.39,17.94,34.63,12.39,53.06-.57-12.14-9.83-21.45-18.88-28.92-11.33-9.36-23.35-17.87-35.91-25.43-10.39-6.25-21.64-12-33.83-12.19,4.93.08,6.21-20.34,8.93-22.4,4.81-3.64,17.68,2.89,22.26,4.85h.01Z"/><path class="cls-16" d="m1286.68,221.42c20.51-1.52,41.69-1.41,60.59,4.22,18.9,5.64,35.25,17.66,38.91,33.1-6.64-8.48-20.55-11.45-33.34-13.19-16.03-2.18-32.3-3.47-48.65-3.86-13.52-.33-27.65.06-39.95,4.79,4.97-1.92-3.95-17.07-2.25-19.64,3-4.54,19.15-5.02,24.72-5.43h-.02Z"/><path class="cls-16" d="m1274.21,216.42c17.47-11.81,36.54-22.23,57-25.71,20.45-3.48,42.56,1.02,55.39,15.43-11.19-5.61-25.52-1.81-38.09,2.74-15.73,5.69-31.14,12.43-46.06,20.15-12.34,6.39-24.79,13.81-32.9,24.93,3.28-4.48-14.09-15.98-14.16-19.52-.11-6.27,14.09-14.8,18.83-18v-.02Z"/><path class="cls-16" d="m1237.11,277.93c-7.12,3.59-14.28,7.21-20.49,12.35-11.87,9.81-19.62,24.6-27.15,39.09,2.12-28.06,15.74-51.37,33.47-68.08,12.49-11.78,61.55-56.53,74.73-14.41-18.54,12.53-40.56,20.96-60.56,31.06Z"/><path class="cls-16" d="m1240.5,219.33c16.69,3.22,33.39,6.44,50.08,9.65,5.43,1.04,11.7,2.9,13.44,9.05,1.49,5.27-1.12,11.18-3.65,16.25-22.2-5.94-44.55-11.91-67.59-12.9-23.04-.99-47.06,3.25-68.13,16.64,8.7-18.34,12.61-34.77,30.73-40.01,15.02-4.34,30.54-1.47,45.11,1.32Z"/><path class="cls-16" d="m1229.72,204.32c-5.35-5.92-10.73-11.87-17.32-16.5-12.6-8.86-28.91-12.43-44.88-15.86,27.63-5.38,53.71,1.6,74.51,14.28,14.66,8.94,70.79,44.43,33.65,68.27-16.98-14.56-30.95-33.58-45.95-50.19h-.01Z"/><polygon class="cls-12" points="1421.75 541.1 1421.75 155.91 1443.7 155.91 1443.7 538.38 1421.75 541.1"/><path class="cls-15" d="m1382.71,152.42c18.64-2.53,37.27-5.06,55.9-7.58,6.06-.82,13.26-1.29,17.05,2.77,3.25,3.48,2.37,8.66,1.31,13.17-25.31,2.12-50.79,4.27-75.4,10.32-24.63,6.05-48.61,16.29-66.59,32.48,3.35-16.22,2.25-29.61,19.7-38.86,14.46-7.66,31.75-10.11,48.01-12.31h.01Z"/><path class="cls-15" d="m1359.98,117.4c20.24,5.57,40.48,11.14,60.73,16.71,6.58,1.81,14.18,4.49,16.28,10.38,1.8,5.06-1.4,10.04-4.47,14.27-26.91-8.93-54.01-17.91-81.95-22.44-27.95-4.54-57.09-4.44-82.69,4.47,10.6-15.39,15.4-29.79,37.4-31.73,18.23-1.6,37.05,3.46,54.72,8.33h0Z"/><path class="cls-15" d="m1399.76,84.06c14.27,14.37,28.56,28.75,42.83,43.13,4.63,4.67,9.55,10.73,6.95,18.14-2.23,6.35-8.99,10.61-15.06,14.07-17.81-20.8-35.76-41.74-57.89-58.08-22.13-16.34-48.91-28.01-79.22-28.44,21.53-12.84,36.97-26.92,58.62-20.18,17.94,5.58,31.31,18.82,43.76,31.37h0Z"/><path class="cls-15" d="m1445.08,133.86c17.98,1.66,36.2,5.59,51.43,16.41,15.23,10.82,27.05,29.61,27.3,50.65-4.12-12.38-15.56-18.79-26.26-23.37-13.4-5.74-27.18-10.36-41.21-13.8-11.6-2.85-23.84-4.88-35.35-.81,4.64-1.64-.19-23.24,1.77-26.32,3.44-5.46,17.45-3.19,22.33-2.74h-.01Z"/><path class="cls-15" d="m1437.81,119.01c21.27-12.48,44.11-23.51,67.46-27.34,23.35-3.83,47.39.63,59.59,15.5-11.69-5.72-28.25-1.63-42.94,3.23-18.42,6.08-36.61,13.25-54.43,21.45-14.73,6.77-29.72,14.64-40.43,26.28,4.32-4.7-13.39-16.49-12.94-20.18.8-6.52,17.93-15.55,23.69-18.93h0Z"/><path class="cls-15" d="m1429.77,108.42c10.23-22.43,22.48-44.64,38.95-61.39,16.48-16.75,37.89-27.29,55.43-22.59-12.29,2.29-23.24,15.28-32.31,27.78-11.36,15.66-21.99,32.06-31.76,49.04-8.07,14.04-15.79,29.12-18.11,44.69.93-6.29-19.35-5.31-20.94-8.52-2.82-5.68,5.96-22.92,8.74-29h0Z"/><polygon class="cls-18" points="514.05 509 514.05 195.03 532.11 195.03 532.11 506.78 514.05 509"/><path class="cls-16" d="m490.23,247.38c-5.66,2.85-11.33,5.73-16.17,10-9.23,8.18-14.85,20.98-20.28,33.56.33-24.96,10.32-45.1,24-59.14,9.64-9.89,47.59-47.42,60.5-9.13-14.55,10.26-32.18,16.7-48.05,24.71Z"/><path class="cls-16" d="m473.94,189.48c16.91,1.71,33.83,3.41,50.75,5.12,5.5.55,11.93,1.73,14.33,6.71,2.07,4.27.11,9.32-1.84,13.64-22.68-3.64-45.5-7.3-68.47-6.8-22.96.49-46.32,5.38-65.75,17.66,6.61-15.66,8.68-29.48,26.08-34.85,14.41-4.45,30.13-2.97,44.9-1.48h0Z"/><path class="cls-16" d="m489.1,162.59c11.81,10.67,23.61,21.36,35.42,32.03,3.83,3.47,7.99,7.96,6.69,13.43-1.12,4.68-5.78,7.82-9.98,10.36-14.98-15.44-30.05-30.98-47.86-43.12-17.79-12.15-38.66-20.85-61.19-21.26,14.89-9.43,25.16-19.81,41.8-14.77,13.78,4.18,24.82,14.01,35.12,23.32h0Z"/><path class="cls-16" d="m531.37,195.46c16.86,7.28,33.34,16.63,45.04,31.03,11.7,14.39,17.94,34.63,12.39,53.06-.57-12.14-9.83-21.45-18.88-28.92-11.33-9.36-23.35-17.87-35.91-25.43-10.39-6.25-21.64-12-33.83-12.19,4.93.08,6.21-20.34,8.93-22.4,4.81-3.64,17.68,2.89,22.26,4.85h0Z"/><path class="cls-16" d="m531.51,184.24c21.75.66,44.01,3.38,63.22,12.55,19.22,9.16,35.03,25.75,37.09,44.95-6-11.1-20.28-16.41-33.54-20.09-16.6-4.6-33.56-8.17-50.73-10.65-14.18-2.06-29.08-3.32-42.58.93,5.45-1.72-2.18-21.21-.09-24.11,3.68-5.15,20.71-3.74,26.62-3.56h0Z"/><path class="cls-16" d="m515.85,169.94c19.63-12.21,40.85-22.98,62.94-26.64,22.11-3.65,45.32.88,57.8,15.63-11.48-5.72-27.07-1.76-40.86,2.96-17.26,5.91-34.26,12.89-50.83,20.88-13.7,6.61-27.6,14.29-37.18,25.74,3.87-4.61-13.7-16.36-13.47-20,.4-6.44,16.27-15.26,21.59-18.57h0Z"/><path class="cls-15" d="m517.81,81.68c16.81-2.55,33.62-5.11,50.43-7.65,5.47-.83,12-1.19,15.68,3.93,3.16,4.39,2.66,10.74,1.96,16.27-22.91,1.86-45.96,3.73-68.01,10.44-22.05,6.71-43.28,18.61-58.7,38.02,2.11-19.88.32-36.41,15.67-47.29,12.71-9.01,28.31-11.5,42.97-13.72h0Z"/><path class="cls-15" d="m544.81,49.94c14.29,9.22,28.58,18.43,42.87,27.65,4.64,2.99,9.81,7,9.43,12.92-.32,5.07-4.63,9.1-8.59,12.43-18.47-13.67-37.06-27.41-57.89-37.19-20.82-9.78-44.24-15.47-67.9-12.23,13.89-12.26,22.77-24.75,41.1-22.19,15.19,2.12,28.52,10.58,40.98,18.62h0Z"/><path class="cls-15" d="m591.96,80.56c23.84,5.65,47.91,13.11,67.61,25.18,19.7,12.07,34.46,29.47,33.66,45.79-4.83-10.57-19.72-18.31-33.72-24.45-17.54-7.69-35.65-14.61-54.14-20.68-15.29-5.02-31.49-9.55-47.02-9.21,6.27-.14.98-18.02,3.74-19.92,4.88-3.38,23.4,1.77,29.87,3.3h0Z"/><path class="cls-15" d="m586.38,60.14c23.41-16.36,48.5-31.63,73.95-39.89,25.45-8.27,51.4-8.52,64.23,3.74-12.52-3.37-30.59,3.85-46.68,11.47-20.14,9.53-40.09,20.09-59.64,31.58-16.17,9.5-32.65,20.12-44.59,33.63,4.81-5.46-14.07-13.63-13.48-17.34,1.05-6.57,19.87-18.74,26.22-23.18Z"/><path class="cls-15" d="m823.84,199.2c23.84,5.64,47.79,13.6,66.99,27.79,19.2,14.18,33,35.57,31.09,56.63-4.19-13.27-18.79-22.21-32.6-29.16-17.3-8.71-35.23-16.37-53.61-22.92-15.2-5.42-31.35-10.14-47.16-8.65,6.38-.6,2.24-23.25,5.17-25.9,5.19-4.68,23.66.68,30.13,2.21h0Z"/><path class="cls-16" d="m826.68,146.82c-7.12,3.59-14.28,7.21-20.49,12.35-11.87,9.81-19.62,24.6-27.15,39.09,2.12-28.06,15.74-51.37,33.47-68.08,12.49-11.78,61.55-56.53,74.73-14.41-18.54,12.53-40.57,20.96-60.56,31.06h0Z"/><path class="cls-16" d="m813.9,106.79c-7.66-2.21-15.38-4.42-23.41-4.89-15.38-.88-31.12,4.68-46.49,10.19,20.63-19.13,46.48-26.95,70.84-27.14,17.16-.13,83.58.43,64.59,40.27-22.11-3.43-44-12.23-65.51-18.43h-.01Z"/><path class="cls-16" d="m816.16,76.74c-4.23-6.76-8.51-13.56-14.18-19.26-10.86-10.91-26.3-17.27-41.44-23.42,28.14-.49,52.61,10.92,70.88,27.03,12.88,11.36,61.98,56.07,21.26,73.09-14.18-17.3-24.63-38.46-36.51-57.44Z"/><path class="cls-16" d="m870.41,98.16c16.86,7.28,33.34,16.63,45.04,31.03,11.7,14.39,17.94,34.63,12.39,53.06-.57-12.14-9.83-21.45-18.88-28.92-11.33-9.36-23.35-17.87-35.91-25.43-10.39-6.25-21.64-12-33.83-12.19,4.93.08,6.21-20.34,8.93-22.4,4.81-3.64,17.68,2.89,22.26,4.85h.01Z"/><path class="cls-16" d="m839.23,84.11c12.55-13.41,26.91-25.77,44.41-31.92,17.49-6.15,38.65-5.19,54.13,6.25-11.62-3.55-23.5,2.01-33.59,8-12.64,7.51-24.71,15.95-36.06,25.22-9.4,7.66-18.6,16.31-22.9,27.73,1.74-4.6-17.05-12.71-18.07-15.97-1.81-5.77,8.69-15.68,12.09-19.31h0Z"/><path class="cls-16" d="m1195.41,95.15c16.86,7.28,33.34,16.63,45.04,31.03,11.7,14.39,17.94,34.63,12.39,53.06-.57-12.14-9.83-21.45-18.88-28.92-11.33-9.36-23.35-17.87-35.91-25.43-10.39-6.25-21.64-12-33.83-12.19,4.93.08,6.21-20.34,8.93-22.4,4.81-3.64,17.68,2.89,22.26,4.85h.01Z"/><path class="cls-16" d="m1187.36,86.55c20.07-4.49,41.04-7.47,60.56-4.64,19.52,2.83,37.45,12.34,43.31,27.08-7.8-7.42-22-8.34-34.91-8.2-16.17.18-32.46,1.27-48.7,3.26-13.43,1.65-27.34,4.08-38.83,10.56,4.63-2.62-6.39-16.32-5.09-19.11,2.31-4.94,18.22-7.74,23.66-8.97h-.01Z"/><path class="cls-16" d="m1177.73,80.87c13.65-16.07,29.22-31.24,47.99-40.08,18.76-8.85,41.27-10.45,57.5-.03-12.3-2.39-25.07,5.12-35.95,12.87-13.62,9.71-26.65,20.34-38.95,31.79-10.17,9.47-20.15,19.97-24.99,32.85,1.96-5.2-17.88-11.61-18.89-15-1.8-6.01,9.59-18.04,13.3-22.4h-.01Z"/><path class="cls-16" d="m1147.67,140.81c-7.12,3.59-14.28,7.21-20.49,12.35-11.87,9.81-19.62,24.6-27.15,39.09,2.12-28.06,15.74-51.37,33.47-68.08,12.49-11.78,61.55-56.53,74.73-14.41-18.54,12.53-40.56,20.96-60.56,31.06Z"/><path class="cls-16" d="m1146.5,80.33c16.69,3.22,33.39,6.44,50.08,9.65,5.43,1.04,11.7,2.9,13.44,9.05,1.49,5.27-1.12,11.18-3.65,16.25-22.2-5.94-44.55-11.91-67.59-12.9-23.04-.99-47.06,3.25-68.13,16.64,8.7-18.34,12.61-34.77,30.73-40.01,15.02-4.34,30.54-1.47,45.11,1.32Z"/><path class="cls-16" d="m1141.68,69.54c-5.35-5.92-10.73-11.87-17.32-16.5-12.6-8.86-28.91-12.43-44.88-15.86,27.63-5.38,53.71,1.6,74.51,14.28,14.66,8.94,70.79,44.43,33.65,68.27-16.98-14.56-30.95-33.58-45.95-50.19h-.01Z"/><path class="cls-16" d="m247.88,89.41c16.86,7.28,33.34,16.63,45.04,31.03,11.7,14.39,17.94,34.63,12.39,53.06-.57-12.14-9.83-21.45-18.88-28.92-11.33-9.36-23.35-17.87-35.91-25.43-10.39-6.25-21.64-12-33.83-12.19,4.93.08,6.21-20.34,8.93-22.4,4.81-3.64,17.68,2.89,22.26,4.85h.01Z"/><path class="cls-16" d="m244.94,76.51c21.78.66,44.06,3.39,63.31,12.55,19.25,9.16,35.07,25.76,37.13,44.95-6.01-11.1-20.31-16.41-33.58-20.09-16.62-4.6-33.6-8.17-50.79-10.65-14.2-2.06-29.12-3.32-42.63.93,5.46-1.72-2.18-21.21-.09-24.11,3.69-5.15,20.74-3.74,26.65-3.56h0Z"/><path class="cls-16" d="m219.24,79.11c13.06-12.91,27.91-24.69,45.63-30.15,17.72-5.46,38.82-3.66,53.85,8.38-11.48-4.01-23.56,1.08-33.88,6.68-12.93,7.01-25.31,14.97-37.02,23.78-9.69,7.29-19.22,15.57-23.97,26.8,1.92-4.53-16.54-13.37-17.42-16.66-1.57-5.83,9.3-15.32,12.84-18.83h-.01Z"/><path class="cls-16" d="m177.07,138.07c-7.12,3.59-14.28,7.21-20.49,12.35-11.87,9.81-19.62,24.6-27.15,39.09,2.12-28.06,15.74-51.37,33.47-68.08,12.49-11.78,61.55-56.53,74.73-14.41-18.54,12.53-40.57,20.96-60.56,31.06Z"/><path class="cls-16" d="m183.04,73.09c16.58,2.88,33.17,5.75,49.75,8.63,5.39.93,11.64,2.65,13.49,8.64,1.58,5.14-.88,10.96-3.28,15.96-22.09-5.46-44.33-10.92-67.14-11.53-22.82-.6-46.48,3.95-67.07,17.4,8.23-18.09,11.76-34.24,29.58-39.66,14.77-4.49,30.19-1.95,44.66.56h0Z"/><path class="cls-16" d="m180.83,64.94c-6.35-4.83-12.73-9.69-20.06-13.03-14.01-6.39-30.7-6.9-47.03-7.33,26.16-10.36,53.08-8.31,75.86.34,16.05,6.09,77.75,30.64,45.63,60.92-19.37-11.19-36.59-27.32-54.41-40.89h.01Z"/><path class="cls-7" d="m41.61,477.71c.6-14.5,8.85-33.87,23.06-36.67,5.03-.99,6,1.03,23.06,4.19,20.34,3.76,23.45,1.72,30.74,5.24,10.8,5.23,14.67,14.9,17.94,23.05,3.74,9.34,9.58,23.93,1.28,36.67-10.71,16.44-41.45,24.33-65.33,15.72-31.62-11.42-30.91-44.45-30.74-48.19h-.01Z"/><path class="cls-24" d="m662.81,465.49c.37-9.7,5.46-22.66,14.22-24.53,3.1-.66,3.7.69,14.22,2.8,12.55,2.52,14.47,1.14,18.97,3.5,6.66,3.49,9.05,9.96,11.06,15.42,2.31,6.25,5.91,16.01.79,24.53-6.61,11-25.57,16.28-40.3,10.51-19.51-7.63-19.07-29.73-18.97-32.24h0Z"/><path class="cls-10" d="m588.89,597.65h-17.08l-1.21-27.59-.51-11.01c-.18,2.12-.39,4.13-.62,6.06s-.52,3.78-.86,5.59l-5.14,26.96-13.29-.47-4.42-26.52c-.26-1.56-.61-4.25-1.05-8.07-.05-.57-.17-1.75-.35-3.53l-.39,11.16-1.45,27.42h-17.39l7.05-60.5h20.33l3.41,20.37c.29,1.68.54,3.49.76,5.45.22,1.96.42,4.09.61,6.39.34-3.84.81-7.27,1.41-10.3l4.15-21.91h20.18l5.88,60.5h-.01Z"/><path class="cls-10" d="m642.91,597.65h-16.89l-1.21-7.68h-11.01l-1.33,7.68h-16.89l14.53-60.5h19.98l12.81,60.5h.02Zm-20.02-20.65l-1.05-7.05s-.08-.38-.16-1.05c-.05-.57-.33-2.85-.82-6.82-.05-.44-.12-1.05-.2-1.83s-.18-1.75-.31-2.92l-.51-5.72c-.05.55-.12,1.16-.21,1.85-.09.68-.19,1.42-.29,2.24-.18,1.63-.31,2.74-.39,3.37s-.13,1-.16,1.13l-1.13,7.32-1.65,9.48h6.9-.01Z"/><path class="cls-10" d="m650.87,597.65v-60.5h15.6l8.19,21.24c.44,1.25.94,2.69,1.5,4.31s1.18,3.49,1.87,5.61l1.69,5.33c-.6-5.25-1.05-9.74-1.37-13.48-.31-3.73-.47-6.87-.47-9.41v-13.59h15.6v60.5h-15.6l-8.23-22.26c-.86-2.38-1.64-4.6-2.33-6.68-.69-2.08-1.3-4.05-1.83-5.94.34,4.26.59,7.96.74,11.12.16,3.16.23,5.93.23,8.31v15.44h-15.6.01Z"/><path class="cls-10" d="m726.88,562.67h22.8v2.51c0,11.66-1.74,20.03-5.22,25.16-3.79,5.59-9.39,8.39-16.81,8.39s-13.01-2.74-17.16-8.23c-4.13-5.54-6.19-13.14-6.19-22.8s2.08-17.51,6.23-23.16c4.15-5.65,9.83-8.47,17.04-8.47,9.56,0,16.5,4.99,20.8,14.97l-15.83,5.8c-.23-1.91-.78-3.41-1.63-4.52-.85-1.11-1.92-1.67-3.19-1.67-4.49,0-6.74,6.18-6.74,18.54,0,5.25.49,9.07,1.48,11.45s2.57,3.56,4.74,3.56c.86,0,1.65-.21,2.35-.62.7-.42,1.29-1,1.79-1.77.48-.75.86-1.68,1.13-2.76s.41-2.3.41-3.62h-6.04v-12.74h.02Z"/><path class="cls-10" d="m804.34,567.6c0,9.22-2.11,16.72-6.31,22.49-4.18,5.75-9.63,8.62-16.34,8.62-5.96,0-11.06-2.21-15.32-6.62-5.36-5.59-8.03-13.97-8.03-25.16s2.8-18.9,8.39-24.57c4.15-4.2,9.08-6.31,14.78-6.31,6.97,0,12.53,2.85,16.65,8.55,4.12,5.7,6.19,13.36,6.19,23h0Zm-16.96.12c0-10.94-1.94-16.42-5.8-16.42-1.94,0-3.47,1.43-4.62,4.31-1.12,2.67-1.69,6.58-1.69,11.76s.53,9.05,1.58,11.86c1.05,2.81,2.53,4.21,4.4,4.21s3.42-1.38,4.46-4.15c1.09-2.77,1.65-6.62,1.65-11.56h0Z"/><path class="cls-10" d="m840.58,596.17v-19.01c3.21,4.39,6.69,6.58,10.42,6.58,1.41,0,2.56-.37,3.45-1.11.88-.74,1.33-1.68,1.33-2.8,0-1.61-.96-3.2-2.9-4.74l-2.67-2.08c-1.78-1.33-3.29-2.66-4.54-3.97s-2.28-2.68-3.06-4.07c-.78-1.39-1.35-2.84-1.73-4.33-.37-1.48-.55-3.06-.55-4.7,0-2.82.65-5.77,1.96-8.86.65-1.43,1.41-2.75,2.28-3.94.86-1.18,1.86-2.24,2.98-3.15,3.08-2.61,6.8-3.92,11.16-3.92,3.89,0,7.81,1.03,11.76,3.1v18.5c-1.33-2.07-2.85-3.69-4.54-4.88-1.7-1.18-3.37-1.79-5.02-1.79-1.25,0-2.29.37-3.1,1.09-.83.7-1.25,1.55-1.25,2.55,0,1.63,1.11,3.23,3.33,4.81l2.59,1.92c3.45,2.48,5.92,5.03,7.4,7.64,1.51,2.61,2.28,5.67,2.28,9.17,0,5.96-1.82,10.86-5.45,14.74-3.63,3.86-8.23,5.8-13.79,5.8-3.84,0-7.95-.85-12.34-2.55h0Z"/><path class="cls-10" d="m898.1,597.65h-16.34v-60.5h15.83c7.88,0,13.74,1.6,17.55,4.81,4.49,3.79,6.74,9.05,6.74,15.79,0,7.34-2.39,12.81-7.17,16.42-3.27,2.43-7.95,3.64-14.06,3.64h-2.55v19.83h0Zm0-33.42l.74.04c1.99,0,3.56-.61,4.74-1.83s1.77-2.88,1.77-5-.57-3.79-1.73-5.1c-1.15-1.33-2.61-2-4.39-2h-1.13v13.87Z"/><path class="cls-10" d="m947.15,597.65h-16.34v-60.5h16.34v60.5Z"/><path class="cls-10" d="m987.43,597.65h-28.61v-60.5h16.34v45.96h12.27v14.53Z"/><path class="cls-10" d="m1024.1,597.65h-28.61v-60.5h16.34v45.96h12.27v14.53Z"/><path class="cls-10" d="m1032.17,597.65v-60.5h30.36v14.22h-14.02v8.82h12.58v13.67h-12.58v9.25h14.02v14.53h-30.36Z"/><path class="cls-10" d="m1093.84,597.65h-16.34v-46h-9.01v-14.49h34.72v14.49h-9.37v46Z"/><path class="cls-22" d="m1267.63,272.35c2.08-5.24,8.48-8.95,14.9-8.64,2.53.12,4.98.79,7.32,1.6,2.38.82,4.73,1.84,6.54,3.39,2.7,2.33,3.89,5.65,4.45,8.9,1.1,6.3.14,12.89-3.07,18.64-3.2,5.74-8.69,10.57-15.45,13.2-6.51,2.53-22.65,1.97-20.36-7.62.52-2.2,2.8-3.64,4.31-5.33,2.25-2.49,2.84-4.76,2.32-7.87-.9-5.37-3.12-10.89-.98-16.27h.02Z"/><path class="cls-20" d="m1278.41,264.16v-4.88c0-.82.85-1.46,1.81-1.35h0c.89.1,1.5.82,1.35,1.58-.27,1.38-.45,2.78-.52,4.18"/><path class="cls-19" d="m1294.77,260.78c6.01,1.57,10.67,6.4,11.4,11.76.04.33.05.71-.24.93-.21.15-.5.17-.78.18-3.88.13-8.1.16-11.2-1.85-1.91-1.24-3.11-3.1-4.51-4.76-.9-1.07-8.09-6.34-7.83-6.94.65-1.44,11.55.26,13.17.69h.01Z"/><path class="cls-1" d="m745.86,678.03c-.02-2.83-.78-5.66-2.18-8.13"/><ellipse class="cls-9" cx="388.48" cy="525.28" rx="20.32" ry="20.4"/><ellipse class="cls-9" cx="352.71" cy="530.18" rx="20.32" ry="20.4"/><ellipse class="cls-9" cx="262.48" cy="530.18" rx="20.32" ry="20.4"/><ellipse class="cls-9" cx="237.28" cy="530.18" rx="20.32" ry="20.4"/><ellipse class="cls-9" cx="260.04" cy="497.54" rx="20.32" ry="20.4"/><ellipse class="cls-9" cx="371.4" cy="520.39" rx="20.32" ry="20.4"/><ellipse class="cls-9" cx="359.22" cy="502.43" rx="20.32" ry="20.4"/><ellipse class="cls-14" cx="356.93" cy="524" rx="6.67" ry="30.14" transform="translate(-249.13 337.8) rotate(-38.66)"/><ellipse class="cls-14" cx="256.27" cy="524.24" rx="30.14" ry="6.67" transform="translate(-313.19 396.86) rotate(-51.34)"/><ellipse class="cls-13" cx="292.15" cy="615.04" rx="9.35" ry="12.24"/><ellipse class="cls-13" cx="318.16" cy="615.04" rx="9.35" ry="12.24"/><ellipse class="cls-14" cx="318.16" cy="598.31" rx="8.54" ry="24.89"/><ellipse class="cls-14" cx="292.15" cy="598.31" rx="8.54" ry="24.89"/><polygon class="cls-10" points="270.56 486.11 267.35 583.21 347.83 583.21 343.15 490.89 270.56 486.11"/><ellipse class="cls-9" cx="232.41" cy="482.85" rx="20.32" ry="20.4"/><ellipse class="cls-9" cx="381.98" cy="477.13" rx="20.32" ry="20.4"/><path class="cls-14" d="m331.12,495.49h-47.46c-4.12,0-10.58-.49-17.89-3.22-2.34-.87-10.77-4.22-18.36-11.85-13.66-13.75-14.85-31.63-15.02-36.38v-15.82c0-28.42,22.95-51.46,51.26-51.46h47.46c28.31,0,51.26,23.04,51.26,51.46v15.82c0,28.42-22.95,51.46-51.26,51.46h0Z"/><ellipse class="cls-4" cx="283.21" cy="443.68" rx="10.56" ry="9.38"/><ellipse class="cls-4" cx="323.85" cy="443.68" rx="10.56" ry="9.38"/><path class="cls-5" d="m291.77,444.17c.14-.58.28-1.18.14-1.76s-.65-1.11-1.32-1.14c-.48-.02-.93.21-1.38.38-1.3.5-2.88.54-3.92,1.4-1.08.9-1.18,2.37-1.2,3.66-.01.77.04,1.68.76,2.12.46.29,1.08.29,1.66.28,1.06-.02,2.19-.04,3.13-.51,1.09-.55,1.75-1.63,1.98-2.71s.09-2.19-.05-3.28"/><path class="cls-5" d="m331.35,444.54c.19-.63.39-1.28.35-1.95s-.38-1.34-.92-1.48c-.39-.1-.79.09-1.18.22-1.13.36-2.41.16-3.37.97-1,.84-1.28,2.47-1.47,3.92-.11.87-.19,1.89.33,2.49.34.39.84.49,1.3.57.87.15,1.79.28,2.61-.1.96-.45,1.64-1.55,1.97-2.74s.37-2.44.4-3.67"/><ellipse class="cls-9" cx="227.12" cy="403.08" rx="20.32" ry="20.19"/><ellipse class="cls-9" cx="220.21" cy="429.81" rx="20.32" ry="20.4"/><ellipse class="cls-9" cx="220.62" cy="458.78" rx="20.72" ry="20.8"/><ellipse class="cls-9" cx="407.99" cy="465.71" rx="20.32" ry="20.4"/><ellipse class="cls-9" cx="252.73" cy="380.03" rx="20.32" ry="20.4"/><ellipse class="cls-9" cx="275.49" cy="371.87" rx="20.32" ry="20.4"/><ellipse class="cls-9" cx="303.12" cy="372.69" rx="21.14" ry="15.51"/><ellipse class="cls-9" cx="379.53" cy="396.35" rx="20.32" ry="22.03"/><ellipse class="cls-9" cx="355.14" cy="380.03" rx="20.32" ry="20.4"/><ellipse class="cls-9" cx="395.79" cy="445.31" rx="20.32" ry="20.4"/><ellipse class="cls-9" cx="390.1" cy="424.1" rx="18.7" ry="21.22"/><ellipse class="cls-9" cx="330.76" cy="373.5" rx="20.32" ry="20.4"/><ellipse class="cls-9" cx="414.49" cy="462.45" rx="20.32" ry="20.4"/><ellipse class="cls-9" cx="408.8" cy="442.04" rx="20.32" ry="20.4"/><ellipse class="cls-9" cx="399.85" cy="415.12" rx="20.32" ry="20.4"/><ellipse class="cls-9" cx="390.1" cy="391.46" rx="20.32" ry="20.4"/><ellipse class="cls-9" cx="368.15" cy="371.06" rx="20.32" ry="20.4"/><ellipse class="cls-9" cx="338.89" cy="362.08" rx="20.32" ry="20.4"/><ellipse class="cls-9" cx="310.44" cy="357.18" rx="20.32" ry="20.4"/><ellipse class="cls-9" cx="282.8" cy="357.18" rx="20.32" ry="20.4"/><ellipse class="cls-9" cx="255.17" cy="366.97" rx="20.32" ry="20.4"/><ellipse class="cls-9" cx="232.41" cy="382.48" rx="20.32" ry="20.4"/><ellipse class="cls-9" cx="215.33" cy="406.14" rx="20.32" ry="20.4"/><ellipse class="cls-9" cx="207.21" cy="435.51" rx="20.32" ry="20.4"/><ellipse class="cls-9" cx="203.95" cy="465.71" rx="20.32" ry="20.4"/><ellipse class="cls-9" cx="410.43" cy="486.11" rx="20.32" ry="20.4"/><ellipse class="cls-9" cx="235.66" cy="506.51" rx="20.32" ry="20.4"/><ellipse class="cls-9" cx="408.8" cy="504.88" rx="20.32" ry="20.4"/><ellipse class="cls-9" cx="199.89" cy="492.64" rx="20.32" ry="20.4"/><ellipse class="cls-9" cx="215.33" cy="514.67" rx="20.32" ry="20.4"/><ellipse class="cls-9" cx="388.48" cy="506.51" rx="20.32" ry="20.4"/><ellipse class="cls-9" cx="359.22" cy="388.19" rx="20.32" ry="20.4"/><path class="cls-6" d="m333.53,439.57l5.79-5.19"/><path class="cls-3" d="m331.13,437.51c1.87-2.13,3.27-4.65,4.08-7.36"/><path class="cls-3" d="m275.5,437.17c-2.17-1.84-4.02-4.03-5.49-6.48"/><path class="cls-3" d="m274.78,439.71c-3.98-1.11-7.53-3.8-9.86-7.45"/><path class="cls-1" d="m304.14,570.24c-.02-2.31-.63-4.6-1.77-6.61"/><ellipse class="cls-10" cx="341.73" cy="507.33" rx="11.79" ry="11.43"/><ellipse class="cls-10" cx="271.83" cy="507.33" rx="11.79" ry="11.43"/><path class="cls-2" d="m289.37,462.45c3.03,6.72,8.47,11.2,14.14,11.69,5.68.47,11.47-3.08,15.05-9.24"/><path class="cls-23" d="m1099.11,191.1c2.08-5.24,8.48-8.95,14.9-8.64,2.53.12,4.98.79,7.32,1.6,2.38.82,4.73,1.84,6.54,3.39,2.7,2.33,3.89,5.65,4.45,8.9,1.1,6.3.14,12.89-3.07,18.64-3.2,5.74-8.69,10.57-15.45,13.2-6.51,2.53-22.65,1.97-20.36-7.62.52-2.2,2.8-3.64,4.31-5.33,2.25-2.49,2.84-4.76,2.32-7.87-.9-5.37-3.12-10.89-.98-16.27h.02Z"/><path class="cls-20" d="m1109.89,182.91v-4.88c0-.82.85-1.46,1.81-1.35h0c.89.1,1.5.82,1.35,1.58-.27,1.38-.45,2.78-.52,4.18"/><path class="cls-19" d="m1126.25,179.53c6.01,1.57,10.67,6.4,11.4,11.76.04.33.05.71-.24.93-.21.15-.5.17-.78.18-3.88.13-8.1.16-11.2-1.85-1.91-1.24-3.11-3.1-4.51-4.76-.9-1.07-8.09-6.34-7.83-6.94.65-1.44,11.55.26,13.17.69h.01Z"/><path class="cls-27" d="m797.18,236.24c2.08-5.24,8.48-8.95,14.9-8.64,2.53.12,4.98.79,7.32,1.6,2.38.82,4.73,1.84,6.54,3.39,2.7,2.33,3.89,5.65,4.45,8.9,1.1,6.3.14,12.89-3.07,18.64-3.2,5.74-8.69,10.57-15.45,13.2-6.51,2.53-22.65,1.97-20.36-7.62.52-2.2,2.8-3.64,4.31-5.33,2.25-2.49,2.84-4.76,2.32-7.87-.9-5.37-3.12-10.89-.98-16.27h.02Z"/><path class="cls-20" d="m807.96,228.04v-4.88c0-.82.85-1.46,1.81-1.35h0c.89.1,1.5.82,1.35,1.58-.27,1.38-.45,2.78-.52,4.18"/><path class="cls-19" d="m824.32,224.66c6.01,1.57,10.67,6.4,11.4,11.76.04.33.05.71-.24.93-.21.15-.5.17-.78.18-3.88.13-8.11.16-11.2-1.85-1.91-1.24-3.11-3.1-4.51-4.76-.9-1.07-8.09-6.34-7.83-6.94.65-1.44,11.55.26,13.17.69h.01Z"/><path class="cls-25" d="m514.31,236.24c2.08-5.24,8.48-8.95,14.9-8.64,2.53.12,4.98.79,7.32,1.6,2.38.82,4.73,1.84,6.54,3.39,2.7,2.33,3.89,5.65,4.45,8.9,1.1,6.3.14,12.89-3.07,18.64-3.2,5.74-8.69,10.57-15.45,13.2-6.51,2.53-22.65,1.97-20.36-7.62.52-2.2,2.8-3.64,4.31-5.33,2.25-2.49,2.84-4.76,2.32-7.87-.9-5.37-3.12-10.89-.98-16.27h.02Z"/><path class="cls-20" d="m525.09,228.04v-4.88c0-.82.85-1.46,1.81-1.35h0c.89.1,1.5.82,1.35,1.58-.27,1.38-.45,2.78-.52,4.18"/><path class="cls-19" d="m541.45,224.66c6.01,1.57,10.67,6.4,11.4,11.76.04.33.05.71-.24.93-.21.15-.5.17-.78.18-3.88.13-8.11.16-11.2-1.85-1.91-1.24-3.11-3.1-4.51-4.76-.9-1.07-8.09-6.34-7.83-6.94.65-1.44,11.55.26,13.17.69h.01Z"/><path class="cls-26" d="m125.11,215.17c2.08-5.24,8.48-8.95,14.9-8.64,2.53.12,4.98.79,7.32,1.6,2.38.82,4.73,1.84,6.54,3.39,2.7,2.33,3.89,5.65,4.45,8.9,1.1,6.3.14,12.89-3.07,18.64-3.2,5.74-8.69,10.57-15.45,13.2-6.51,2.53-22.65,1.97-20.36-7.62.52-2.2,2.8-3.64,4.31-5.33,2.25-2.49,2.84-4.76,2.32-7.87-.9-5.37-3.12-10.89-.98-16.27h.02Z"/><path class="cls-20" d="m135.89,206.98v-4.88c0-.82.85-1.46,1.81-1.35h0c.89.1,1.5.82,1.35,1.58-.27,1.38-.45,2.78-.52,4.18"/><path class="cls-19" d="m152.25,203.6c6.01,1.57,10.67,6.4,11.4,11.76.04.33.05.71-.24.93-.21.15-.5.17-.78.18-3.88.13-8.1.16-11.2-1.85-1.91-1.24-3.11-3.1-4.51-4.76-.9-1.07-8.09-6.34-7.83-6.94.65-1.44,11.55.26,13.17.69h.01Z"/><path class="cls-21" d="m957.67,125.9c2.08-5.24,8.48-8.95,14.9-8.64,2.53.12,4.98.79,7.32,1.6,2.38.82,4.73,1.84,6.54,3.39,2.7,2.33,3.89,5.65,4.45,8.9,1.1,6.3.14,12.89-3.07,18.64-3.2,5.74-8.69,10.57-15.45,13.2-6.51,2.53-22.65,1.97-20.36-7.62.52-2.2,2.8-3.64,4.31-5.33,2.25-2.49,2.84-4.76,2.32-7.87-.9-5.37-3.12-10.89-.98-16.27h.02Z"/><path class="cls-20" d="m968.46,117.7v-4.88c0-.82.85-1.46,1.81-1.35h0c.89.1,1.5.82,1.35,1.58-.27,1.38-.45,2.78-.52,4.18"/><path class="cls-19" d="m984.82,114.32c6.01,1.57,10.67,6.4,11.4,11.76.04.33.05.71-.24.93-.21.15-.5.17-.78.18-3.88.13-8.1.16-11.2-1.85-1.91-1.24-3.11-3.1-4.51-4.76-.9-1.07-8.09-6.34-7.83-6.94.65-1.44,11.55.26,13.17.69h.01Z"/></g></g></svg>